<!-- Generated by IcoMoon.io -->
<svg version="1.1" xmlns="http://www.w3.org/2000/svg" width="32" height="32" viewBox="0 0 32 32">
<title>add-user</title>
<path d="M22.933 16c-0.667-0.267-1.2-0.533-1.867-0.8 2.133-1.6 3.467-4 3.467-6.8 0-4.533-3.867-8.4-8.533-8.4s-8.533 3.867-8.533 8.533c0 2.8 1.333 5.2 3.467 6.8-1.867 0.667-3.733 1.6-5.2 2.933-2.8 2.4-4.8 5.6-5.6 9.2-0.267 1.067 0 2.267 0.8 3.2 0.667 0.933 1.733 1.333 2.933 1.333h15.333c0.667 0 1.2-0.533 1.2-1.2s-0.533-1.2-1.2-1.2h-15.467c-0.533 0-0.8-0.267-0.933-0.533-0.267-0.267-0.4-0.667-0.267-1.067 1.333-6.267 6.8-10.8 13.2-10.933 0.133 0 0.267 0 0.267 0 0.133 0 0.267 0 0.4 0 2 0 3.867 0.533 5.6 1.333 0.667 0.267 1.333 0 1.6-0.533 0.267-0.8 0-1.467-0.667-1.867zM16.267 14.533c-0.133 0-0.267 0-0.267 0-0.133 0-0.267 0-0.267 0-3.2-0.133-5.733-2.8-5.733-6 0-3.333 2.667-6 6-6s6 2.667 6 6c0 3.2-2.533 5.733-5.733 6zM30.8 24.8h-3.467v-3.467c0-0.667-0.533-1.2-1.2-1.2s-1.2 0.533-1.2 1.2v3.467h-3.6c-0.667 0-1.2 0.533-1.2 1.2s0.533 1.2 1.2 1.2h3.467v3.467c0 0.667 0.533 1.2 1.2 1.2s1.2-0.533 1.2-1.2v-3.467h3.467c0.667 0 1.2-0.533 1.2-1.2 0.133-0.667-0.4-1.2-1.067-1.2z"></path>
</svg>
