<svg version="1.1" xmlns="http://www.w3.org/2000/svg" width="32" height="32" viewBox="0 0 32 32">
<title>announcement</title>
<path d="M16 0c-8.8 0-16 7.2-16 16s7.2 16 16 16 16-7.2 16-16v0c0-8.8-7.2-16-16-16zM16 29.733c-7.6 0-13.733-6.133-13.733-13.733s6.133-13.733 13.733-13.733 13.733 6.133 13.733 13.733-6.133 13.733-13.733 13.733v0zM16.4 6.533c-0.667 0-1.2 0.533-1.2 1.2v10.667c0 0.667 0.533 1.2 1.2 1.2s1.2-0.533 1.2-1.2v-10.667c-0.133-0.8-0.533-1.2-1.2-1.2zM16.4 21.333c-0.667 0-1.2 0.533-1.2 1.2s0.533 1.2 1.2 1.2 1.2-0.533 1.2-1.2c-0.133-0.667-0.533-1.2-1.2-1.2z"></path>
</svg>
