<!-- Generated by IcoMoon.io -->
<svg version="1.1" xmlns="http://www.w3.org/2000/svg" width="32" height="32" viewBox="0 0 32 32">
<title>apple</title>
<path d="M28.933 11.6c-1.2-3.2-4-5.067-7.2-5.2-0.933 0-1.867 0-3.067 0.267-0.4 0.133-0.8 0.133-1.2 0.267-0.267 0-0.4 0.133-0.667 0.133 0.133-1.467 0.667-4.133 3.067-5.467l-0.667-1.6c-1.867 0.933-3.2 2.667-3.733 5.067-0.133 0.8-0.267 1.467-0.267 2-0.267 0-0.4-0.133-0.667-0.133-0.533-0.133-0.933-0.267-1.333-0.267-1.067-0.267-2.133-0.4-2.933-0.267-3.333 0.133-6 2-7.2 5.2-2.133 5.067-0.933 11.067 2.933 15.733 1.2 1.333 2.4 2.533 3.733 3.467 0.8 0.533 2 1.333 3.2 1.333 1.333 0 2.4-0.4 3.067-0.8 0.667 0.267 1.733 0.667 3.067 0.8 0 0 0 0 0 0 1.2 0 2.4-0.8 3.2-1.333 1.333-0.933 2.667-2 3.733-3.467 3.867-4.667 5.067-10.667 2.933-15.733zM24.533 26c-1.067 1.2-2.133 2.267-3.333 3.067-0.533 0.4-1.467 0.933-2.133 0.933 0 0 0 0 0 0-1.467 0-2.533-0.667-2.533-0.667l-0.533-0.267-0.533 0.4c0 0-1.067 0.667-2.533 0.667 0 0 0 0 0 0-0.667 0-1.6-0.533-2.133-0.933-1.2-0.8-2.4-1.867-3.333-3.067-3.467-4.133-4.4-9.333-2.667-13.733 0.933-2.533 3.067-4 5.467-4 0.8 0 1.6 0 2.667 0.267 0.267 0 0.667 0.133 0.933 0.267 0.533 0.133 1.067 0.267 1.733 0.4v0h0.8c0.533 0 1.2-0.267 1.733-0.4 0.4-0.133 0.667-0.133 0.933-0.267 1.067-0.133 1.867-0.267 2.667-0.267 2.533 0.133 4.533 1.6 5.467 4 1.867 4.267 0.8 9.6-2.667 13.6z"></path>
</svg>
