<svg version="1.1" xmlns="http://www.w3.org/2000/svg" width="32" height="32" viewBox="0 0 32 32">
<title>arrow-down-circle</title>
<path d="M16 32c8.8 0 16-7.2 16-16s-7.2-16-16-16-16 7.2-16 16c0 8.8 7.2 16 16 16zM16 2.133c7.6 0 13.867 6.133 13.867 13.867s-6.267 13.867-13.867 13.867-13.867-6.267-13.867-13.867 6.267-13.867 13.867-13.867v0zM14.8 20.4c0 0 0 0 0 0 0.133 0 0.133 0 0 0 0.133 0.133 0.133 0.133 0.267 0.133 0.133 0.133 0.267 0.133 0.4 0.133s0.267 0 0.4 0c0.133 0 0.267-0.133 0.4-0.133 0 0 0.133 0 0.133-0.133 0 0 0 0 0 0s0 0 0 0l5.467-5.867c0.4-0.4 0.4-1.067 0-1.6-0.267-0.133-0.533-0.267-0.8-0.267s-0.533 0.133-0.8 0.4l-4.667 4.933-4.667-4.933c-0.133-0.267-0.4-0.4-0.8-0.4-0.267 0-0.533 0.133-0.8 0.267-0.4 0.4-0.4 1.067 0 1.6l5.467 5.867z"></path>
</svg>
