<!-- Generated by IcoMoon.io -->
<svg version="1.1" xmlns="http://www.w3.org/2000/svg" width="32" height="32" viewBox="0 0 32 32">
<title>arrow-up-circle</title>
<path d="M16 0c-8.8 0-16 7.2-16 16s7.2 16 16 16 16-7.2 16-16c0-8.8-7.2-16-16-16zM16 29.867c-7.6 0-13.867-6.267-13.867-13.867s6.267-13.867 13.867-13.867 13.867 6.267 13.867 13.867-6.267 13.867-13.867 13.867v0zM17.2 11.6c0 0 0 0 0 0-0.133 0-0.133 0 0 0-0.133-0.133-0.133-0.133-0.267-0.133-0.133-0.133-0.267-0.133-0.4-0.133s-0.267 0-0.4 0c-0.133 0-0.267 0.133-0.4 0.133 0 0-0.133 0-0.133 0.133 0 0 0 0 0 0s0 0 0 0l-5.467 5.867c-0.4 0.4-0.4 1.067 0 1.6 0.267 0.133 0.533 0.267 0.8 0.267s0.533-0.133 0.8-0.4l4.667-4.933 4.667 4.933c0.267 0.267 0.533 0.4 0.8 0.4s0.533-0.133 0.8-0.267c0.4-0.4 0.4-1.067 0-1.6l-5.467-5.867z"></path>
</svg>
