<!-- Generated by IcoMoon.io -->
<svg version="1.1" xmlns="http://www.w3.org/2000/svg" width="32" height="32" viewBox="0 0 32 32">
<title>arrow-left-circle</title>
<path d="M16 0c-8.8 0-16 7.2-16 16s7.2 16 16 16 16-7.2 16-16c0-8.8-7.2-16-16-16zM16 29.867c-7.6 0-13.867-6.267-13.867-13.867s6.267-13.867 13.867-13.867 13.867 6.267 13.867 13.867-6.267 13.867-13.867 13.867v0zM14.933 15.867l5.067-5.067c0.4-0.4 0.4-1.067 0-1.6-0.4-0.4-1.067-0.4-1.6 0 0 0 0 0 0 0l-6.533 6.533 6.667 6.667c0.4 0.4 1.067 0.4 1.6 0 0.4-0.4 0.4-1.067 0-1.467l-5.2-5.067z"></path>
</svg>
