<svg version="1.1" xmlns="http://www.w3.org/2000/svg" width="32" height="32" viewBox="0 0 32 32">
<title>arrows-horizontal</title>
<path d="M32 22.8c0.133-0.4 0-0.933-0.4-1.333l-6.133-5.333c-0.533-0.533-1.467-0.533-2.133 0-0.533 0.533-0.667 1.467 0 2 0 0 0 0 0 0l3.733 3.333h-21.733c-0.8 0-1.467 0.667-1.467 1.467 0 0 0 0 0 0 0 0.8 1.2 1.467 2 1.467h21.467l-4.133 3.333c-0.533 0.533-0.667 1.467-0.133 2 0 0 0 0 0 0 0.267 0.267 0.667 0.533 1.067 0.533s0.667-0.133 1.067-0.4l6.4-5.867c0.267-0.267 0.4-0.667 0.4-1.2zM0 9.6c-0.133 0.4 0 0.933 0.4 1.333l6.133 5.333c0.533 0.533 1.467 0.667 2.133 0 0.533-0.533 0.667-1.467 0-2 0 0 0 0 0 0l-3.6-3.333h21.733c0.8 0 1.467-0.667 1.467-1.467s-0.667-1.467-1.467-1.467h-22l4.133-3.333c0.533-0.533 0.667-1.467 0.133-2 0 0 0 0 0 0-0.667-0.667-1.6-0.667-2.133-0.133l-6.533 5.733c-0.267 0.4-0.4 0.8-0.4 1.333v0z"></path>
</svg>
