<!-- Generated by IcoMoon.io -->
<svg version="1.1" xmlns="http://www.w3.org/2000/svg" width="32" height="32" viewBox="0 0 32 32">
<title>arrows-vertical</title>
<path d="M10 32c0.4 0.133 0.933 0 1.333-0.4l5.333-6.133c0.533-0.533 0.533-1.467 0-2.133-0.533-0.533-1.467-0.667-2-0.133 0 0 0 0 0 0l-3.333 3.733v-21.6c0-0.8-0.667-1.467-1.467-1.467s-1.467 1.2-1.467 2v21.333l-3.333-4.133c-0.533-0.533-1.467-0.667-2-0.133 0 0 0 0 0 0-0.267 0.267-0.4 0.667-0.4 1.067s0.133 0.667 0.4 0.933l5.733 6.4c0.267 0.533 0.667 0.667 1.2 0.667zM23.2 0c-0.4-0.133-0.933 0-1.333 0.4l-5.333 6.133c-0.533 0.533-0.533 1.467 0 2.133 0.533 0.533 1.467 0.667 2 0.133 0 0 0 0 0 0l3.333-3.733v21.733c0 0.8 0.667 1.467 1.467 1.467s1.467-0.667 1.467-1.467v-22l3.2 4.133c0.533 0.533 1.467 0.667 2 0.133 0 0 0 0 0 0 0.533-0.4 0.667-0.8 0.667-1.2s-0.133-0.667-0.4-1.067l-5.867-6.4c-0.267-0.267-0.8-0.4-1.2-0.4v0z"></path>
</svg>
