<svg version="1.1" xmlns="http://www.w3.org/2000/svg" width="32" height="32" viewBox="0 0 32 32">
<title>avocado</title>
<path d="M29.2 14.933c-0.4-0.667-0.667-1.2-1.067-1.867-0.667-1.2-1.333-2.133-1.6-3.467-0.667-2.933-2.133-4.267-3.2-4.933-1.067-0.533-2-0.667-2.267-0.667s-1.2 0-2.267 0.667c-0.933 0.533-2.133 1.6-2.8 3.733-0.667-2.133-1.867-3.2-2.8-3.733-0.533-0.267-1.067-0.4-1.467-0.533 0 0 0 0 0 0-0.533-2.933-3.867-4.133-4-4.133l-0.667 1.733c0 0 2.133 0.8 2.667 2.4v0c-0.267 0.133-0.667 0.4-1.067 0.533-1.067 0.667-2.533 2-3.067 4.933-0.4 1.333-0.933 2.4-1.733 3.467-0.4 0.533-0.667 1.2-1.067 1.867-1.867 3.6-2.667 9.333 0 13.333 1.6 2.267 4.533 3.733 7.867 3.733 0 0 0.133 0 0.133 0s0.133 0 0.133 0c1.867 0 3.467-0.533 4.933-1.2 1.467 0.8 3.067 1.2 4.933 1.2 0 0 0.133 0 0.133 0s0.133 0 0.133 0c3.333-0.133 6.267-1.467 7.867-3.733 1.333-1.867 1.867-4 1.867-6.267 0.133-2.533-0.533-5.067-1.6-7.067zM16 28.533c-0.533 0.4-1.2 0.667-1.733 0.933-0.933 0.4-2 0.533-3.2 0.533-0.133 0-0.133 0-0.267 0-2.8 0-5.2-1.2-6.4-2.933-2.267-3.2-1.6-8.133 0-11.333 0.267-0.667 0.667-1.2 1.067-1.733 0.8-1.2 1.467-2.4 1.867-4.133 0.8-4 3.2-4.133 3.467-4.133 0 0 0 0 0 0v0h0.133c0 0 2.533-0.133 3.467 4.133 0.133 0.533 0.267 1.067 0.533 1.6 0.267 0.667 0.667 1.333 1.067 2 0.133 0.133 0.267 0.4 0.4 0.533 0.133 0.267 0.4 0.533 0.533 0.8s0.4 0.533 0.533 0.933c1.733 3.2 2.267 8.133 0 11.333-0.4 0.667-0.933 1.067-1.467 1.467zM27.6 27.067c-1.333 1.867-3.733 2.933-6.4 2.933-0.133 0-0.133 0-0.267 0-1.2 0-2.267-0.267-3.2-0.533 0.4-0.4 0.8-0.8 1.2-1.333 2.8-4 2-9.6 0-13.333-0.4-0.667-0.667-1.2-1.067-1.867-0.4-0.533-0.667-1.067-0.933-1.6 0.133-0.533 0.4-0.933 0.533-1.6 0.8-4 3.2-4.133 3.467-4.133 0 0 0 0 0 0v0h0.133c0 0 0 0 0 0 0.267 0 2.667 0.133 3.467 4.133 0.4 1.733 1.2 2.933 1.867 4.133 0.133 0.267 0.4 0.533 0.533 0.8s0.4 0.533 0.533 0.933c1.867 3.467 2.4 8.4 0.133 11.467zM15.067 16.533c-0.133-0.267-0.267-0.4-0.533-0.667-0.4-0.533-0.933-0.933-1.467-1.2-0.667-0.4-1.333-0.533-2.133-0.533-1.6 0-2.933 0.8-4.133 2.4-0.933 1.333-1.6 3.2-1.6 4.933s0.533 3.467 1.6 4.667c1.067 1.333 2.533 2 4 2 0.667 0 1.2-0.133 1.867-0.4 0.533-0.267 1.067-0.533 1.6-1.067 0.267-0.267 0.4-0.4 0.667-0.667 1.067-1.2 1.6-2.933 1.6-4.667 0-1.6-0.533-3.333-1.467-4.8zM13.467 24.933c-0.4 0.533-0.933 0.933-1.6 1.2-0.267 0.133-0.667 0.133-0.933 0.133-2.133 0-3.733-2.133-3.733-4.8 0-2.8 1.733-5.467 3.733-5.467 0.4 0 0.933 0.133 1.333 0.4 0.533 0.4 1.067 0.933 1.467 1.467 0.533 0.933 0.933 2.267 0.933 3.467 0 1.467-0.4 2.8-1.2 3.6z"></path>
</svg>
