<svg version="1.1" xmlns="http://www.w3.org/2000/svg" width="32" height="32" viewBox="0 0 32 32">
<title>bag</title>
<path d="M27.2 6.4h-4.267c-0.4-3.333-3.6-6.4-6.933-6.4s-6.533 3.067-7.067 6.4h-4.133c-1.067-0.133-2 0.8-2.133 1.867 0 0 0 0.133 0 0.133v21.2c0 1.2 0.933 2.133 2.133 2.133h22.4c1.2 0 2.133-0.933 2.133-2.133v-21.2c0-1.2-0.933-2-2.133-2 0.133 0 0.133 0 0 0zM16 2.133c2.133 0 4.4 2.133 4.933 4.267h-9.867c0.533-2.133 2.8-4.267 4.933-4.267zM27.2 29.6h-22.4v-21.067h4.267v1.733c0 0.533 0.533 1.067 1.067 1.067s1.067-0.533 1.067-1.067v-1.733h9.867v1.733c0 0.533 0.533 1.067 1.067 1.067s1.067-0.533 1.067-1.067v-1.733h4.267v21.067z"></path>
</svg>
