<svg version="1.1" xmlns="http://www.w3.org/2000/svg" width="32" height="32" viewBox="0 0 32 32">
<title>basket</title>
<path d="M14.133 25.6c0.533 0 1.067-0.533 1.067-1.067 0 0 0 0 0 0v-5.067c0-0.533-0.533-1.067-1.067-1.067s-1.067 0.533-1.067 1.067v5.067c0 0.533 0.4 1.067 1.067 1.067 0 0 0 0 0 0zM17.733 25.6c0.533 0 1.067-0.533 1.067-1.067 0 0 0 0 0 0v-5.067c0-0.533-0.533-1.067-1.067-1.067s-1.067 0.533-1.067 1.067v5.067c0 0.533 0.4 1.067 1.067 1.067 0 0 0 0 0 0zM21.333 25.6c0.533 0 1.067-0.533 1.067-1.067 0 0 0 0 0 0v-5.067c0-0.533-0.533-1.067-1.067-1.067s-1.067 0.533-1.067 1.067v5.067c0 0.533 0.4 1.067 1.067 1.067 0 0 0 0 0 0zM10.533 25.6c0.533 0 1.067-0.533 1.067-1.067 0 0 0 0 0 0v-5.067c0-0.533-0.533-1.067-1.067-1.067s-1.067 0.533-1.067 1.067v5.067c0 0.533 0.533 1.067 1.067 1.067 0 0 0 0 0 0zM29.6 8.533h-1.333c0 0 0 0 0 0l-7.067-6.8c-0.4-0.4-1.067-0.4-1.467 0 0 0 0 0 0 0-0.4 0.4-0.4 1.067 0 1.6l5.6 5.333h-18.667l5.6-5.333c0.4-0.4 0.4-1.067 0-1.6-0.4-0.4-1.067-0.4-1.467 0 0 0 0 0 0 0l-7.067 6.8c0 0 0 0 0 0h-1.333c-1.2 0-2.133 1.067-2.133 2.267 0 0 0 0 0 0v2.8c0 1.2 0.933 2.133 2.133 2.133 0 0 0 0 0 0v0c0.533 2.8 2.133 11.867 2.133 11.867 0.133 0.933 0.933 1.733 2 1.733h18.667c1.067 0 1.867-0.8 2.133-1.733 0 0 1.6-8.4 2.133-11.867v0c1.2 0 2.133-0.933 2.133-2.133 0 0 0 0 0 0v-2.8c0.133-1.2-0.8-2.267-2-2.267 0 0 0 0 0 0zM25.333 27.2h-18.667l-2.133-11.467h22.933l-2.133 11.467zM29.6 13.6h-27.333v-2.933h27.333v2.933z"></path>
</svg>
