<!-- Generated by IcoMoon.io -->
<svg version="1.1" xmlns="http://www.w3.org/2000/svg" width="32" height="32" viewBox="0 0 32 32">
<title>basket-alt</title>
<path d="M28 10.533c-0.4-2.4-2.4-4.133-4.933-4.133-1.2 0-2.267 0.4-3.2 1.2v-4.533h-7.867v2h-6.4v5.6h-5.6v6h1.6l3.867 12.4h21.2l3.867-12.4h1.467v-6.133h-4zM23.067 8.267c1.467 0 2.667 0.933 2.933 2.267h-6c0.533-1.333 1.733-2.267 3.067-2.267zM18 4.933v5.6h-4.133v-5.6c0 0 4.133 0 4.133 0zM7.467 6.8h4.533v3.733h-4.533c0 0 0-3.733 0-3.733zM25.2 27.067h-18.4l-3.2-10.533h24.933l-3.333 10.533zM30.133 14.667h-28.267v-2.267h28.267v2.267zM8.8 19.067h1.867v5.467h-1.867v-5.467zM12.933 19.067h1.867v5.467h-1.867v-5.467zM17.2 19.067h1.867v5.467h-1.867v-5.467zM21.333 19.067h1.867v5.467h-1.867v-5.467z"></path>
</svg>
