<svg version="1.1" xmlns="http://www.w3.org/2000/svg" width="32" height="32" viewBox="0 0 32 32">
<title>battery</title>
<path d="M24.533 4h-4.667v-3.333c0-0.4-0.267-0.667-0.667-0.667h-6c-0.4 0-0.667 0.267-0.667 0.667v3.333h-4.667c-1.2 0-2 0.933-2 2v24c0 1.067 0.8 2 2 2h16.667c1.067 0 2-0.933 2-2v-24c0-1.067-0.933-2-2-2zM13.867 1.333h4.667v2.667h-4.667v-2.667zM25.2 30c0 0.4-0.267 0.667-0.667 0.667h-16.667c-0.4 0-0.667-0.267-0.667-0.667v-24c0-0.4 0.267-0.667 0.667-0.667h16.667c0.4 0 0.667 0.267 0.667 0.667v24zM20.267 16.933l-2.933-0.8 1.733-5.733c0-0.133 0-0.267-0.133-0.4s-0.267 0-0.4 0.133l-5.867 6.933c-0.133 0.133-0.267 0.267-0.133 0.267s0.133 0.133 0.267 0.267l2.8 0.8-2.4 6.533c0 0.133 0 0.267 0.133 0.4s0.267 0 0.4-0.133l6.667-7.733c0.133-0.133 0.133-0.267 0.133-0.267-0.133-0.133-0.133-0.133-0.267-0.267z"></path>
</svg>
