<svg version="1.1" xmlns="http://www.w3.org/2000/svg" width="32" height="32" viewBox="0 0 32 32">
<title>behance</title>
<path d="M13.2 15.067c0.667-0.4 1.2-0.667 1.467-1.067 0.667-0.667 0.933-1.733 0.933-2.933s-0.267-2.133-0.933-2.933c-1.067-1.333-2.667-2-5.067-2.133h-9.6v19.467h8.933c1.067 0 2-0.133 2.8-0.267s1.6-0.533 2.267-0.933c0.533-0.4 1.067-0.933 1.467-1.6 0.533-0.933 0.933-2 0.933-3.067s-0.267-2.133-0.8-2.8c-0.667-0.8-1.467-1.333-2.4-1.733zM4 9.333h4.267c0.933 0 1.733 0.133 2.4 0.267 0.667 0.267 1.067 0.933 1.067 1.867 0 0.8-0.267 1.333-0.8 1.733-0.533 0.267-1.2 0.533-2.133 0.533h-4.8v-4.4zM10.8 21.733c-0.533 0.267-1.2 0.4-2 0.4h-4.8v-5.2h4.933c0.8 0 1.467 0.133 2 0.267 0.667 0.4 1.067 1.067 1.067 2.133 0 1.2-0.4 2-1.2 2.4zM20.4 6.933h8.533v2.4h-8.533v-2.4zM31.867 16.533c-0.133-1.067-0.533-2.133-1.2-2.933-0.667-0.933-1.467-1.733-2.533-2.133-0.933-0.533-2.133-0.8-3.333-0.8-2.133 0-3.867 0.667-5.2 2s-2 3.2-2 5.733c0 2.667 0.8 4.533 2.267 5.733s3.2 1.733 5.2 1.733c2.4 0 4.133-0.667 5.467-2.133 0.8-0.933 1.333-1.733 1.467-2.667h-3.867c-0.267 0.4-0.533 0.8-0.8 0.933-0.533 0.4-1.2 0.667-2.133 0.667-0.8 0-1.467-0.133-2.133-0.533-0.933-0.533-1.467-1.6-1.467-3.067h10.667c-0.267-0.933-0.267-1.867-0.4-2.533zM21.467 16.8c0.133-0.933 0.533-1.733 1.067-2.267s1.333-0.8 2.267-0.8c0.933 0 1.6 0.267 2.267 0.8s0.933 1.333 1.067 2.267h-6.667z"></path>
</svg>
