<!-- Generated by IcoMoon.io -->
<svg version="1.1" xmlns="http://www.w3.org/2000/svg" width="32" height="32" viewBox="0 0 32 32">
<title>bell</title>
<path d="M28.667 24.533c-0.267-0.267-2.8-2.667-2.8-10.533 0-2.533-1.6-5.6-3.333-7.6-0.933-1.067-2-1.867-3.333-2.533 0 0 0-0.133 0-0.133-0.133-2.267-2-4-4.133-3.867-2 0-3.733 1.733-3.867 3.733 0 0 0 0.133 0 0.133-1.2 0.667-2.4 1.6-3.2 2.667-1.733 2.133-2.667 4.933-2.667 7.6 0 7.867-2.4 10.133-2.8 10.533-0.8 0.4-1.333 1.333-1.067 2.267s1.067 1.6 2.133 1.6h6.533c0 0.667 0.4 1.2 0.8 1.733 2.4 2.533 6.4 2.667 8.933 0.267 0.133-0.133 0.267-0.267 0.267-0.267 0.4-0.533 0.8-1.067 0.933-1.6h6.533c0.933 0 1.867-0.667 2.133-1.6 0.4-1.067-0.133-2-1.067-2.4zM15.333 1.867c0.8 0 1.467 0.533 1.733 1.2-0.533-0.133-1.2 0.267-1.733 0.267s-1.2-0.4-1.733-0.267c0.267-0.667 0.933-1.067 1.733-1.2zM15.333 4.933c4.667 0 8.533 5.067 8.533 9.067 0 2.4 0.4 4.8 1.067 7.067h-18.4c0.667-2.267 1.067-4.667 1.067-7.067-0.133-4.133 3.067-9.067 7.733-9.067zM15.6 29.733c-1.067 0-1.733-0.533-2.533-1.333h5.067c-0.533 0.8-1.467 1.2-2.533 1.333zM3.733 26.133c0 0 1.067-0.667 2.133-2.933h19.733c0.933 2.267 2.133 2.933 2.133 2.933h-24z"></path>
</svg>
