<svg version="1.1" xmlns="http://www.w3.org/2000/svg" width="32" height="32" viewBox="0 0 32 32">
<title>bleach</title>
<path d="M31.6 28l-3.067-2.267-6.267-12.4 9.2-6.8c0.267-0.267 0.4-0.667 0.133-0.933 0-0.267-0.533-0.267-0.8-0.133l-9.067 6.667-5.2-10.4c-0.267-0.4-0.933-0.4-1.2 0l-5.2 10.533-9.067-6.667c-0.267-0.267-0.667-0.267-0.933 0-0.133 0.4-0.133 0.8 0.133 0.933l9.2 6.8-6.267 12.4-2.933 2.267c-0.267 0.267-0.267 0.667-0.133 0.933 0.133 0.133 0.267 0.267 0.533 0.267 0.133 0 0.267 0 0.4-0.133l0.933-0.667-0.533 1.2c-0.133 0.267-0.133 0.4 0 0.667 0.133 0.133 0.4 0.267 0.533 0.267h27.867c0.267 0 0.4-0.133 0.533-0.267s0.133-0.4 0-0.667l-0.533-1.2 0.933 0.667c0.133 0.133 0.267 0.133 0.4 0.133 0.267 0 0.4-0.133 0.533-0.267 0.267-0.267 0.133-0.667-0.133-0.933zM26.267 24.133l-9.2-6.8 4.267-3.067 4.933 9.867zM16 3.6l4.667 9.467-4.667 3.467-4.8-3.467 4.8-9.467zM10.667 14.267l4.267 3.067-9.2 6.8 4.933-9.867zM3.067 29.2l1.333-2.533 11.6-8.533 11.6 8.533 1.333 2.533h-25.867z"></path>
</svg>
