<!-- Generated by IcoMoon.io -->
<svg version="1.1" xmlns="http://www.w3.org/2000/svg" width="32" height="32" viewBox="0 0 32 32">
<title>bluetooth-circle</title>
<path d="M16 0c-8.8 0-16 7.2-16 16s7.2 16 16 16c8.8 0 16-7.2 16-16s-7.2-16-16-16zM16 30.133c-7.733 0-14.133-6.4-14.133-14.133s6.4-14.133 14.133-14.133 14.133 6.4 14.133 14.133-6.4 14.133-14.133 14.133zM22.267 9.733l-5.6-5.6c-0.267-0.267-0.667-0.4-1.067-0.267s-0.533 0.533-0.533 0.8v8.4l-4-5.067c-0.267-0.4-0.933-0.533-1.333-0.133s-0.4 0.8-0.133 1.2l5.2 6.933-5.2 6.933c-0.267 0.4-0.267 1.067 0.267 1.333 0.4 0.267 1.067 0.267 1.333-0.133l4-5.2v8.4c0 0.4 0.267 0.667 0.533 0.8 0.4 0.133 0.8 0 1.067-0.267l5.6-5.6c0.4-0.4 0.4-0.933 0-1.333l-5.067-4.933 4.933-4.933c0.4-0.4 0.4-0.933 0-1.333zM16.933 24.933v-6.667l3.333 3.333-3.333 3.333zM16.933 13.733v-6.667l3.333 3.333-3.333 3.333z"></path>
</svg>
