<svg version="1.1" xmlns="http://www.w3.org/2000/svg" width="32" height="32" viewBox="0 0 32 32">
<title>bluetooth</title>
<path d="M25.467 22.4l-5.867-6 6-6.133c0.4-0.533 0.4-1.2 0-1.733l-7.467-8.133c-0.4-0.4-0.8-0.533-1.333-0.267-0.4 0-0.667 0.4-0.533 0.667 0 0 0 0 0 0v12.133l-8-7.467c-0.533-0.4-1.2-0.4-1.733 0 0 0 0 0 0 0-0.533 0.533-0.533 1.2 0 1.733l9.467 9.2v0.8l-9.333 8.533c-0.533 0.533-0.533 1.2 0 1.733 0.4 0.533 1.2 0.533 1.733 0 0 0 0 0 0 0l7.6-6.933v9.733c0 0.533 0.133 1.333 0.533 1.467 0.133 0 0.267 0.133 0.533 0.133s0.533-0.133 0.8-0.267l7.467-7.333c0.267-0.267 0.4-0.533 0.4-0.933 0.133-0.4 0-0.667-0.267-0.933zM18.533 5.067l4.533 4.4-4.533 4.533v-8.933zM18.533 27.733v-8.933l4.533 4.4-4.533 4.533z"></path>
</svg>
