<!-- Generated by IcoMoon.io -->
<svg version="1.1" xmlns="http://www.w3.org/2000/svg" width="32" height="32" viewBox="0 0 32 32">
<title>book</title>
<path d="M8.4 0.133l-4.933 5.067v23.067c0 2 1.6 3.6 3.6 3.6h15.067c0.8-0.133 1.467-0.4 2.133-0.667 0 0 5.067-3.6 5.067-5.733v-25.333h-20.933zM27.2 2.267v22.267c0 0.933-1.467 2.133-1.467 2.133v-23.6h-17.067c0.267-0.4 0.8-0.667 1.333-0.667h17.2zM15.6 5.2h2.933v6.4l-1.467-1.333-1.467 1.467v-6.533zM7.067 29.733c-0.8 0-1.467-0.667-1.467-1.467v-21.6c0-0.8 0.667-1.467 1.467-1.467h6.533v10.8l3.6-2.933 3.6 2.933v-10.8h2.933v23.067c0 0.8-0.667 1.467-1.467 1.467h-15.2z"></path>
</svg>
