<svg version="1.1" xmlns="http://www.w3.org/2000/svg" width="32" height="32" viewBox="0 0 32 32">
<title>bookmark</title>
<path d="M26.533 2.4v27.067l-10.533-10.533-10.533 10.533v-27.067h21.067zM26.533 0.133h-21.067c-1.2 0-2.267 1.067-2.267 2.267v27.067c0 0.933 0.533 1.733 1.333 2.133 0.267 0.133 0.533 0.133 0.8 0.133 0.533 0 1.2-0.267 1.6-0.667l8.933-9.067 8.933 9.067c0.4 0.4 0.933 0.667 1.6 0.667 0.267 0 0.533 0 0.8-0.133 0.8-0.4 1.333-1.2 1.333-2.133v-27.067c0.267-1.2-0.8-2.267-2-2.267v0z"></path>
</svg>
