<!-- Generated by IcoMoon.io -->
<svg version="1.1" xmlns="http://www.w3.org/2000/svg" width="32" height="32" viewBox="0 0 32 32">
<title>bread</title>
<path d="M27.6 6c-0.4-1.6-1.733-3.067-4.133-4.133-2.533-1.2-5.867-1.733-9.333-1.733s-6.8 0.667-9.333 1.733c-2.8 1.2-4.267 2.933-4.267 4.8 0 1.6 0.933 2.933 2.8 4.133v17.2h3.867v4h21.467v-17.067c1.867-1.2 2.8-2.667 2.8-4.133 0-1.867-1.467-3.6-3.867-4.8zM5.2 26.133v-16.267l-0.4-0.4c0 0-0.133 0-0.133-0.133-1.467-0.667-2.267-1.733-2.267-2.667 0-1.2 1.2-2.267 3.2-3.2 2.267-1.067 5.333-1.6 8.533-1.6s6.267 0.533 8.533 1.6c0.933 0.4 1.733 0.933 2.267 1.467s0.933 1.2 0.933 1.733c0 0.133 0 0.267 0 0.533-0.267 0.8-1.067 1.6-2.267 2.4l-0.533 0.267v16.267h-17.867zM27.2 13.6l-0.533 0.267v16.267h-17.6v-2.133h15.733v-17.067c1.333-0.8 2.133-1.867 2.533-2.933 1.333 0.8 2.133 1.733 2.133 2.667 0.133 1.067-0.667 2-2.267 2.933zM9.067 21.733h-1.067v1.867h1.867v-1.867zM14.133 18.533h1.867v1.867h-1.867v-1.867zM18.533 21.733h1.867v1.867h-1.867v-1.867zM18.533 14.8h1.867v1.867h-1.867v-1.867zM9.6 15.467h1.867v1.867h-1.867v-1.867zM14.4 10.4h1.867v1.867h-1.867v-1.867zM6.8 9.467h1.867v1.867h-1.867v-1.867zM19.467 6.267h1.867v1.867h-1.867v-1.867zM13.867 4v1.867h1.867v-1.867zM8.4 4.933v1.867h1.867v-1.867z"></path>
</svg>
