<!-- Generated by IcoMoon.io -->
<svg version="1.1" xmlns="http://www.w3.org/2000/svg" width="32" height="32" viewBox="0 0 32 32">
<title>briefcase</title>
<path d="M29.733 6.533h-6.8v-2.4c0-1.2-1.067-2.267-2.267-2.267h-9.2c-1.2 0-2.267 1.067-2.267 2.267v2.267h-6.933c-1.2 0.133-2.267 1.067-2.267 2.4v0 19.067c0 1.2 1.067 2.267 2.267 2.267v0h27.467c1.2 0 2.267-1.067 2.267-2.267v0-19.067c0-1.333-1.067-2.267-2.267-2.267v0zM11.467 4.133h9.2v2.267h-9.2v-2.267zM29.733 8.8v5.733c-0.133 0-0.4 0-0.533 0.133-3.067 1.467-6.267 2.533-9.6 3.2-0.4-0.933-1.2-1.467-2.133-1.467h-3.067c-0.933 0-1.867 0.667-2.133 1.6-3.333-0.667-6.533-1.867-9.6-3.333-0.133 0-0.267-0.133-0.4-0.133v-5.733h27.467zM17.467 18.667v2.267h-3.067v-2.267h3.067zM2.267 27.867v-10.8c3.2 1.467 6.533 2.533 9.867 3.2v0.667c0 1.2 1.067 2.267 2.267 2.267h3.067c1.2 0 2.267-1.067 2.267-2.267v-0.8c3.467-0.667 6.8-1.733 9.867-3.333v11.067h-27.333z"></path>
</svg>
