<svg version="1.1" xmlns="http://www.w3.org/2000/svg" width="32" height="32" viewBox="0 0 32 32">
<title>broccoli</title>
<path d="M30.8 12c-0.533-0.8-1.333-1.333-2.133-1.733 0-0.267 0.133-0.533 0.133-0.933 0-3.2-2.533-5.733-5.733-5.733-0.533 0-1.067 0.133-1.6 0.267-0.267-0.933-0.933-1.733-1.6-2.4-1.067-0.933-2.533-1.467-3.867-1.467s-2.8 0.533-3.733 1.467c-0.8 0.667-1.333 1.467-1.6 2.4-0.667-0.133-1.2-0.267-1.733-0.267-3.067 0-5.733 2.667-5.733 5.733 0 0.267 0 0.533 0.133 0.933-0.933 0.4-1.6 0.933-2.133 1.733-0.8 1.067-1.2 2.267-1.2 3.467 0 3.2 2.533 5.733 5.733 5.733 0.8 0 1.467-0.133 2.267-0.4l2 3.2c0.8 1.2 1.2 2.667 1.2 4.133v3.867h9.733v-3.867c0-1.467 0.4-2.933 1.2-4.133l2-3.2c0.667 0.267 1.467 0.4 2.267 0.4 3.2 0 5.733-2.533 5.733-5.733-0.133-1.2-0.533-2.4-1.333-3.467zM20.4 23.067c-0.933 1.6-1.467 3.333-1.467 5.067v2h-5.867v-2c0-1.867-0.533-3.6-1.467-5.067l-2-3.2c0.533-0.533 0.933-1.067 1.333-1.6 0.267 0.267 0.667 0.4 0.933 0.533l4.133 8 4.133-8c0.4-0.133 0.667-0.4 0.933-0.533 0.267 0.667 0.8 1.2 1.333 1.6l-2 3.2zM14.4 19.6c0.533 0.133 1.067 0.133 1.6 0.133s1.067 0 1.6-0.133l-1.6 3.067-1.6-3.067zM26.267 19.333c-1.867 0-3.333-1.2-3.867-3.067l-0.4-1.6-1.2 1.333c-1.067 1.2-2.933 1.867-4.8 1.867s-3.733-0.667-4.8-1.867l-1.2-1.333-0.4 1.733c-0.4 1.733-2 3.067-3.867 3.067-2.133 0-3.867-1.733-3.867-3.867 0-1.733 1.2-3.2 2.8-3.733l0.933-0.267-0.267-1.067c-0.133-0.4-0.267-0.8-0.267-1.2 0-2.133 1.733-3.867 3.867-3.867 0.667 0 1.2 0.133 1.733 0.4l1.333 0.667 0.133-1.333c0.267-1.867 2-3.333 3.867-3.333s3.6 1.467 3.867 3.333l0.133 1.333 1.2-0.667c0.533-0.267 1.2-0.4 1.733-0.4 2.133 0 3.867 1.733 3.867 3.867 0 0.4 0 0.8-0.133 1.2l-0.267 0.933 0.933 0.267c1.6 0.533 2.8 2 2.8 3.733 0 2.133-1.733 3.867-3.867 3.867zM22 8.667c-1.333-1.067-3.067-0.933-3.2-0.933l0.267 1.867c0 0 1.067-0.133 1.867 0.533 0.4 0.4 0.667 0.8 0.8 1.6l1.867-0.133c-0.267-1.333-0.8-2.267-1.6-2.933zM13.2 7.733c-0.133 0-1.867-0.133-3.2 0.8-0.8 0.8-1.333 1.733-1.467 2.933l1.867 0.267c0.133-0.933 0.533-1.6 1.333-1.867 0.667-0.267 1.2-0.133 1.2-0.133v0l0.267-2z"></path>
</svg>
