<svg version="1.1" xmlns="http://www.w3.org/2000/svg" width="32" height="32" viewBox="0 0 32 32">
<title>calculator</title>
<path d="M27.067 0h-22.133c-1.2 0-2.133 0.933-2.133 2.133v27.733c0 1.2 0.933 2.133 2.133 2.133h22.267c1.2 0 2.133-0.933 2.133-2.133v-27.733c-0.133-1.2-1.067-2.133-2.267-2.133zM27.067 29.867h-22.133v-27.733h22.267v27.733zM8.4 9.067h15.333c1.2 0 2.133-0.933 2.133-2.133v-1.333c0-1.2-0.933-2.133-2.133-2.133h-15.333c-1.2 0-2.133 0.933-2.133 2.133v1.333c0 1.2 0.933 2.133 2.133 2.133zM8.4 5.6h15.333v1.333h-15.333v-1.333zM8.4 16h1.333c1.2 0 2.133-0.933 2.133-2.133v-1.333c0-1.2-0.933-2.133-2.133-2.133h-1.333c-1.2 0-2.133 0.933-2.133 2.133v1.333c0 1.2 0.933 2.133 2.133 2.133zM8.4 12.533h1.333v1.333h-1.333v-1.333zM16.667 10.4h-1.333c-1.2 0-2.133 0.933-2.133 2.133v1.333c0 1.2 0.933 2.133 2.133 2.133h1.333c1.2 0 2.133-0.933 2.133-2.133v-1.333c0-1.2-0.933-2.133-2.133-2.133zM16.667 13.867h-1.333v-1.333h1.333v1.333zM23.6 10.4h-1.333c-1.2 0-2.133 0.933-2.133 2.133v1.333c0 1.2 0.933 2.133 2.133 2.133h1.333c1.2 0 2.133-0.933 2.133-2.133v-1.333c0-1.2-0.933-2.133-2.133-2.133zM23.6 13.867h-1.333v-1.333h1.333v1.333zM8.4 22.267h1.333c1.2 0 2.133-0.933 2.133-2.133v-1.333c0-1.2-0.933-2.133-2.133-2.133h-1.333c-1.2 0-2.133 0.933-2.133 2.133v1.333c0 1.2 0.933 2.133 2.133 2.133zM8.4 18.8h1.333v1.333h-1.333v-1.333zM16.667 16.667h-1.333c-1.2 0-2.133 0.933-2.133 2.133v1.333c0 1.2 0.933 2.133 2.133 2.133h1.333c1.2 0 2.133-0.933 2.133-2.133v-1.333c0-1.2-0.933-2.133-2.133-2.133zM16.667 20.133h-1.333v-1.333h1.333v1.333zM23.6 16.667h-1.333c-1.2 0-2.133 0.933-2.133 2.133v1.333c0 1.2 0.933 2.133 2.133 2.133h1.333c1.2 0 2.133-0.933 2.133-2.133v-1.333c0-1.2-0.933-2.133-2.133-2.133zM23.6 20.133h-1.333v-1.333h1.333v1.333zM8.4 28.533h1.333c1.2 0 2.133-0.933 2.133-2.133v-1.333c0-1.2-0.933-2.133-2.133-2.133h-1.333c-1.2 0-2.133 0.933-2.133 2.133v1.333c0 1.2 0.933 2.133 2.133 2.133zM8.4 25.067h1.333v1.333h-1.333v-1.333zM16.667 22.933h-1.333c-1.2 0-2.133 0.933-2.133 2.133v1.333c0 1.2 0.933 2.133 2.133 2.133h1.333c1.2 0 2.133-0.933 2.133-2.133v-1.333c0-1.2-0.933-2.133-2.133-2.133zM16.667 26.4h-1.333v-1.333h1.333v1.333zM23.6 22.933h-1.333c-1.2 0-2.133 0.933-2.133 2.133v1.333c0 1.2 0.933 2.133 2.133 2.133h1.333c1.2 0 2.133-0.933 2.133-2.133v-1.333c0-1.2-0.933-2.133-2.133-2.133zM23.6 26.4h-1.333v-1.333h1.333v1.333z"></path>
</svg>
