<svg version="1.1" xmlns="http://www.w3.org/2000/svg" width="32" height="32" viewBox="0 0 32 32">
<title>camera</title>
<path d="M16 10.133c-4 0-7.2 3.2-7.2 7.2s3.2 7.333 7.2 7.333 7.2-3.2 7.2-7.2c0.133-4-3.2-7.2-7.2-7.333zM16 22.533c-2.8 0-5.067-2.267-5.067-5.067s2.267-5.067 5.067-5.067 5.067 2.267 5.067 5.067-2.267 5.067-5.067 5.067v0zM29.867 8h-5.333l-2.267-3.333c-0.4-0.667-1.067-0.933-1.867-0.933h-8.667c-0.8-0.133-1.467 0.267-1.867 0.933l-2.267 3.333h-0.267v-0.667c0-1.2-0.933-2.133-2.133-2.133h-0.8c-1.2 0-2.133 0.933-2.133 2.133v0.667c-1.2 0-2.133 0.933-2.133 2.133v16c0 1.2 0.933 2.133 2.133 2.133h27.6c1.2 0 2.133-0.933 2.133-2.133v-16c0-1.2-0.933-2.133-2.133-2.133zM4.4 7.333h0.667v0.667h-0.667v-0.667zM29.867 26.133h-27.6v-16h6.533l2.933-4.4h8.667l2.933 4.4h6.533v16zM25.867 14.533c0.667 0 1.067-0.533 1.067-1.067s-0.533-1.067-1.067-1.067c-0.667 0-1.067 0.533-1.067 1.067s0.4 1.067 1.067 1.067z"></path>
</svg>
