<!-- Generated by IcoMoon.io -->
<svg version="1.1" xmlns="http://www.w3.org/2000/svg" width="32" height="32" viewBox="0 0 32 32">
<title>canned-food</title>
<path d="M21.2 13.2c-0.933 0-1.867 0.533-2.267 1.2-0.267-0.267-0.667-0.533-0.933-0.667-1.6-0.933-3.2-1.2-4.8-0.667-2.133 0.667-3.333 2.4-3.333 2.4l-0.533 0.533 0.4 0.533c0.133 0.133 1.867 2.533 4.667 2.667 0.133 0 0.267 0 0.267 0 1.333 0 2.8-0.533 4.133-1.6 0.533 0.8 1.333 1.2 2.267 1.2h2.267v-5.6h-2.133zM13.2 16.933c-0.533-0.267-1.067-0.667-1.333-0.933 0.267-0.267 0.8-0.667 1.333-0.933 0.133 0.4 0.267 1.067 0 1.867zM15.067 17.333c0 0 0 0 0 0 0.267-1.067 0.133-2 0-2.667 0 0 0 0 0 0 0.667 0 1.333 0.267 2 0.667 0.267 0.133 0.533 0.4 0.933 0.667-1.067 0.8-2 1.333-2.933 1.333zM21.6 16.933h-0.4c-0.4 0-0.8-0.267-0.933-0.8 0 0 0-0.133 0-0.267s0-0.133 0-0.267c0.133-0.4 0.533-0.8 0.933-0.8h0.4v2.133zM27.2 6.133v-6.133h-22.4v6.133h1.2v19.867h-1.2v6h22.4v-6.133h-1.2v-19.733h1.2zM25.333 30.133h-18.667v-2.267h18.667v2.267zM24 11.067v9.733h-16v-9.733h16zM8 9.2v-3.067h16v3.2h-16zM24 22.8v3.2h-16v-3.2h16zM25.333 4.133h-18.667v-2.267h18.667v2.267z"></path>
</svg>
