<!-- Generated by IcoMoon.io -->
<svg version="1.1" xmlns="http://www.w3.org/2000/svg" width="32" height="32" viewBox="0 0 32 32">
<title>carrot</title>
<path d="M31.467 7.6c-0.4-0.667-1.067-1.333-1.867-1.6 0-0.933-0.4-2-1.067-2.667s-1.733-1.067-2.667-1.067c-0.267-0.8-0.8-1.467-1.6-1.867-1.467-0.8-3.2-0.667-4.4 0.533-0.4 0.4-0.667 0.8-0.8 1.333l-2 5.067c-0.4-0.133-0.8-0.133-1.2 0-1.2 0.133-2.267 0.8-2.933 1.733l-12.533 19.2c-0.267 0.4-0.4 0.8-0.4 1.333 0 0.667 0.267 1.2 0.667 1.733 0.533 0.4 1.067 0.667 1.733 0.667 0.4 0 0.933-0.133 1.333-0.4l19.067-12.667c1.067-0.667 1.733-1.733 1.733-2.933 0-0.4 0-0.8 0-1.2l5.067-1.867c0.533-0.133 0.933-0.4 1.333-0.8 1.2-1.333 1.467-3.067 0.533-4.533zM20.933 2.933c0.133-0.267 0.267-0.4 0.4-0.667 0.533-0.533 1.467-0.667 2.133-0.267 0.267 0.133 0.533 0.533 0.667 0.8-0.4 0.267-0.8 0.533-1.067 0.933l-3.467 4.933-0.267-0.267c-0.133-0.133-0.267-0.267-0.4-0.4l2-5.067zM22.667 15.733c0 0.667-0.4 1.2-0.933 1.6l-3.467 2.4-2.267-2.267-1.333 1.333 1.867 1.867-7.067 4.8-1.333-1.333-1.333 1.333 1.067 1.067-5.333 3.467c-0.133 0-0.133 0.133-0.267 0.133s-0.267 0-0.4-0.133c-0.133-0.133-0.133-0.4 0-0.667l6.4-9.733 2 2 1.333-1.333-2.267-2.267 3.6-5.467 2 2 1.333-1.333-2.267-2.267 0.667-0.667c0.4-0.533 0.933-0.933 1.6-0.933 0.133 0 0.133 0 0.267 0 0.533 0 1.067 0.267 1.6 0.667l4 4c0.4 0.4 0.667 1.067 0.533 1.733zM21.867 11.067l-0.8-0.8 3.6-5.2c0.267-0.4 0.8-0.667 1.2-0.667 0 0 0.133 0 0.133 0 0.4 0 0.933 0.133 1.2 0.533 0.267 0.267 0.533 0.8 0.533 1.2 0 0 0 0.133 0 0.133 0 0.533-0.267 0.933-0.667 1.2l-5.2 3.6zM29.6 10.667c-0.133 0.133-0.4 0.267-0.667 0.4l-5.2 2c-0.133-0.133-0.267-0.267-0.4-0.4l-0.267-0.267 4.933-3.467c0.4-0.267 0.667-0.667 0.933-1.067 0.4 0.133 0.667 0.4 0.8 0.667 0.533 0.667 0.4 1.6-0.133 2.133z"></path>
</svg>
