<!-- Generated by IcoMoon.io -->
<svg version="1.1" xmlns="http://www.w3.org/2000/svg" width="32" height="32" viewBox="0 0 32 32">
<title>cart</title>
<path d="M11.6 19.867h14c0.8 0 1.6-0.533 1.867-1.2l4.133-9.733c0.267-0.667 0.267-1.333-0.133-2-0.4-0.533-1.067-0.933-1.733-0.933h-23.067c-0.4 0-0.8 0.133-1.067 0.4l-1.467-3.333c-0.133-0.4-0.533-0.667-0.933-0.667h-2.133c-0.533 0-1.067 0.4-1.067 1.067s0.4 1.067 1.067 1.067h1.467l6.4 14.533c-0.533 0.667-0.8 1.333-0.8 2.133 1.333 1.333 1.333 3.467 0 4.8 0 1.867 1.6 3.467 3.467 3.467s3.467-1.6 3.467-3.467v0c0-0.533-0.133-0.933-0.267-1.333h7.6c-0.133 0.4-0.267 0.933-0.267 1.333 0 1.867 1.6 3.467 3.6 3.467 1.867 0 3.467-1.6 3.467-3.467s-1.467-3.467-3.467-3.467c0 0 0 0 0 0s0 0 0 0v0h-14c0 0 0 0 0 0s-0.133 0-0.133 0c-0.8 0-1.333-0.667-1.333-1.333 0-0.8 0.533-1.333 1.333-1.333zM29.867 8l-4.133 9.733h-14.667l-4.4-9.733h23.2zM13.067 26c0 0.8-0.667 1.467-1.333 1.467-0.8 0-1.467-0.667-1.467-1.333 0-0.8 0.667-1.467 1.333-1.467 0 0 0 0 0 0 0.8 0 1.467 0.667 1.467 1.333v0zM27.067 26c0 0.8-0.667 1.467-1.333 1.467-0.8 0-1.467-0.667-1.467-1.333 0-0.8 0.667-1.467 1.333-1.467 0 0 0 0 0 0 0.8 0 1.467 0.667 1.467 1.333z"></path>
</svg>
