<svg version="1.1" xmlns="http://www.w3.org/2000/svg" width="32" height="32" viewBox="0 0 32 32">
<title>cashier</title>
<path d="M30.533 24.667l-1.6-16.8h-5.333v-1.6h4.667v-6.267h-14.667v6.267h4.267v1.6h-14.667l-1.6 16.8h-1.6v7.333h32v-7.333h-1.467zM18 4.4h-2.4v-2.533h10.8v2.533h-8.4zM21.733 6.267v1.467h-1.867v-1.467h1.867zM4.933 9.733h22.267l1.467 14.933h-25.2l1.467-14.933zM30.133 30.133h-28.267v-3.6h28.267v3.6zM14.267 11.333v5.733h11.333v-5.733h-11.333zM23.733 15.067h-7.6v-1.867h7.6v1.867zM15.333 18.4h1.867v1.867h-1.867v-1.867zM18.933 18.4h1.867v1.867h-1.867v-1.867zM22.667 18.4h1.867v1.867h-1.867v-1.867zM15.333 21.333h1.867v1.867h-1.867v-1.867zM18.933 21.333h1.867v1.867h-1.867v-1.867zM22.667 21.333h1.867v1.867h-1.867v-1.867zM12.533 18.133v-6.8h-6.133v6.8h-0.667v1.867h7.2v-1.867h-0.4zM10.667 18.133h-2.4v-4.933h2.4v4.933z"></path>
</svg>
