<svg version="1.1" xmlns="http://www.w3.org/2000/svg" width="32" height="32" viewBox="0 0 32 32">
<title>chat</title>
<path d="M29.733 10.533h-6.533v-6.533c0-1.2-0.933-2.133-2.133-2.133h-18.8c-1.2 0-2.133 0.933-2.133 2.133v11.6c0 1.2 0.933 2.133 2.133 2.133h0.4l-0.267 0.667c-0.4 1.067 0.133 2.4 1.2 2.8 0.267 0.133 0.533 0.133 0.8 0.133 0.4 0 0.667-0.133 1.067-0.267l3.333-1.867v4.933c0 1.2 0.933 2.133 2.133 2.133v0h9.6l6 3.333c0.267 0.133 0.667 0.267 1.067 0.267 1.2 0 2.133-0.933 2.133-2.133 0-0.267 0-0.533-0.133-0.8l-0.267-0.4h0.4c1.2 0 2.133-0.933 2.133-2.133v0-11.6c0-1.2-0.933-2.267-2.133-2.267zM8.8 12.8v4.133l-4.4 2.4 1.467-3.6h-3.6v-11.733h18.8v6.533h-10.133c-1.2 0-2.133 1.067-2.133 2.267zM29.733 24.267h-3.6l1.467 3.6-6.533-3.6h-10.133v-11.467h18.8v11.467zM13.867 17.067h13.067c0.533 0 1.067-0.533 1.067-1.067s-0.533-1.067-1.067-1.067h-13.067c-0.533 0-1.067 0.533-1.067 1.067s0.4 1.067 1.067 1.067zM13.867 21.467h13.067c0.533 0 1.067-0.533 1.067-1.067s-0.533-1.067-1.067-1.067h-13.067c-0.533 0-1.067 0.533-1.067 1.067s0.4 1.067 1.067 1.067z"></path>
</svg>
