<svg version="1.1" xmlns="http://www.w3.org/2000/svg" width="32" height="32" viewBox="0 0 32 32">
<title>check-circle</title>
<path d="M23.067 10.933c0.533 0.533 0.533 1.333 0 1.733l-8.4 8.4c-0.533 0.533-1.333 0.533-1.733 0l-4-4c-0.533-0.533-0.533-1.333 0-1.733 0.533-0.533 1.333-0.533 1.733 0l3.067 3.067 7.6-7.467c0.4-0.533 1.2-0.533 1.733 0zM32 16c0 8.8-7.2 16-16 16s-16-7.2-16-16c0-8.8 7.2-16 16-16s16 7.2 16 16zM29.467 16c0-7.467-6-13.467-13.467-13.467s-13.467 6-13.467 13.467c0 7.467 6 13.467 13.467 13.467s13.467-6 13.467-13.467z"></path>
</svg>
