<svg version="1.1" xmlns="http://www.w3.org/2000/svg" width="32" height="32" viewBox="0 0 32 32">
<title>cheese</title>
<path d="M11.867 16.4c-1.867 0-3.467 1.6-3.467 3.467s1.6 3.467 3.467 3.467c1.867 0 3.467-1.6 3.467-3.467s-1.6-3.467-3.467-3.467zM11.867 21.467c-0.8 0-1.6-0.667-1.6-1.6 0-0.8 0.667-1.6 1.6-1.6s1.6 0.667 1.6 1.6c-0.133 0.933-0.8 1.6-1.6 1.6zM32 13.6c-0.4-3.6-2.133-6.4-5.2-8.4-2.267-1.467-4.4-1.733-4.4-1.867h-0.267l-22.133 9.867v5.733h0.933c0.8 0 1.6 0.667 1.6 1.6 0 0.8-0.667 1.6-1.6 1.6h-0.933v6.667h32v-15.2zM22.267 5.467c0.533 0.133 2 0.533 3.467 1.467 2.267 1.467 3.6 3.467 4.133 5.867h-24.4l16.8-7.333zM26.533 14.933c0 1.467-1.2 2.667-2.667 2.667s-2.667-1.2-2.667-2.667c0-0.133 0-0.133 0-0.267h5.467c-0.133 0.133-0.133 0.133-0.133 0.267zM18.933 26.667c0.133-1.067 0.933-1.867 2-1.867s1.867 0.8 2 1.867h-4zM30.133 26.667h-5.333c-0.133-2-1.867-3.733-3.867-3.733s-3.733 1.6-3.867 3.733h-15.2v-2.933c1.467-0.4 2.533-1.733 2.533-3.333s-1.067-2.933-2.533-3.333v-2.4h17.333c0 0.133 0 0.133 0 0.267 0 2.533 2 4.667 4.667 4.667 2.533 0 4.667-2 4.667-4.667 0-0.133 0-0.133 0-0.267h1.6v12z"></path>
</svg>
