<svg version="1.1" xmlns="http://www.w3.org/2000/svg" width="32" height="32" viewBox="0 0 32 32">
<title>chili</title>
<path d="M32 13.067c-0.133-1.467-0.533-2.667-1.467-3.733 0.133-0.133 0.4-0.4 0.533-0.8 0.667-1.067 0.933-2.533 0.8-4.133l-1.867 0.133c0.133 2.133-0.533 3.2-0.8 3.6-2-1.2-4.533-1.067-6.8 0.533-1.867 1.2-3.2 2.933-4.4 4.533-0.533 0.667-1.067 1.333-1.6 2-2.133 2.4-4.8 3.467-8.4 3.6-0.4 0-0.933 0-1.6-0.133-1.867-0.267-4.267-0.533-5.6 0.933-1.2 1.333-0.533 3.2 0.667 4.533 1.867 2 4.4 2.667 6.8 3.2 1.867 0.4 3.733 0.533 5.6 0.533 0.933 0 1.733 0 2.533-0.133 4-0.4 7.867-2 10.667-4.267 2.267-2.267 5.067-6.267 4.933-10.4zM25.733 21.733c-2.533 2.133-5.867 3.467-9.6 3.867-2.4 0.267-4.933 0.133-7.6-0.4-2.267-0.4-4.4-0.933-5.867-2.533-0.533-0.533-1.067-1.6-0.667-1.867 0.4-0.4 1.067-0.533 1.867-0.533 0.667 0 1.467 0.133 2 0.133 0.667 0.133 1.333 0.133 1.867 0.133 4.133-0.133 7.333-1.467 9.733-4.133 0.533-0.667 1.2-1.333 1.733-2 0.667-0.8 1.2-1.6 1.867-2.267l2.8 0.533-0.133 3.867 4-1.067 1.2 2.667c-0.933 1.2-2 2.667-3.2 3.6zM29.867 15.467l-1.2-2.533-3.067 0.8 0.133-2.933-2.933-0.533c0.133-0.133 0.133-0.133 0.267-0.133 0.667-0.4 3.2-1.867 5.333-0.133 0.933 0.8 1.6 1.867 1.6 3.2 0.133 0.667 0 1.467-0.133 2.267z"></path>
</svg>
