<!-- Generated by IcoMoon.io -->
<svg version="1.1" xmlns="http://www.w3.org/2000/svg" width="32" height="32" viewBox="0 0 32 32">
<title>clip</title>
<path d="M10.533 14.4h13.067c0.667 0 1.2-0.533 1.2-1.2s-0.533-1.2-1.2-1.2h-12.8c-0.133 0-0.267 0-0.4 0.133-0.4 0.133-4 1.2-4 3.867 0 2.267 2.533 3.6 4 4 0.133 0 0.133 0 0.267 0h11.733c0.133 0 4.667 0.133 7.333-2.267 1.333-1.2 2.133-2.933 2.267-4.8 0-1.867-1.067-3.067-2.267-4.267-2.4-2.267-6.4-2.267-6.4-2.267h-13.733c-3.467 0-9.6 2.4-9.6 8.933 0 3.333 0.533 5.733 2.533 7.467s4.533 2.8 7.067 2.8h16c0.667 0 1.2-0.533 1.2-1.2s-0.533-1.2-1.2-1.2c0 0 0 0 0 0h-16c-2 0-4-0.8-5.467-2.133s-1.733-3.2-1.733-5.867c0-5.867 6.933-6.4 7.2-6.4h13.733c0 0 3.2 0 4.8 1.6 0.8 0.667 1.467 1.333 1.467 2.533-0.133 1.2-0.667 2.267-1.467 3.067-1.867 1.733-5.467 1.733-5.6 1.6h-12c-0.533-0.133-1.6-0.8-1.6-1.6-0.133-0.667 0.8-1.333 1.6-1.6z"></path>
</svg>
