<!-- Generated by IcoMoon.io -->
<svg version="1.1" xmlns="http://www.w3.org/2000/svg" width="32" height="32" viewBox="0 0 32 32">
<title>close</title>
<path d="M18.4 16l12.933-13.2c0.533-0.667 0.533-1.6 0-2.133-0.667-0.667-1.6-0.667-2.133 0 0 0 0 0 0 0l-12.933 13.2-13.467-13.333c-0.533-0.533-1.6-0.533-2.133 0.133 0 0 0 0 0 0-0.533 0.667-0.533 1.6 0 2.133l13.467 13.2-13.467 13.2c-0.533 0.533-0.667 1.6 0 2.133 0.533 0.667 1.6 0.667 2.133 0 0 0 0 0 0 0l13.467-13.2 12.933 13.2c0.267 0.267 0.667 0.4 1.067 0.4s0.8-0.133 1.067-0.4c0.667-0.533 0.667-1.6 0-2.133l-12.933-13.2z"></path>
</svg>
