<!-- Generated by IcoMoon.io -->
<svg version="1.1" xmlns="http://www.w3.org/2000/svg" width="32" height="32" viewBox="0 0 32 32">
<title>close-circle</title>
<path d="M16 0c-8.8 0-16 7.2-16 16s7.2 16 16 16 16-7.2 16-16c0-8.8-7.2-16-16-16zM16 29.733c-7.6 0-13.733-6.133-13.733-13.733s6.133-13.733 13.733-13.733 13.867 6.133 13.867 13.733-6.267 13.733-13.867 13.733v0zM21.867 10.133c-0.4-0.4-1.067-0.4-1.6 0l-4.133 4.267-4.4-4.267c-0.4-0.4-1.067-0.4-1.6 0-0.4 0.4-0.4 1.067 0 1.6 0 0 0 0 0 0l4.533 4.267-4.4 4.267c-0.4 0.4-0.4 1.067 0 1.6 0.267 0.267 0.533 0.4 0.8 0.4s0.533-0.133 0.8-0.267l4.533-4.267 4.133 4.267c0.4 0.4 1.067 0.4 1.6 0 0.4-0.4 0.4-1.067 0-1.6l-4.4-4.4 4.133-4.267c0.4-0.533 0.4-1.2 0-1.6z"></path>
</svg>
