<svg version="1.1" xmlns="http://www.w3.org/2000/svg" width="32" height="32" viewBox="0 0 32 32">
<title>cloud-download</title>
<path d="M25.067 8.4c-0.8-3.6-3.333-8.133-9.067-8.133-4.533 0-6.667 2-7.733 3.6-0.4 0.667-0.667 1.333-0.933 2.133-2.8 0.8-6.267 3.067-6.267 7.867-0.133 3.467 2 6.667 5.333 7.867 1.467 0.667 3.2 0.933 4.8 1.067h0.667v-2h-0.667c0 0-8.133 0-8.133-6.8 0-5.467 6-6.133 6-6.133s0-5.467 6.667-5.467 7.467 8.133 7.467 8.133c0.133 0 0.4 0 0.533 0 1.333 0 4.8 0.4 4.8 4.8 0 5.467-8.133 5.467-8.133 5.467h-1.333v1.867h1.333c3.467 0 10.133-1.6 10.133-7.467 0.133-4.4-2.667-6.4-5.467-6.8zM11.867 25.733c-0.267-0.267-0.4-0.4-0.667-0.4s-0.533 0.133-0.667 0.267c-0.4 0.4-0.4 1.067 0 1.467l4 4.4c0.667 0.4 1.333 0.4 2 0l4.4-4.533c0.4-0.4 0.4-1.067 0-1.467s-1.067-0.4-1.467 0l-2.667 2.667v-14.133c0-0.533-0.4-1.067-1.067-1.067-0.533 0-1.067 0.4-1.067 1.067v14.8l-2.8-3.067z"></path>
</svg>
