<svg version="1.1" xmlns="http://www.w3.org/2000/svg" width="32" height="32" viewBox="0 0 32 32">
<title>cloud-check</title>
<path d="M19.467 13.467l-5.067 5.067-2.133-2.133c-0.4-0.4-1.067-0.4-1.467 0s-0.4 1.067 0 1.467c0 0 0 0 0 0l2.933 2.933c0.4 0.4 1.067 0.4 1.467 0l5.733-5.733c0.4-0.4 0.4-1.067 0-1.467-0.267-0.667-0.933-0.667-1.467-0.133 0-0.133 0 0 0 0zM25.733 12.8c-0.933-3.733-3.6-8.667-9.733-8.667-4.8 0-7.2 2.133-8.267 3.867-0.4 0.667-0.8 1.467-0.933 2.267-2.933 0.8-6.8 3.2-6.8 8.267 0 3.867 2 6.8 5.733 8.267 1.6 0.667 3.333 1.067 5.2 1.067h10.133c3.733 0 10.8-1.6 10.8-8-0.133-4.667-3.2-6.667-6.133-7.067zM20.933 25.733h-10.133c0 0-8.667 0-8.667-7.2 0-5.733 6.533-6.533 6.533-6.533s0-5.733 7.2-5.733 8 8.667 8 8.667c0.133 0 0.4 0 0.667 0 1.467 0 5.2 0.4 5.2 5.067-0.133 5.733-8.8 5.733-8.8 5.733z"></path>
</svg>
