<svg version="1.1" xmlns="http://www.w3.org/2000/svg" width="32" height="32" viewBox="0 0 32 32">
<title>cloud</title>
<path d="M25.867 12.8c-0.933-3.867-3.733-8.8-9.867-8.8-4.8 0-7.067 2.133-8.267 4-0.4 0.667-0.667 1.333-0.933 2.133-2.933 0.933-6.8 3.333-6.8 8.4 0 6.933 5.6 9.467 9.467 9.467h14.533c3.2 0 8-2.133 8-8 0-4.8-3.067-6.8-6.133-7.2zM24 25.867h-14.533c0 0-7.333 0-7.333-7.333 0-5.867 6.533-6.533 6.533-6.533s0-5.867 7.333-5.867 8 8.667 8 8.667c0.267 0 0.4 0 0.667 0 1.467 0 5.2 0.4 5.2 5.067 0 6-5.867 6-5.867 6z"></path>
</svg>
