<!-- Generated by IcoMoon.io -->
<svg version="1.1" xmlns="http://www.w3.org/2000/svg" width="32" height="32" viewBox="0 0 32 32">
<title>cloud-upload</title>
<path d="M25.733 10.8c-0.933-3.867-3.6-8.8-9.867-8.8-4.667 0-7.067 2.133-8.133 4-0.4 0.533-0.8 1.333-0.933 2.133-2.933 0.8-6.8 3.333-6.8 8.4-0.133 3.733 2.133 7.067 5.733 8.4 1.6 0.667 3.333 1.067 5.2 1.067h0.667v-2.133h-0.8c0 0-8.667 0-8.667-7.333 0-5.867 6.533-6.533 6.533-6.533s0-5.867 7.2-5.867 8 8.8 8 8.8c0.133 0 0.4 0 0.667 0 1.467 0 5.2 0.533 5.2 5.2 0 5.867-8.667 5.867-8.667 5.867h-1.467v2.133h1.467c3.733 0 10.8-1.733 10.8-8 0-4.933-3.067-6.933-6.133-7.333zM19.6 16.4c0.4 0.4 1.067 0.4 1.6 0 0 0 0 0 0 0 0.4-0.4 0.533-1.067 0-1.6l-4.4-4.8c-0.267-0.267-0.667-0.4-1.067-0.267-0.4-0.133-0.8 0-1.067 0.267l-4.667 4.8c-0.4 0.4-0.4 1.067 0 1.6 0.4 0.4 1.067 0.4 1.6 0l2.8-2.933v15.467c0 0.533 0.533 1.067 1.067 1.067s1.067-0.533 1.067-1.067v-15.867l3.067 3.333z"></path>
</svg>
