<!-- Generated by IcoMoon.io -->
<svg version="1.1" xmlns="http://www.w3.org/2000/svg" width="32" height="32" viewBox="0 0 32 32">
<title>coins</title>
<path d="M4.4 15.467c-0.8 0-1.467-0.667-1.6-1.467 0-0.4 0.133-0.8 0.4-1.067 0.667-0.533 1.6-0.533 2.133 0 0.267 0.267 0.4 0.667 0.4 1.067 0 0.667 0.533 1.333 1.333 1.333s1.333-0.533 1.333-1.333c0-1.067-0.4-2.133-1.2-2.933-0.267-0.533-0.8-0.933-1.467-1.067v-0.933c0-0.667-0.533-1.333-1.333-1.333s-1.333 0.533-1.333 1.333v0.933c-0.533 0.267-1.067 0.533-1.467 0.933-1.6 1.6-1.6 4.267 0 5.867 0.8 0.8 1.867 1.2 2.933 1.2s1.867 0.8 1.867 1.867c0 0.533-0.133 0.933-0.533 1.333-0.667 0.667-1.867 0.667-2.667 0-0.4-0.4-0.533-0.933-0.533-1.467 0.133-0.667-0.4-1.333-1.2-1.467-0.667-0.133-1.333 0.4-1.467 1.2-0.133 1.333 0.4 2.667 1.333 3.6 0.533 0.533 1.067 0.8 1.733 1.067v1.467c0 0.667 0.533 1.333 1.333 1.333s1.333-0.533 1.333-1.333v-1.467c0.8-0.133 1.467-0.533 2-1.067 1.733-1.733 1.733-4.533 0-6.267-0.933-0.933-2.133-1.333-3.333-1.333zM30.8 9.867c0.8-0.8 1.2-1.867 1.2-2.933 0-3.467-4-6.133-9.6-6.133s-9.6 2.533-9.6 6.133c0 1.067 0.4 2.267 1.2 3.067-0.8 0.8-1.2 1.867-1.2 2.933s0.4 2.267 1.2 3.067c-0.667 0.8-1.2 1.867-1.2 3.067 0 1.067 0.4 2.267 1.2 3.067-0.667 0.8-1.2 1.867-1.2 3.067 0 3.467 3.867 6.133 9.333 6.133s9.733-2.533 9.733-6.133c0-1.067-0.4-2.267-1.2-3.067 0.8-0.8 1.2-1.867 1.2-3.067 0-1.067-0.4-2.267-1.2-3.067 0.8-0.8 1.2-1.867 1.2-3.067 0.133-1.067-0.267-2.133-1.067-3.067zM29.333 19.067c0 1.867-3.333 3.467-7.2 3.467s-6.8-1.6-6.8-3.467c0-0.533 0.267-0.933 0.533-1.333 1.867 0.933 4 1.467 6.133 1.333 2.267 0 4.533-0.4 6.533-1.467 0.533 0.4 0.8 0.933 0.8 1.467zM22.267 12.933c2.267 0 4.533-0.4 6.533-1.467 0.267 0.4 0.533 0.933 0.533 1.467 0 1.867-3.333 3.467-7.2 3.467s-6.8-1.6-6.8-3.467c0-0.533 0.267-0.933 0.533-1.333 2.133 0.933 4.267 1.467 6.4 1.333zM22.4 3.467c3.867 0 6.933 1.6 6.933 3.467s-3.333 3.467-7.2 3.467-6.8-1.6-6.8-3.467 3.2-3.467 7.067-3.467zM22.267 28.533c-3.867 0-6.8-1.6-6.8-3.467 0-0.533 0.267-0.933 0.533-1.333 1.867 0.933 4 1.467 6.133 1.333 2.267 0 4.533-0.4 6.533-1.467 0.4 0.4 0.667 0.933 0.667 1.467 0 2-3.333 3.467-7.067 3.467z"></path>
</svg>
