<svg version="1.1" xmlns="http://www.w3.org/2000/svg" width="32" height="32" viewBox="0 0 32 32">
<title>coin</title>
<path d="M30 14.133c0-7.733-6.133-14.133-13.867-14.133s-14.133 6.133-14.133 13.867c0 0.667 0 1.467 0.133 2.133-0.133 0.667-0.133 1.333-0.133 2 0 7.733 6.267 14 14 14s14-6.267 14-14c0-0.667 0-1.333-0.133-2 0.133-0.667 0.133-1.2 0.133-1.867zM16 2.4c6.4 0 11.733 5.2 11.733 11.733s-5.2 11.733-11.733 11.733-11.733-5.2-11.733-11.733 5.333-11.733 11.733-11.733v0zM16 29.6c-4.267 0-8.133-2.267-10.133-6 5.333 5.6 14.133 5.867 19.733 0.667 0.267-0.133 0.4-0.4 0.667-0.667-2.133 3.733-6 6.133-10.267 6zM14.133 13.2l1.067-1.2v6c0 0.667 0.533 1.2 1.2 1.2s1.2-0.533 1.2-1.2v-8.933c0-0.667-0.533-1.2-1.2-1.2-0.267 0-0.667 0.133-0.8 0.4l-3.2 3.333c-0.4 0.4-0.4 1.2 0.133 1.6 0.4 0.4 1.2 0.4 1.6 0z"></path>
</svg>
