<svg version="1.1" xmlns="http://www.w3.org/2000/svg" width="32" height="32" viewBox="0 0 32 32">
<title>compare</title>
<path d="M21.333 5.333v0h-7.467l1.733-1.733c0.533-0.533 0.533-1.333 0-1.867s-1.333-0.533-1.867 0l-4 4c0 0 0 0-0.133 0.133v0 0 0 0 0 0 0 0 0 0c0 0 0 0 0 0.133v0c-0.267 0.533-0.267 0.667-0.267 0.667v0 0 0.133c0 0 0 0 0 0.133v0 0 0 0 0 0 0 0 0 0c0 0 0 0.133 0.133 0.133l4 4c0.533 0.533 1.333 0.533 1.867 0s0.533-1.333 0-1.867l-1.467-1.2h7.467c4.4 0 8 3.6 8 8 0 2-0.8 3.733-2.133 5.067-0.533 0.533-0.533 1.333 0 1.867s1.333 0.533 1.867 0c1.867-1.733 2.933-4.267 2.933-6.933 0-5.867-4.8-10.667-10.667-10.667zM10.667 26.533v0h7.467l-1.733 1.733c-0.533 0.533-0.533 1.333 0 1.867s1.333 0.533 1.867 0l4-4c0 0 0 0 0.133-0.133v0 0 0 0 0 0 0 0 0 0c0 0 0 0 0-0.133v0c0.267-0.533 0.267-0.667 0.267-0.667v0 0-0.133c0 0 0 0 0-0.133v0 0 0 0 0 0 0 0 0 0c0 0 0-0.133-0.133-0.133l-4-4c-0.533-0.533-1.333-0.533-1.867 0s-0.533 1.333 0 1.867l1.467 1.2h-7.467c-4.4 0-8-3.6-8-8 0-2 0.8-3.733 2.133-5.067 0.533-0.533 0.533-1.333 0-1.867s-1.333-0.533-1.867 0c-1.867 1.733-2.933 4.267-2.933 6.933 0 5.867 4.8 10.667 10.667 10.667z"></path>
</svg>
