<!-- Generated by IcoMoon.io -->
<svg version="1.1" xmlns="http://www.w3.org/2000/svg" width="32" height="32" viewBox="0 0 32 32">
<title>corn</title>
<path d="M26.4 13.2h-2.133c-0.8 0-1.467 0.133-2.267 0.267-0.267-3.467-1.067-9.2-3.2-11.867-0.933-1.333-2-1.6-2.8-1.6s-1.867 0.267-2.933 1.6c-2.133 2.8-2.933 8.4-3.2 11.867-0.667-0.133-1.467-0.267-2.267-0.267h-2c-0.533 0-1.067 0.533-1.067 1.067s0.533 1.067 1.067 1.067h1.067v7.333c0 5.2 4.267 9.333 9.333 9.333s9.333-4.267 9.333-9.333v-7.333h1.067c0.533 0 1.067-0.533 1.067-1.067s-0.4-1.067-1.067-1.067zM12.267 10.4h1.6c0.533 0 1.067-0.533 1.067-1.067s-0.533-1.067-1.067-1.067h-1.2c0.133-0.8 0.4-1.733 0.667-2.533 0.8-2.4 1.733-3.733 2.667-3.733 0.8 0 1.733 1.067 2.533 3.067h-0.4c-0.533 0-1.067 0.533-1.067 1.067s0.533 1.067 1.067 1.067h1.067c0.533 2 0.8 4.4 0.933 7.067-1.733 0.933-3.2 2.533-4.133 4.533-0.933-2-2.4-3.467-4.133-4.533 0.133-1.333 0.267-2.533 0.4-3.867zM23.333 22.667c0 4-3.333 7.333-7.333 7.333s-7.333-3.333-7.333-7.333v-7.2c3.6 0.533 6.267 4 6.267 8.267v2.267c0 0.533 0.533 1.067 1.067 1.067s1.067-0.533 1.067-1.067v-2.267c0-4.133 2.667-7.733 6.267-8.267v7.2zM17.333 11.867h-2c-0.533 0-1.067 0.533-1.067 1.067s0.533 1.067 1.067 1.067h2c0.533 0 1.067-0.533 1.067-1.067 0-0.667-0.4-1.067-1.067-1.067z"></path>
</svg>
