<!-- Generated by IcoMoon.io -->
<svg version="1.1" xmlns="http://www.w3.org/2000/svg" width="32" height="32" viewBox="0 0 32 32">
<title>currency-exchange</title>
<path d="M31.6 11.067c-0.4-0.267-1.067-0.133-1.333 0.267 0 0 0 0 0 0l-1.2 1.867c-0.667-2.8-2-5.333-4-7.333-2.933-2.933-6.8-4.8-10.667-4.8s-7.733 1.867-10.667 4.8c-0.4 0.4-0.4 1.067 0 1.467s1.067 0.4 1.467 0c0 0 0 0 0 0 2.533-2.533 5.867-4.133 9.2-4.133s6.667 1.6 9.2 4.133c1.733 1.733 3.067 4.133 3.467 6.533l-2.133-1.467c-0.533-0.267-1.067-0.133-1.333 0.267s-0.133 1.067 0.267 1.333l4 2.8c0 0 0 0 0.133 0 0 0 0.133 0.133 0.133 0.133s0 0 0 0c0.133 0 0.133 0 0.267 0v0c0.133 0 0.133 0 0.267 0 0 0 0 0 0.133 0 0 0 0.133 0 0.133 0s0 0 0.133 0c0 0 0.133 0 0.133-0.133 0 0 0 0 0.133-0.133 0 0 0 0 0.133-0.133 0 0 0 0 0 0s0 0 0 0l2.667-4.133c0-0.4-0.133-0.933-0.533-1.333zM26.933 24.667c-4.533 5.067-12.4 5.467-17.467 0.933-0.267-0.267-0.667-0.533-0.933-0.933-1.733-1.733-3.067-4.133-3.467-6.533l2.133 1.467c0.133 0.133 0.4 0.133 0.533 0.133 0.267 0 0.667-0.133 0.8-0.4 0.267-0.4 0.133-1.067-0.267-1.333l-4-2.8c0 0 0 0 0 0-0.133 0-0.133-0.133-0.267-0.133 0 0 0 0 0 0s0 0 0 0c-0.133 0-0.133 0-0.267 0v0c-0.133 0-0.133 0-0.267 0v0c-0.133 0-0.133 0.133-0.267 0.133 0 0 0 0 0 0-0.133 0-0.133 0.133-0.133 0.267 0 0 0 0 0 0s0 0 0 0l-2.667 4.133c-0.267 0.4-0.133 1.067 0.267 1.333s1.067 0.133 1.333-0.267c0 0 0 0 0 0l1.2-1.867c1.6 6.8 7.6 11.733 14.533 12 4-0.133 7.867-1.733 10.8-4.667 0.4-0.4 0.4-1.067 0-1.467-0.533-0.4-1.2-0.4-1.6 0 0 0 0 0 0 0zM11.733 18.4c-0.533 0-1.067 0.4-1.067 0.933 0 0 0 0 0 0-0.133 1.6 0.667 2.667 1.6 3.6 0.667 0.533 1.467 0.933 2.4 1.2v1.067c0 0.533 0.4 0.933 0.933 1.067 0.533 0 0.933-0.4 1.067-0.933 0 0 0-0.133 0-0.133v-0.8c1.067-0.133 2-0.667 2.667-1.333 1.867-1.867 1.867-4.933 0-6.8 0 0-0.133-0.133-0.133-0.133-0.8-0.8-1.467-0.8-2.533-0.933v-5.2c0.267 0 0.667 0.133 0.933 0.267 0.4 0.4 0.667 1.067 0.533 1.733 0 0.533 0.4 1.067 1.067 1.067v0 0c0.533 0 1.067-0.4 1.067-1.067 0 0 0 0 0 0 0.133-1.2-0.4-2.267-1.2-3.067-0.667-0.667-1.6-1.067-2.533-1.2v-0.8c0-0.533-0.4-1.067-1.067-1.067-0.533 0-1.067 0.4-1.067 1.067v0 0.8c-0.8 0-1.467 0.4-2.133 0.933-0.933 0.8-1.467 2-1.6 3.333 0.133 1.333 0.667 2.533 1.733 3.333 0.667 0.667 1.467 1.2 2.4 1.467v4.933c-0.267-0.133-0.4-0.267-0.667-0.533-0.8-0.8-1.467-1.2-1.333-1.867 0-0.4-0.4-0.933-1.067-0.933 0 0 0 0 0 0v0zM17.733 17.333c1.2 1.2 1.333 2.8 0.267 3.867-0.4 0.4-0.8 0.667-1.333 0.8v-4.933c0.533 0.133 0.667 0 1.067 0.267zM14.133 14.267c-0.533-0.4-1.467-1.467-1.467-2.267s0.933-1.6 1.333-2c0.267 0 0.4 0 0.667 0v4.667c-0.267-0.133-0.4-0.267-0.533-0.4z"></path>
</svg>
