<svg version="1.1" xmlns="http://www.w3.org/2000/svg" width="32" height="32" viewBox="0 0 32 32">
<title>delete-location</title>
<path d="M20 11.6h-8c-0.667 0-1.067 0.533-1.067 1.067 0 0.667 0.533 1.067 1.067 1.067h8c0.667 0 1.067-0.533 1.067-1.067s-0.4-1.067-1.067-1.067zM16 0c-7.2 0-13.467 6.133-13.467 13.067 0.133 2.133 0.8 4.267 1.733 6.133 0 0 0 0.133 0.133 0.133 0.133 0.133 2 3.067 4.133 6 4.133 5.6 5.867 6.667 7.467 6.667s3.333-1.067 7.467-6.667c2.133-2.933 4-5.867 4.133-6 0 0 0.133-0.133 0.133-0.133 1.067-1.867 1.6-4 1.733-6 0-7.067-6.267-13.2-13.467-13.2zM25.733 18.133c0 0-7.467 11.6-9.733 11.6s-9.733-11.6-9.733-11.6c-0.933-1.6-1.333-3.333-1.467-5.067 0-5.867 5.2-10.933 11.333-10.933s11.333 5.067 11.333 10.933c-0.267 1.867-0.8 3.6-1.733 5.067z"></path>
</svg>
