<!-- Generated by IcoMoon.io -->
<svg version="1.1" xmlns="http://www.w3.org/2000/svg" width="32" height="32" viewBox="0 0 32 32">
<title>delete-folder</title>
<path d="M27.6 15.067v-3.467c0-2-1.6-3.6-3.6-3.6h-8.533l-1.2-1.867c-0.8-1.067-2-1.733-3.333-1.733h-5.733c-1.333 0-2.4 0.667-3.067 1.733l-1.6 2.533c-0.4 0.667-0.533 1.2-0.533 1.867v13.467c0 2 1.6 3.6 3.6 3.6h18.4c3.467 1.733 7.6 0.267 9.2-3.067 1.733-3.467 0.267-7.6-3.067-9.2-0.133-0.133-0.267-0.267-0.533-0.267zM2.133 24v-13.467c0-0.267 0.133-0.533 0.267-0.8l1.6-2.533c0.267-0.4 0.8-0.667 1.2-0.667h5.6c0.533 0 1.2 0.267 1.6 0.667l1.467 2.267c0.4 0.4 0.933 0.667 1.467 0.667h8.667c0.8 0 1.467 0.667 1.467 1.467v2.933c-0.133 0-0.267 0-0.4 0-3.867 0-6.933 3.067-6.933 6.933 0 1.467 0.4 2.8 1.333 4h-15.867c-0.8 0-1.467-0.667-1.467-1.467zM25.067 26.133c-2.667 0-4.667-2.133-4.667-4.667s2.133-4.667 4.667-4.667 4.667 2.133 4.667 4.667v0c0.133 2.667-2 4.667-4.667 4.667zM27.333 19.2c-0.4-0.4-1.067-0.4-1.6 0 0 0 0 0 0 0l-0.667 0.8-0.8-0.8c-0.4-0.4-1.067-0.4-1.6 0-0.4 0.4-0.4 1.067 0 1.467l0.8 0.8-0.8 0.8c-0.4 0.4-0.4 1.067 0 1.6 0.4 0.4 1.067 0.4 1.467 0l0.8-0.8 0.8 0.8c0.4 0.4 1.067 0.4 1.6 0 0.4-0.4 0.4-1.067 0-1.467l-0.8-0.8 0.8-0.8c0.4-0.4 0.4-1.2 0-1.6z"></path>
</svg>
