<!-- Generated by IcoMoon.io -->
<svg version="1.1" xmlns="http://www.w3.org/2000/svg" width="32" height="32" viewBox="0 0 32 32">
<title>delivery</title>
<path d="M24.133 18.8c-2.267 0-4 1.867-4 4s1.867 4 4 4c2.267 0 4-1.867 4-4s-1.733-4-4-4zM24.133 24.933c-1.067 0-2-0.933-2-2s0.933-2 2-2c1.067 0 2 0.933 2 2s-0.8 2-2 2zM10.4 18.8c-2.267 0-4 1.867-4 4s1.867 4 4 4 4-1.867 4-4-1.733-4-4-4zM10.4 24.933c-1.067 0-2-0.933-2-2s0.933-2 2-2c1.067 0 2 0.933 2 2s-0.933 2-2 2zM26.933 7.333c-0.133-0.4-0.533-0.533-0.933-0.533h-5.333v2h4.667l2.8 5.467 1.867-0.933-3.067-6zM13.467 21.867h7.6v2h-7.6v-2zM7.333 21.867h-3.467c-0.533 0-1.067 0.4-1.067 1.067 0 0.533 0.4 1.067 1.067 1.067h3.467c0.533 0 1.067-0.4 1.067-1.067 0-0.533-0.533-1.067-1.067-1.067zM31.733 15.733l-2-2.533c-0.133-0.267-0.533-0.4-0.8-0.4h-7.333v-7.067c0-0.533-0.4-1.067-1.067-1.067h-16.667c-0.533 0-1.067 0.4-1.067 1.067s0.4 1.067 1.067 1.067h15.733v7.067c0 0.533 0.4 1.067 1.067 1.067h7.867l1.467 1.867v5.2h-2.8c-0.533 0-1.067 0.4-1.067 1.067 0 0.533 0.4 1.067 1.067 1.067h3.733c0.533 0 1.067-0.4 1.067-1.067v-6.533c0-0.4-0.133-0.667-0.267-0.8zM7.333 16.8h-4.667c-0.533 0-1.067 0.4-1.067 1.067 0 0.533 0.4 1.067 1.067 1.067h4.667c0.533 0 1.067-0.4 1.067-1.067-0.133-0.667-0.533-1.067-1.067-1.067zM9.6 12.8h-8.533c-0.667 0-1.067 0.533-1.067 1.067s0.4 1.067 1.067 1.067h8.667c0.533 0 1.067-0.4 1.067-1.067-0.133-0.533-0.667-1.067-1.2-1.067zM11.2 8.8h-8.533c-0.533 0-1.067 0.533-1.067 1.067s0.4 1.067 1.067 1.067h8.667c0.533 0 1.067-0.4 1.067-1.067-0.133-0.533-0.533-1.067-1.2-1.067z"></path>
</svg>
