<svg version="1.1" xmlns="http://www.w3.org/2000/svg" width="32" height="32" viewBox="0 0 32 32">
<title>diamond</title>
<path d="M31.2 8.667l-6.267-6.133c-0.4-0.4-0.933-0.667-1.467-0.667h-15.2c-0.533 0-1.067 0.267-1.467 0.667l-6.133 6.133c-0.8 0.667-0.8 1.867-0.133 2.667l13.733 18c0.667 0.933 2 1.067 2.933 0.4 0.133-0.133 0.267-0.267 0.4-0.4l13.867-17.867c0.667-0.933 0.533-2-0.267-2.8zM6.667 5.6l2.133 3.867h-6l3.867-3.867zM19.6 9.467h-7.333l3.6-4.533 3.733 4.533zM20.133 11.6l-4.133 13.6-4.267-13.6h8.4zM9.467 11.6l4.267 13.733-10.667-13.733h6.4zM22.4 11.6h6.4l-10.667 13.733 4.267-13.733zM23.067 9.467l2.133-3.867 3.867 3.867h-6zM23.6 4v0l-2.267 4.267-3.467-4.267h5.733zM14 4l-3.467 4.267-2.4-4.133 0.133-0.133h5.733z"></path>
</svg>
