<svg version="1.1" xmlns="http://www.w3.org/2000/svg" width="32" height="32" viewBox="0 0 32 32">
<title>discount</title>
<path d="M32 14.133l-2.4-2.8 0.267-3.6-3.2-1.467-1.2-3.467-3.6-0.133-2.533-2.667-3.333 1.333-3.333-1.333-2.533 2.667-3.6 0.133-1.2 3.467-3.2 1.467 0.267 3.6-2.4 2.8 1.733 3.2-1.067 3.467 2.8 2.267 0.533 3.467 3.467 0.8 1.867 3.067 3.6-0.667 2.933 2 2.933-2 3.6 0.667 1.867-3.067 3.467-0.8 0.533-3.6 2.8-2.267-0.8-3.333 1.733-3.2zM29.2 20.133l-2.533 1.867-0.4 3.067-3.067 0.8-1.6 2.667-3.067-0.533-2.533 1.6-2.533-1.733-3.067 0.533-1.6-2.667-3.067-0.8-0.4-2.933-2.4-1.867 0.933-2.933-1.467-2.8 1.867-2.4-0.267-3.067 2.8-1.333 1.067-2.933 3.067-0.133 2.133-2.267 2.933 1.2 2.933-1.2 2.133 2.267 3.067 0.133 1.067 2.933 2.8 1.333-0.267 3.067 2 2.4-1.467 2.8 0.933 2.933zM11.333 8.267c-2 0-3.733 1.6-3.733 3.733 0 2 1.733 3.733 3.733 3.733s3.733-1.733 3.733-3.733-1.6-3.733-3.733-3.733zM11.333 13.2c-0.667 0-1.333-0.533-1.333-1.333s0.533-1.333 1.333-1.333 1.333 0.533 1.333 1.333c0 0.8-0.533 1.333-1.333 1.333zM20.667 16.267c-2 0-3.733 1.733-3.733 3.733s1.733 3.733 3.733 3.733 3.733-1.733 3.733-3.733c0-2-1.733-3.733-3.733-3.733zM20.667 21.333c-0.667 0-1.333-0.533-1.333-1.333 0-0.667 0.533-1.333 1.333-1.333s1.333 0.533 1.333 1.333-0.667 1.333-1.333 1.333zM9.427 21.959l11.415-13.571 1.837 1.545-11.415 13.571-1.837-1.545z"></path>
</svg>
