<svg version="1.1" xmlns="http://www.w3.org/2000/svg" width="32" height="32" viewBox="0 0 32 32">
<title>document</title>
<path d="M28.133 0h-17.467c-0.8 0-1.467 0.4-1.867 1.067l-6.133 6.133c-0.667 0.4-1.067 1.067-1.067 1.867v20.533c0 1.2 1.067 2.267 2.267 2.267h24.267c1.2 0 2.267-1.067 2.267-2.267v-27.333c0-1.2-0.933-2.267-2.267-2.267zM8.4 4.667v2.133h-2.133l2.133-2.133zM28.133 29.6h-24.267v-20.4c0 0 0 0 0 0v0h6.8v-6.8c0 0 0 0 0 0h17.333v27.2h0.133zM23.6 17.467h-15.2c-0.667 0-1.2 0.533-1.2 1.2s0.533 1.2 1.2 1.2h15.2c0.667 0 1.2-0.533 1.2-1.2s-0.533-1.2-1.2-1.2zM21.333 22.8h-12.933c-0.667 0-1.2 0.533-1.2 1.2s0.533 1.2 1.2 1.2h12.933c0.667 0 1.2-0.533 1.2-1.2s-0.533-1.2-1.2-1.2zM18.267 14.4h4.533c1.2 0 2.267-1.067 2.267-2.267v-4.533c0-1.2-1.067-2.267-2.267-2.267h-4.533c-1.2 0-2.267 1.067-2.267 2.267v4.533c0 1.333 1.067 2.267 2.267 2.267zM18.267 7.6h4.533v4.533h-4.533v-4.533z"></path>
</svg>
