<!-- Generated by IcoMoon.io -->
<svg version="1.1" xmlns="http://www.w3.org/2000/svg" width="32" height="32" viewBox="0 0 32 32">
<title>document-alt</title>
<path d="M19.6 2.533c0.533 0 1.2 0.267 1.467 0.8l5.6 6.8c0.133 0.267 0.267 0.533 0.267 0.933v16.8c0 0.933-0.8 1.733-1.733 1.733h-18.4c-0.933 0-1.733-0.8-1.733-1.733v-23.6c0-0.933 0.8-1.733 1.733-1.733h12.8zM19.6 0h-12.8c-2.4 0-4.267 1.867-4.267 4.267v23.6c0 2.267 1.867 4.267 4.267 4.267h18.533c2.267 0 4.267-1.867 4.267-4.267v-16.933c0-0.8-0.267-1.467-0.667-2.133-0.133-0.133-0.133-0.267-0.267-0.267l-5.6-6.667c-0.8-1.2-2.133-1.867-3.467-1.867v0 0z"></path>
</svg>
