<!-- Generated by IcoMoon.io -->
<svg version="1.1" xmlns="http://www.w3.org/2000/svg" width="32" height="32" viewBox="0 0 32 32">
<title>dollar-circle</title>
<path d="M16 0c-8.8 0-16 7.2-16 16s7.2 16 16 16 16-7.2 16-16v0c0-8.8-7.2-16-16-16zM16 29.867c-7.6 0-13.867-6.267-13.867-13.867s6.267-13.867 13.867-13.867 13.867 6.267 13.867 13.867-6.267 13.867-13.867 13.867v0zM16.667 15.067v-5.867c0.533 0.133 0.933 0.4 1.333 0.8s0.4 0.667 0.4 1.733c0 0.667 0.533 1.067 1.067 1.067 0.667 0 1.067-0.533 1.067-1.067 0.133-1.2-0.267-2.4-1.067-3.2s-1.733-1.333-2.8-1.467v-0.533c0-0.667-0.533-1.067-1.067-1.067s-1.067 0.533-1.067 1.067v0.533c-2.4 0.533-4.133 2.8-4 5.2 0 2.667 2.267 4 4 4.533v6.667c-1.333-0.667-2.267-2-2.133-3.467 0-0.667-0.533-1.067-1.067-1.067s-1.067 0.4-1.067 1.067c0 2.933 1.867 5.333 4.4 5.733v0.4c0 0.667 0.533 1.067 1.067 1.067s1.067-0.533 1.067-1.067v-0.533c2.133-0.4 4.667-1.867 4.667-5.333 0-3.067-2.933-4.8-4.8-5.2zM12.667 12.4c0-1.333 0.667-2.533 1.867-2.933v5.2c-1.067-0.4-1.733-1.2-1.867-2.267zM16.667 23.467v-6.133c1.067 0.4 2.533 1.467 2.533 3.067 0.133 1.467-0.933 2.8-2.533 3.067z"></path>
</svg>
