<svg version="1.1" xmlns="http://www.w3.org/2000/svg" width="32" height="32" viewBox="0 0 32 32">
<title>dollar</title>
<path d="M22 16c-1.333-1.2-3.067-1.867-4.8-1.867v-9.333c1.067 0.133 2 0.667 2.667 1.333 0.8 0.8 0.8 1.467 0.8 2.8 0 0.667 0.533 1.2 1.2 1.2s1.2-0.533 1.2-1.2c0-1.6 0-3.067-1.467-4.533-1.2-1.2-2.8-1.867-4.4-2.133v-1.067c0-0.667-0.533-1.2-1.2-1.2s-1.2 0.533-1.2 1.2v1.2c-1.333 0.133-2.667 0.667-3.733 1.6-2.933 2.933-3.067 7.733-0.267 10.533 1.067 0.933 2.533 1.6 4 1.733v10.4c-0.933-0.267-1.733-0.667-2.267-1.333-1.467-1.467-2.133-2.4-2-3.733 0-0.667-0.4-1.2-1.067-1.2s-1.2 0.4-1.2 1.067c-0.267 2.533 1.2 4.133 2.667 5.6 1.067 1.067 2.533 1.867 4 2.133v1.733c0 0.667 0.533 1.2 1.2 1.2s1.2-0.533 1.2-1.2v-1.6c4.267-0.4 7.467-4.133 7.067-8.4-0.4-2-1.2-3.733-2.4-4.933zM12.533 12.8c-1.867-1.733-1.733-5.2 0.267-7.2 0.533-0.533 1.333-0.8 2-0.933v9.067c-0.8 0-1.6-0.4-2.267-0.933zM20.267 25.333c-0.8 0.8-1.867 1.333-3.067 1.467v-10.4c1.2 0 2.267 0.4 3.067 1.2 2.133 2.133 2.133 5.6 0 7.733 0 0 0 0 0 0v0z"></path>
</svg>
