<svg version="1.1" xmlns="http://www.w3.org/2000/svg" width="32" height="32" viewBox="0 0 32 32">
<title>dot-square</title>
<path d="M26.667 2.667c1.467 0 2.667 1.2 2.667 2.667v21.333c0 1.467-1.2 2.667-2.667 2.667h-21.333c-1.467 0-2.667-1.2-2.667-2.667v-21.333c0-1.467 1.2-2.667 2.667-2.667h21.333zM26.667 0h-21.333c-2.933 0-5.333 2.4-5.333 5.333v21.333c0 2.933 2.4 5.333 5.333 5.333h21.333c2.933 0 5.333-2.4 5.333-5.333v-21.333c0-2.933-2.4-5.333-5.333-5.333v0zM26.133 16c0 5.596-4.537 10.133-10.133 10.133s-10.133-4.537-10.133-10.133c0-5.596 4.537-10.133 10.133-10.133s10.133 4.537 10.133 10.133z"></path>
</svg>
