<!-- Generated by IcoMoon.io -->
<svg version="1.1" xmlns="http://www.w3.org/2000/svg" width="32" height="32" viewBox="0 0 32 32">
<title>dribbble</title>
<path d="M16 0c-8.8 0-16 7.2-16 16s7.2 16 16 16 16-7.2 16-16-7.2-16-16-16zM26.4 7.6c1.733 2.267 2.933 5.067 2.933 8-3.333-0.667-6.4-0.667-8.933-0.133-0.533-1.067-0.933-2.133-1.467-3.2 2.933-1.2 5.467-2.8 7.467-4.667zM24.667 5.733c-2 1.867-4.4 3.2-6.933 4.267-1.733-3.333-3.467-5.733-4.533-7.2 0.933-0.133 1.867-0.267 2.8-0.267 3.333 0 6.267 1.2 8.667 3.2zM10.667 3.733c0.8 1.067 2.667 3.6 4.667 7.2-5.067 1.6-10 1.867-12.4 2 0.933-4.133 3.867-7.6 7.733-9.2zM2.533 15.467c0.133 0 0.133 0 0 0 1.733 0 4.667-0.133 8.267-0.8 2-0.4 3.867-0.8 5.733-1.467 0.4 0.933 0.933 1.867 1.333 2.933-2.533 0.8-4.667 2-6.267 3.067-2.8 1.867-4.8 4.133-5.867 5.333-2-2.4-3.2-5.333-3.2-8.667 0 0 0-0.267 0-0.4zM7.6 26.533c0.933-1.2 2.8-3.333 5.467-5.2 1.867-1.2 3.733-2.133 5.733-2.8 1.2 2.933 2.133 6.267 2.667 9.733-1.733 0.8-3.6 1.2-5.6 1.2-3.067 0-6-1.2-8.267-2.933zM23.867 26.8c-0.533-3.2-1.467-6.133-2.533-8.933 2.533-0.4 5.2-0.4 7.867 0.267-0.533 3.6-2.533 6.667-5.333 8.667z"></path>
</svg>
