<!-- Generated by IcoMoon.io -->
<svg version="1.1" xmlns="http://www.w3.org/2000/svg" width="32" height="32" viewBox="0 0 32 32">
<title>dry-clean</title>
<path d="M27.733 5.2l4-4c0.267-0.267 0.267-0.667 0-0.933s-0.667-0.267-0.933 0l-4 4c-2.8-2.667-6.667-4.267-10.8-4.267s-8 1.733-10.8 4.267l-4-4c-0.267-0.267-0.667-0.267-0.933 0s-0.267 0.667 0 0.933l4 4c-2.667 2.933-4.267 6.667-4.267 10.8s1.6 7.867 4.267 10.8l-4 4c-0.267 0.267-0.267 0.667 0 0.933 0.133 0.133 0.267 0.267 0.4 0.267s0.4 0 0.533-0.133l4-4c2.8 2.667 6.667 4.267 10.8 4.267s8-1.6 10.8-4.267l4 4c0.133 0.133 0.267 0.133 0.533 0.133s0.4 0 0.533-0.133c0.267-0.267 0.267-0.667 0-0.933l-4-4c2.667-2.8 4.267-6.667 4.267-10.8s-1.867-8-4.4-10.933zM16 1.467c3.733 0 7.2 1.467 9.867 3.867l-9.867 9.733-9.867-9.867c2.533-2.267 6-3.733 9.867-3.733zM5.2 25.867c-2.4-2.533-3.867-6-3.867-9.867s1.467-7.2 3.867-9.867l9.867 9.867-9.867 9.867zM16 30.667c-3.733 0-7.2-1.467-9.867-3.867l9.867-9.867 9.867 9.867c-2.667 2.4-6.133 3.867-9.867 3.867zM26.8 25.867l-9.867-9.867 9.867-9.867c2.4 2.533 3.867 6 3.867 9.867s-1.6 7.333-3.867 9.867z"></path>
</svg>
