<svg version="1.1" xmlns="http://www.w3.org/2000/svg" width="32" height="32" viewBox="0 0 32 32">
<title>earphones</title>
<path d="M28.4 17.733c0-0.267 0-0.4 0-0.667v-1.333c0-4.667-2.8-8.933-6.933-11.067v0c0-1.2-0.933-2.133-2.133-2.133h-6.8c-1.067 0-2 0.8-2 1.867-4.267 2.133-6.933 6.4-6.933 11.2v1.333c0 0.267 0 0.4 0 0.667-3.067 1.467-4.4 5.2-2.8 8.4 1.067 2.133 3.2 3.467 5.6 3.467h2.8c1.2 0 2.133-0.933 2.133-2.133v-8.267c0-1.2-0.933-2.133-2.133-2.133 0 0-3.2 0-3.467 0v0-1.333c-0.267-3.6 1.6-7.067 4.8-8.933 0.267 0.8 1.067 1.333 2 1.333h6.933c0.8 0 1.467-0.4 1.867-1.2 3.067 1.867 5.067 5.2 5.067 8.8v1.333c0 0 0 0 0 0-0.267 0-2.4 0-2.8 0h-0.667c-1.2 0-2.133 0.933-2.133 2.133v8.267c0 1.2 0.933 2.133 2.133 2.133h2.8c3.467 0 6.267-2.8 6.267-6.267-0.133-2.267-1.467-4.533-3.6-5.467zM9.067 19.067v8.267h-0.8v-8.267h0.8zM6.267 27.467c-2.267 0-4.133-1.867-4.133-4.133s1.867-4.133 4.133-4.133v0 8.267zM19.467 6h-6.933v-1.333h6.933v1.333zM22.933 27.467v-8.267h0.667v8.267h-0.667zM25.6 27.467v-8.267c2.267 0 4.133 1.867 4.133 4.133s-1.733 4.133-4.133 4.133z"></path>
</svg>
