<!-- Generated by IcoMoon.io -->
<svg version="1.1" xmlns="http://www.w3.org/2000/svg" width="32" height="32" viewBox="0 0 32 32">
<title>edit</title>
<path d="M26 29.733h-21.733v-27.333h12.267v-2.267h-12.267c-1.2 0-2.133 0.933-2.133 2.133v27.467c0 1.2 0.933 2.133 2.133 2.133h21.6c1.2 0 2.133-0.933 2.133-2.133v-13.733h-2.133v13.733zM29.6 2.933l-1.467-1.6c-0.8-0.8-2.267-0.8-3.067 0 0 0 0 0 0 0s-12 12-12.133 12.667l-0.533 2.133c-0.267 1.2 0.4 2.4 1.6 2.667 0.4 0.133 0.667 0.133 1.067 0l2.133-0.533c0.8-0.133 12.533-12.4 12.533-12.4 0.533-0.8 0.4-2-0.133-2.933zM18 14.533l-1.467-1.467c0 0 0 0 0 0l10.133-10.133 1.467 1.467-10.133 10.133z"></path>
</svg>
