<!-- Generated by IcoMoon.io -->
<svg version="1.1" xmlns="http://www.w3.org/2000/svg" width="32" height="32" viewBox="0 0 32 32">
<title>eggs</title>
<path d="M30.933 16.267c0-1.467-0.667-3.333-1.467-4.933-0.933-2-2.267-3.067-3.733-3.333-0.267-0.933-0.667-1.867-1.067-2.8-1.2-2.133-2.533-3.333-4.133-3.333-1.467 0-2.933 1.2-4.133 3.333-0.267 0.4-0.4 0.933-0.667 1.467-0.133-0.533-0.4-0.933-0.667-1.467-1.2-2.133-2.533-3.333-4.133-3.333-1.333 0.133-2.667 1.2-3.867 3.467-0.4 0.8-0.8 1.867-1.067 2.8-1.333 0.267-2.533 1.467-3.467 3.2-0.8 1.6-1.333 3.467-1.467 4.933h-1.067v5.467h1.6l1.6 8.267h6.8l0.8-4.133h1.067l0.8 4.133h6.8l0.8-4.133h1.067l0.8 4.133h6.8l1.6-8.267h1.467v-5.467h-1.067zM24.267 10.533c0.4-0.4 0.8-0.533 1.2-0.533 0.267 0 0.4 0.133 0.667 0.267 0.533 0.4 1.2 1.067 1.733 2.133 0.667 1.333 1.2 2.933 1.2 4h-7.333c0-0.133 0-0.267 0-0.4 0.133-0.667 0.267-1.467 0.533-2.267 0.133-0.533 0.4-0.933 0.667-1.467 0.533-0.8 0.933-1.333 1.333-1.733zM18.133 6.133c0.8-1.467 1.733-2.267 2.4-2.267 0.8 0 1.6 0.933 2.4 2.267 0.4 0.667 0.667 1.467 0.933 2.267-0.933 0.533-1.867 1.467-2.533 2.933-0.267 0.4-0.4 0.933-0.667 1.467-0.133-0.533-0.4-0.933-0.667-1.467-0.8-1.467-1.733-2.533-2.8-3.067 0.267-0.667 0.667-1.467 0.933-2.133zM14.8 10.533c0.133-0.133 0.133-0.133 0.267-0.267 0.267-0.267 0.667-0.4 0.933-0.4s0.4 0.133 0.667 0.267c0.133 0 0.133 0.133 0.267 0.133 0.533 0.4 1.067 1.067 1.467 2 0.267 0.533 0.533 1.067 0.667 1.6 0.267 0.667 0.4 1.467 0.533 2.133 0 0.133 0 0.267 0 0.4h-7.2c0-0.133 0-0.267 0-0.4 0.133-0.667 0.267-1.467 0.533-2.267 0.133-0.533 0.4-0.933 0.667-1.467 0.4-0.8 0.8-1.333 1.2-1.733zM8.667 6.133c0.8-1.467 1.733-2.267 2.4-2.267 0.8 0 1.6 0.933 2.4 2.267 0.4 0.667 0.667 1.467 0.933 2.267-0.933 0.533-1.867 1.467-2.533 2.933-0.133 0.533-0.4 0.933-0.533 1.467-0.267-0.533-0.4-0.933-0.667-1.467-0.8-1.467-1.733-2.533-2.8-3.067 0.267-0.667 0.533-1.467 0.8-2.133zM4.133 12.267c0.4-0.933 0.933-1.6 1.467-2 0.267-0.267 0.667-0.4 0.933-0.4s0.667 0.133 0.933 0.4c0.533 0.4 1.067 1.067 1.467 2 0.267 0.533 0.533 1.067 0.667 1.6 0.267 0.667 0.4 1.467 0.533 2.133 0 0.133 0 0.267 0 0.4h-7.2c0-1.333 0.533-2.933 1.2-4.133zM27.333 28.133h-3.733l-0.8-4.133h-4.133l-0.8 4.133h-3.733l-0.8-4.133h-4.133l-0.8 4.133h-3.733l-1.2-6.4h24.933l-1.067 6.4zM30.133 19.867h-28.267v-1.733h28.267v1.733z"></path>
</svg>
