<svg version="1.1" xmlns="http://www.w3.org/2000/svg" width="32" height="32" viewBox="0 0 32 32">
<title>euro-circle</title>
<path d="M16 0c-8.8 0-16 7.2-16 16s7.2 16 16 16 16-7.2 16-16v0c-0.133-8.8-7.2-16-16-16zM16 29.733c-7.6 0-13.867-6.133-13.867-13.733s6.267-13.867 13.867-13.867 13.733 6.267 13.733 13.867-6.133 13.733-13.733 13.733v0zM20.4 22.267c-3.333 2.267-7.733 1.6-10.133-1.733-0.4-0.533-0.667-1.067-0.933-1.6h7.6c0.667 0 1.067-0.533 1.067-1.067 0-0.667-0.533-1.067-1.067-1.067h-8c0-0.133 0-0.267 0-0.4s0-0.267 0-0.4h10.267c0.667 0 1.067-0.533 1.067-1.067 0-0.667-0.533-1.067-1.067-1.067h-9.733c1.467-3.733 5.6-5.6 9.333-4.267 0.533 0.267 1.2 0.533 1.6 0.933 0.533 0.4 1.2 0.267 1.467-0.133 0.4-0.533 0.267-1.2-0.133-1.467 0 0 0 0-0.133-0.133-4.133-3.2-10-2.133-13.067 2-0.667 0.933-1.067 1.867-1.333 2.933h-0.267c-0.667 0-1.067 0.533-1.067 1.067s0.4 0.933 0.933 1.067c0 0.133 0 0.267 0 0.4s0 0.267 0 0.4c-0.533 0.133-1.067 0.667-0.933 1.2 0 0.533 0.533 0.933 1.067 0.933h0.267c1.333 5.067 6.533 8 11.6 6.533 1.067-0.267 2-0.8 2.933-1.333 0.533-0.267 0.667-0.933 0.267-1.467s-1.067-0.667-1.6-0.267c0-0.133 0 0 0 0z"></path>
</svg>
