<!-- Generated by IcoMoon.io -->
<svg version="1.1" xmlns="http://www.w3.org/2000/svg" width="32" height="32" viewBox="0 0 32 32">
<title>euro</title>
<path d="M30 27.333c-0.4-0.533-1.067-0.667-1.6-0.267-2.267 1.6-5.067 2.533-7.867 2.533-6.4 0-11.867-3.867-13.333-10h13.6c0.667 0 1.2-0.533 1.2-1.2s-0.533-1.067-1.2-1.2h-14c0-0.267 0-0.933 0-1.2 0-0.133 0-0.267 0-0.4h15.467c0.667 0 1.2-0.533 1.2-1.2s-0.533-1.067-1.2-1.2h-15.067c1.467-6.267 6.933-10.667 13.333-10.8 2.8 0 5.6 0.933 7.867 2.533 0.533 0.4 1.2 0.267 1.6-0.267s0.267-1.2-0.267-1.6c0 0 0 0 0 0-7.2-5.067-17.2-3.333-22.267 3.867-1.333 1.867-2.267 4-2.667 6.267h-1.867c-0.667 0-1.2 0.533-1.2 1.2s0.533 1.067 1.2 1.2h1.6c0 0.267 0 0.133 0 0.4s0 0.933 0 1.2h-1.6c-0.667 0-1.2 0.533-1.2 1.2s0.533 1.067 1.2 1.2h1.867c1.467 7.467 8 12.267 15.733 12.267 3.333 0 6.533-1.067 9.2-2.933 0.533-0.4 0.667-1.067 0.267-1.6 0 0 0 0 0 0z"></path>
</svg>
