<svg version="1.1" xmlns="http://www.w3.org/2000/svg" width="32" height="32" viewBox="0 0 32 32">
<title>eye-off</title>
<path d="M31.867 15.333c-0.267-0.4-5.867-11.333-15.867-11.333-1.067 0-2.133 0.133-3.067 0.4-0.8 0.133-1.2 0.8-1.067 1.6 0.133 0.667 0.933 1.067 1.6 0.933 0.8-0.133 1.733-0.267 2.533-0.267 0 0 0 0 0 0 7.2 0 11.867 7.2 13.2 9.333-0.667 1.2-1.467 2.4-2.4 3.333-0.533 0.533-0.4 1.333 0.133 1.867 0.267 0.133 0.533 0.267 0.8 0.267 0.4 0 0.8-0.133 1.067-0.533 1.2-1.333 2.133-2.933 3.067-4.533 0.133-0.133 0.133-0.667 0-1.067zM31.6 29.733l-17.6-17.6-4.933-4.8-0.133-0.267-6.667-6.667c-0.533-0.533-1.333-0.533-1.867 0s-0.533 1.333 0 1.867l5.733 5.733c-2.4 2-4.4 4.533-6 7.333-0.133 0.4-0.267 0.8 0 1.2 0.267 0.533 5.867 11.467 15.867 11.467 2.8 0 5.467-0.8 7.733-2.4v0l6 6c0.267 0.267 0.667 0.4 0.933 0.4s0.667-0.133 0.933-0.4c0.533-0.533 0.533-1.333 0-1.867zM13.333 15.333l3.333 3.333c-0.933 0.267-1.867 0.133-2.667-0.533-0.533-0.533-0.8-1.2-0.8-1.867 0-0.4 0.133-0.667 0.133-0.933zM16 25.333c-7.2 0-11.867-7.2-13.2-9.333 1.333-2.4 3.067-4.4 5.067-6.133l3.467 3.467c-0.533 0.933-0.8 2-0.8 3.067 0 1.467 0.667 2.8 1.733 3.733s2.4 1.467 3.6 1.467c0.933 0 2-0.267 2.8-0.8l3.067 3.067c-1.733 0.933-3.733 1.467-5.733 1.467z"></path>
</svg>
