<svg version="1.1" xmlns="http://www.w3.org/2000/svg" width="32" height="32" viewBox="0 0 32 32">
<title>eye</title>
<path d="M31.6 14.8c-0.267-0.4-6.533-10.533-15.6-10.533s-15.467 10.133-15.733 10.533c-0.4 0.667-0.4 1.6 0 2.267 0.267 0.4 6.533 10.533 15.6 10.533v0c9.067 0 15.333-10.133 15.6-10.533 0.533-0.667 0.533-1.467 0.133-2.267zM16 25.467v0c-8 0-13.867-9.467-13.867-9.467s5.867-9.467 13.867-9.467 13.733 9.467 13.733 9.467-5.867 9.467-13.733 9.467zM16 10.133c-3.2 0-5.867 2.533-5.867 5.733s2.533 5.867 5.733 5.867c3.2 0 5.867-2.533 5.867-5.733 0 0 0 0 0 0 0-3.2-2.533-5.867-5.733-5.867v0zM16 19.6c-2 0-3.6-1.6-3.733-3.6 0-2 1.6-3.6 3.6-3.733 2 0 3.6 1.6 3.733 3.6 0 0 0 0 0 0 0 2.133-1.6 3.733-3.6 3.733v0z"></path>
</svg>
