<!-- Generated by IcoMoon.io -->
<svg version="1.1" xmlns="http://www.w3.org/2000/svg" width="32" height="32" viewBox="0 0 32 32">
<title>filter</title>
<path d="M31.733 1.867c-0.133-0.4-0.4-0.533-0.8-0.533h-30c-0.4 0-0.667 0.133-0.8 0.533-0.267 0.267-0.133 0.667 0.133 1.067l11.467 14v12.933c0 0.4 0.133 0.667 0.4 0.8 0.267 0 0.4 0 0.533 0s0.267 0 0.4-0.133l6.533-3.2c0.267-0.133 0.533-0.533 0.533-0.8v-9.733l11.467-14c0.267-0.267 0.4-0.667 0.133-0.933zM18.4 15.867c-0.133 0.133-0.267 0.4-0.267 0.667v9.467l-4.533 2.267v-11.6c0-0.267-0.133-0.4-0.267-0.667l-10.267-12.8h25.867l-10.533 12.667z"></path>
</svg>
