<!-- Generated by IcoMoon.io -->
<svg version="1.1" xmlns="http://www.w3.org/2000/svg" width="32" height="32" viewBox="0 0 32 32">
<title>fish</title>
<path d="M5.181 4.77l1.508-1.508 1.508 1.508-1.508 1.508-1.508-1.508zM30.4 25.2l1.467-1.467-4-4c-1.467-1.467-3.733-1.867-5.6-0.933 0-1.867-0.267-3.6-0.667-5.067v0c-0.267-0.933-0.533-1.867-0.8-2.667l4.267-4.267-0.933-0.8c-4.8-4.4-10.533-4.533-12.533-4.4-4.933-2-10-1.333-10.267-1.333l-0.8 0.133-0.133 0.8c0 0.133-0.4 2.267 0 5.333 0.533 4 1.867 7.467 4.267 10 0.133 0.267 0.4 0.4 0.667 0.667 3.2 3.2 7.733 4.933 13.6 5.067-0.933 1.867-0.667 4.133 0.933 5.6l4 4 1.467-1.467c1.067-1.067 1.467-2.4 1.333-3.867 1.333 0.133 2.8-0.267 3.733-1.333zM22 6.933l-2 1.867c-0.933-1.733-2.133-3.333-3.6-4.533 2 0.533 3.867 1.333 5.6 2.667zM3.733 10.533c-0.667-1.467-0.933-2.933-1.067-4.133-0.133-1.733-0.133-3.067-0.133-4 1.6-0.133 4.933-0.133 8.267 1.2-0.667 1.733-2.533 5.333-7.067 6.933zM6.4 15.067c-0.667-0.8-1.2-1.6-1.733-2.4 3.467-1.333 5.6-3.6 6.8-5.333 0.667-1.067 1.067-2 1.333-2.667 3.467 2 5.733 5.2 6.8 9.6v0c0.4 1.733 0.667 3.733 0.667 5.867-6.267 0-10.933-1.733-13.867-5.067zM26.4 21.333l2.4 2.4c-0.933 0.933-2.533 0.933-3.467-0.133l-2.4-2.4c0.933-0.933 2.533-0.8 3.467 0.133zM21.333 26.267c-0.933-0.933-0.933-2.533-0.133-3.467l2.4 2.4c0.933 0.933 0.933 2.533 0.133 3.467l-2.4-2.4z"></path>
</svg>
