<!-- Generated by IcoMoon.io -->
<svg version="1.1" xmlns="http://www.w3.org/2000/svg" width="32" height="32" viewBox="0 0 32 32">
<title>flag</title>
<path d="M24.933 11.733l3.6-6.267c0.4-0.667 0.4-1.6 0-2.267s-1.2-0.8-2-0.8h-21.067c0-0.667-0.133-2.4-1.2-2.4-0.667 0-1.2 0.533-1.2 1.2v29.6c0 0.667 0.533 1.2 1.067 1.2s1.2-0.533 1.2-1.067c0 0 0 0 0 0v-9.733h21.067c1.333 0 2.4-1.067 2.4-2.4 0-0.4-0.133-0.667-0.267-1.067l-3.6-6zM5.467 18.667v-14h21.067l-4.667 7.067 4.667 7.067h-21.067z"></path>
</svg>
