<svg version="1.1" xmlns="http://www.w3.org/2000/svg" width="32" height="32" viewBox="0 0 32 32">
<title>folder</title>
<path d="M12.533 4.933c0.667 0 1.333 0.267 1.733 0.8l1.733 2.667c0.4 0.533 1.067 0.8 1.733 0.8h10.133c0.933 0 1.733 0.8 1.733 1.733v14.267c0 0.933-0.8 1.733-1.733 1.733h-23.6c-0.933 0-1.733-0.8-1.733-1.733v-15.6c0-0.267 0.133-0.533 0.267-0.8l1.733-2.933c0.267-0.533 0.933-0.933 1.467-0.933h6.533zM12.533 2.4h-6.533c-1.467 0-2.8 0.8-3.6 2l-1.733 3.067c-0.4 0.667-0.667 1.467-0.667 2.133v15.6c0 2.267 1.867 4.133 4.267 4.133h23.6c2.267 0 4.267-1.867 4.267-4.267v-14.267c-0.133-2.267-2-4.133-4.4-4.133h-9.867l-1.467-2.267c-0.8-1.2-2.267-2-3.867-2v0 0z"></path>
</svg>
