<svg version="1.1" xmlns="http://www.w3.org/2000/svg" width="32" height="32" viewBox="0 0 32 32">
<title>forward</title>
<path d="M22.267 4.8v4.267h-5.733c0 0-6.933 0.8-10.4 4.267-4.133 4.267-3.467 13.867-3.467 13.867s0-12.933 14-12.933h5.733v4.267l6.933-6.8-6.8-6.933zM22.533 2.267c0.8 0 1.6 0.267 2.133 0.8l6.533 6.933c0.933 1.067 0.933 2.667-0.133 3.6 0 0 0 0 0 0l-7.467 6.933c-0.8 0.667-1.867 0.933-2.8 0.533s-1.067-1.333-1.067-2.4v-1.733h-3.067c-11.333 0-11.333 10.133-11.333 10.533-0.133 1.333-1.2 2.4-2.667 2.4h-0.133c-1.467 0-2.533-1.2-2.533-2.667 0-2-0.667-10.933 4.267-15.6 4-4 11.067-4.933 12-5.067 0.133 0 0.133 0 0.267 0h3.2v-1.733c0-1.067 0.8-2 1.733-2.4 0.4-0.133 0.667-0.133 1.067-0.133v0 0z"></path>
</svg>
