<svg version="1.1" xmlns="http://www.w3.org/2000/svg" width="32" height="32" viewBox="0 0 32 32">
<title>frozen</title>
<path d="M5.867 17.2l-1.067 4.133-0.267 0.133-2.133-0.533-0.533 1.867 1.6 0.4-0.4 1.6 1.733 0.533 0.533-2.133 0.267-0.133 4.133 1.067 1.2-4.133 3.2-1.867c0.267 0.267 0.533 0.4 0.933 0.533v3.733l-3.067 2.933 3.067 3.067v0.667l-1.6 1.6 1.333 1.333 1.2-1.2 1.2 1.2 1.333-1.333-1.6-1.6v-0.667l3.067-3.067-3.067-3.067v-3.6c0.267-0.133 0.667-0.267 0.933-0.533l3.2 1.867 1.067 4.133 4.133-1.067 0.267 0.133 0.533 2.133 1.867-0.533-0.4-1.6 1.6-0.4-0.533-1.867-2.133 0.533-0.267-0.133-1.067-4.133-4.133 1.067-3.2-1.867c0-0.133 0-0.4 0-0.533s0-0.4 0-0.533l3.2-1.867 4.133 1.067 1.067-4.133 0.267-0.133 2.133 0.533 0.533-1.867-1.6-0.4 0.4-1.6-1.733-0.267-0.533 2.133-0.267 0.133-4.133-1.067-1.2 4.133-3.2 1.867c-0.267-0.267-0.533-0.4-0.933-0.533v-3.733l3.067-2.933-3.067-3.067v-0.667l1.6-1.6-1.333-1.333-1.2 1.2-1.2-1.2-1.333 1.333 1.6 1.6v0.667l-3.067 3.067 3.067 3.067v3.6c-0.267 0.133-0.667 0.267-0.933 0.533l-3.2-1.867-1.067-4.133-4.133 1.067-0.267-0.133-0.667-2.133-1.733 0.4 0.4 1.6-1.6 0.533 0.533 1.867 2.133-0.533 0.267 0.133 1.067 4.133 4.133-1.067 3.2 1.867c0 0.133 0 0.4 0 0.533s0 0.4 0 0.533l-3.2 1.867-4.133-1.333zM8.533 21.867l-1.867-0.533 0.533-1.867 1.867 0.533-0.533 1.867zM16 26.667l-1.333-1.333 1.333-1.333 1.333 1.333-1.333 1.333zM24.8 19.6l0.533 1.733-1.867 0.533-0.533-1.867 1.867-0.4zM23.467 10.133l1.867 0.533-0.533 1.867-1.867-0.533 0.533-1.867zM16 5.333l1.333 1.333-1.333 1.333-1.333-1.333 1.333-1.333zM16 15.067c0.533 0 0.933 0.4 0.933 0.933s-0.4 0.933-0.933 0.933-0.933-0.4-0.933-0.933c0-0.533 0.4-0.933 0.933-0.933zM7.2 12.4l-0.533-1.733 1.867-0.533 0.533 1.867-1.867 0.4z"></path>
</svg>
