<!-- Generated by IcoMoon.io -->
<svg version="1.1" xmlns="http://www.w3.org/2000/svg" width="32" height="32" viewBox="0 0 32 32">
<title>full-screen</title>
<path d="M5.6 3.067h1.867c0.8 0 1.467-0.8 1.467-1.6s-0.667-1.467-1.467-1.467h-6c-0.8 0-1.467 0.667-1.467 1.6v6.267c0 0.667 0.667 1.467 1.467 1.467s1.467-0.533 1.6-1.467c0 0 0-0.133 0-0.133v-2.933l6.267 6.667c0.533 0.533 1.467 0.533 2 0 0.667-0.667 0.667-1.6 0-2.133l-5.733-6.267zM26.267 3.067h-1.867c-0.8 0-1.6-0.8-1.467-1.6 0-0.8 0.667-1.467 1.467-1.467h6c0.8 0 1.467 0.667 1.467 1.6 0 0 0 0 0 0v6.267c0 0.8-0.667 1.467-1.467 1.6-0.8 0-1.467-0.667-1.6-1.467 0 0 0-0.133 0-0.133v-3.067l-6.267 6.667c-0.533 0.533-1.6 0.667-2.133 0-0.533-0.533-0.667-1.6 0-2.133 0 0 0 0 0 0l5.867-6.267zM5.6 28.8h1.867c0.8 0 1.467 0.8 1.467 1.6s-0.667 1.467-1.467 1.467h-6c-0.8 0-1.467-0.667-1.467-1.6v-6.267c0-0.8 0.533-1.467 1.467-1.6 0.8 0 1.467 0.533 1.6 1.467 0 0 0 0.133 0 0.133v2.933l6.267-6.667c0.533-0.533 1.6-0.533 2.133 0 0.533 0.8 0.533 1.733-0.133 2.4l-5.733 6.133zM26.267 28.8h-1.867c-0.8 0-1.6 0.8-1.467 1.6 0 0.8 0.667 1.467 1.467 1.467h6c0.8 0 1.467-0.667 1.467-1.6 0 0 0 0 0 0v-6.267c0-0.8-0.667-1.467-1.467-1.6-0.8 0-1.467 0.667-1.6 1.467 0 0 0 0.133 0 0.133v3.067l-6.267-6.667c-0.533-0.533-1.6-0.667-2.133 0-0.533 0.533-0.667 1.6 0 2.133 0 0 0 0 0 0l5.867 6.267z"></path>
</svg>
