<svg version="1.1" xmlns="http://www.w3.org/2000/svg" width="32" height="32" viewBox="0 0 32 32">
<title>gift</title>
<path d="M28.8 7.2c0.667-0.267 1.067-1.067 0.933-1.733 0-1.867-1.333-3.867-4.933-3.867-1.333 0-2.267-0.267-4.8 1.6l0.933-1.333c0.4-0.533 0.267-1.333-0.267-1.733s-1.333-0.267-1.6 0.267c0 0 0 0 0 0l-3.067 4.533-2.133-4.133c-0.267-0.533-1.067-0.8-1.6-0.4 0 0 0 0 0 0-0.667 0.133-0.8 0.933-0.533 1.467l0.533 0.933c-1.6-0.667-3.333-1.067-5.067-1.067-1.2 0-2.4 0.267-3.467 1.067-0.933 0.533-1.467 1.6-1.6 2.667 0 0.667 0.4 1.467 1.067 1.733-1.067 0.4-2.4 1.2-2.4 2.267v3.067c0 1.333 1.067 2.533 2.4 2.667v14.267c0 1.333 1.067 2.4 2.4 2.4h20.8c1.333 0 2.4-1.067 2.4-2.4v-14.267c1.333-0.133 2.4-1.333 2.4-2.667v-3.067c-0.133-1.067-1.467-1.867-2.4-2.267zM27.333 5.467c0.133 0.933-0.533 1.6-1.467 1.733-0.133 0-0.267 0-0.4 0h-8c1.867-2 4.4-3.067 7.2-3.2 2.133 0.133 2.667 0.933 2.667 1.467zM3.2 9.6h11.2v3.2h-11.2v-3.2zM7.2 4.133c2.667 0.133 5.333 1.2 7.2 3.2h-8c-0.933 0-1.733-0.667-1.867-1.6 0 0 0-0.133 0-0.133 0-0.667 0.533-1.467 2.667-1.467zM5.6 15.2h8.8v14.267h-8.8v-14.267zM26.4 29.6h-9.6v-14.4h9.6v14.4zM28.8 12.933h-12v-3.333h12v3.333z"></path>
</svg>
