<svg version="1.1" xmlns="http://www.w3.org/2000/svg" width="32" height="32" viewBox="0 0 32 32">
<title>globe</title>
<path d="M16 0.133c-8.8 0-16 7.067-16 15.867s7.2 16 16 16 16-7.2 16-16c-0.133-8.8-7.2-15.867-16-15.867zM29.733 15.333h-5.067c-0.267-4.8-2.267-9.6-5.6-12.667 6 1.333 10.267 6.533 10.667 12.667zM14.533 3.733v11.467h-5.067c0.133-4.4 2-8.933 5.067-11.467zM14.533 17.467v10.667c-2.8-2.533-4.667-6.667-5.067-10.667h5.067zM16.667 28.533v-11.067h5.867c-0.533 4.133-2.667 8.533-5.867 11.067zM16.667 15.333v-11.867c3.467 2.533 5.6 7.2 5.867 11.867h-5.867zM12.4 2.667c-3.2 3.067-4.933 7.733-5.2 12.533h-4.933c0.267-5.867 4.4-10.933 10.133-12.533zM2.267 17.467h4.933c0.4 4.4 2.267 8.933 5.333 11.867-5.467-1.333-9.6-6.133-10.267-11.867zM18.8 29.467c3.333-3.2 5.333-7.467 5.733-12h5.067c-0.533 6-4.933 10.8-10.8 12z"></path>
</svg>
