<svg version="1.1" xmlns="http://www.w3.org/2000/svg" width="32" height="32" viewBox="0 0 32 32">
<title>google</title>
<path d="M32 16c0 1.2-0.133 2.267-0.4 3.333-0.8 3.733-2.8 6.933-5.6 9.2-2.667 2.133-6.267 3.467-10 3.467-6.133 0-11.333-3.467-14.133-8.4-1.2-2.267-1.867-4.8-1.867-7.6 0-2.667 0.667-5.2 1.733-7.333 2.667-5.2 8.133-8.667 14.267-8.667 3.867 0 7.467 1.333 10.267 3.733l-5.2 4.267c-1.467-0.933-3.2-1.467-5.067-1.467-4.133 0-7.733 2.667-8.933 6.4v0c-0.4 0.933-0.533 2-0.533 3.067 0 1.2 0.267 2.267 0.667 3.333 1.333 3.6 4.8 6.133 8.933 6.133 1.733 0 3.333-0.533 4.8-1.333 1.867-1.067 3.333-2.8 4.133-4.933h-8.533v-6.133h15.333c0 0.933 0.133 1.867 0.133 2.933z"></path>
</svg>
