<!-- Generated by IcoMoon.io -->
<svg version="1.1" xmlns="http://www.w3.org/2000/svg" width="32" height="32" viewBox="0 0 32 32">
<title>ham-leg</title>
<path d="M24.41 7.614c0.885 0.885 1.307 1.898 0.943 2.263s-1.378-0.058-2.263-0.943c-0.885-0.885-1.307-1.898-0.943-2.263s1.378 0.058 2.263 0.943zM31.333 10.8c-0.8-1.867-2.267-4-4.267-5.867-1.867-1.867-4-3.333-5.867-4.267-2.133-0.933-3.867-0.933-4.8 0v0l-3.867 3.867c-3.6 3.6-4.4 8.8-2.4 12.8l-3.467 3.6c-1.6-1.467-4-1.333-5.467 0.133-0.8 0.667-1.2 1.733-1.2 2.8s0.4 2 1.2 2.8c0.8 0.8 2 1.2 3.067 1.2 0 0.133 0 0.267 0 0.267 0 1.067 0.4 2 1.2 2.8 0.667 0.667 1.733 1.067 2.667 1.067s2-0.4 2.8-1.2c0.8-0.8 1.2-1.733 1.2-2.8 0-0.933-0.4-2-1.067-2.667l3.6-3.6c1.467 0.667 2.933 1.067 4.667 1.067 0.133 0 0.267 0 0.4 0 2.933-0.133 5.6-1.333 7.733-3.467l3.733-3.733c0 0 0 0 0 0s0 0 0 0l0.133-0.133c0.933-0.933 0.933-2.533 0-4.667zM8.133 25.733l1.067 0.667c0.133 0 0.267 0.133 0.4 0.267 0.4 0.4 0.667 0.933 0.667 1.467s-0.267 1.067-0.667 1.467c-0.8 0.8-2.133 0.8-2.933 0-0.4-0.4-0.667-0.933-0.667-1.467s0.267-1.067 0.667-1.467l-1.333-1.333c-0.8 0.8-2.133 0.8-2.933 0-0.4-0.4-0.667-0.933-0.667-1.467s0.267-1.067 0.667-1.467c0.8-0.8 2.133-0.8 2.933 0 0.133 0.133 0.267 0.267 0.267 0.4l0.667 1.067 4.8-4.8c0.4 0.267 0.667 0.667 0.933 0.933v0c0.267 0.267 0.667 0.533 0.933 0.8l-4.8 4.933zM26.133 18.133c-1.733 1.733-4.133 2.8-6.533 2.933s-4.667-0.8-6.267-2.4c-3.333-3.333-3.2-9.067 0.533-12.8l1.867-1.867c0.133 0.533 0.267 1.067 0.533 1.6 0.8 1.867 2.267 4 4.267 5.867 1.867 1.867 4 3.333 5.867 4.267 0.533 0.267 1.067 0.4 1.6 0.533l-1.867 1.867zM29.867 14.4c-0.4 0.4-1.467 0.267-2.8-0.267-1.733-0.8-3.6-2.133-5.333-3.867s-3.067-3.6-3.867-5.333c-0.533-1.333-0.667-2.4-0.267-2.8 0.133-0.133 0.4-0.267 0.8-0.267 0.533 0 1.2 0.133 2 0.533 1.733 0.667 3.6 2.133 5.333 3.867s3.067 3.6 3.867 5.333c0.533 1.2 0.667 2.4 0.267 2.8z"></path>
</svg>
