<!-- Generated by IcoMoon.io -->
<svg version="1.1" xmlns="http://www.w3.org/2000/svg" width="32" height="32" viewBox="0 0 32 32">
<title>hand-wash</title>
<path d="M31.467 7.2c-0.4 0-0.8 0.133-0.8 0.533l-0.8 4.533c-0.4-0.133-0.667-0.533-1.067-0.933-0.533-0.533-1.067-1.2-2.133-1.467-0.133-1.6-0.667-2.933-1.867-4.133l-2.267-2.133c-1.2-1.2-2.933-1.867-4.8-1.867l-8 0.4c-0.133 0.133-0.4 0.4-0.4 0.667-0.267 0.8 0 1.6 0.4 2.4 0.533 0.667 1.2 1.2 2.133 1.2l1.6 0.267c0.267 0 0.533 0.267 0.533 0.533 0 0.133 0.133 0.4-0.133 0.667l-4.133 4.133c-0.133-0.133-0.4-0.4-0.533-0.533-0.667-0.8-1.467-1.6-2.933-1.6s-2.267 0.8-2.933 1.6c-0.4 0.4-0.667 0.667-1.067 0.933l-0.933-4.667c0-0.4-0.4-0.533-0.8-0.533-0.267 0.133-0.533 0.4-0.4 0.8l3.6 19.467c0.267 1.333 1.333 2.267 2.667 2.267h19.333c1.2 0 2.4-0.933 2.667-2.267l3.467-19.467c0.133-0.4-0.133-0.667-0.4-0.8zM14.8 8.8c0.533-0.533 0.8-1.333 0.533-2.133s-0.933-1.333-1.733-1.333l-1.6-0.267c-0.4 0-0.933-0.267-1.2-0.667-0.133-0.267-0.267-0.533-0.267-0.8l7.333-0.4c1.333-0.133 2.8 0.4 3.733 1.467l2.267 2.133c0.8 0.8 1.333 1.867 1.467 3.067-1.2 0.133-1.867 0.933-2.4 1.467-0.533 0.667-1.067 1.067-2 1.067s-1.333-0.533-2-1.067c-0.667-0.667-1.467-1.467-2.933-1.467s-2.267 0.8-2.933 1.6c-0.533 0.533-0.933 1.067-1.867 1.067 0 0 0 0 0 0l3.6-3.733zM17.867 16.667c-0.267-0.267-0.667-0.267-0.933 0l-4.933 4.933c-0.267 0.267-0.8 0.267-1.067 0-0.133-0.133-0.267-0.267-0.267-0.533 0-0.133 0.133-0.4 0.267-0.533l4.933-4.933c0.267-0.267 0.267-0.667 0-0.933s-0.667-0.267-0.933 0l-4.933 4.933c0 0 0 0 0 0l-0.933 0.933c-0.267 0.267-0.8 0.267-1.067 0-0.133-0.133-0.267-0.267-0.267-0.533 0-0.133 0.133-0.4 0.267-0.533l4.933-4.8c0.267-0.267 0.267-0.667 0-0.933-0.133-0.133-0.267-0.133-0.4-0.133 0.667-0.267 1.2-0.8 1.6-1.333 0.533-0.533 0.933-1.067 1.867-1.067s1.333 0.533 2 1.067c0.667 0.667 1.467 1.6 2.933 1.6s2.267-0.8 2.933-1.6c0.4-0.533 0.8-0.933 1.467-1.067-0.133 0.933-0.667 1.733-1.333 2.533l-8 7.867c-0.267 0.267-0.8 0.267-1.067 0-0.267-0.133-0.267-0.267-0.267-0.533 0-0.133 0.133-0.4 0.267-0.533l2.933-2.933c0.267-0.267 0.267-0.667 0-0.933zM10 13.6c0.4 0.133 0.667 0.267 1.2 0.267 0.267 0 0.533 0 0.8-0.133 0 0 0 0 0 0l-4 3.867c-0.267 0.267-0.8 0.267-1.067 0-0.133 0-0.267-0.267-0.267-0.4s0.133-0.4 0.267-0.533l3.067-3.067zM26.933 27.2c-0.133 0.667-0.667 1.2-1.333 1.2h-19.2c-0.667 0-1.2-0.533-1.333-1.2l-2.533-13.6c0.8-0.267 1.333-0.8 1.867-1.333s0.933-1.067 1.867-1.067 1.333 0.533 2 1.067c0.133 0.133 0.4 0.4 0.667 0.667l-2.8 2.8c-0.533 0.4-0.8 0.933-0.8 1.467s0.267 1.067 0.667 1.467c0.133 0.133 0.4 0.4 0.667 0.4-0.133 0.267-0.267 0.667-0.267 1.067 0 0.533 0.267 1.067 0.667 1.467 0.667 0.667 1.733 0.8 2.533 0.267 0.133 0.267 0.267 0.533 0.4 0.667 0.4 0.4 0.933 0.533 1.467 0.533s1.067-0.133 1.467-0.533l0.667-0.667c0.133 0.267 0.267 0.4 0.4 0.667 0.8 0.8 2.133 0.8 2.933 0l8-7.867c0.933-0.933 1.467-2.133 1.733-3.333 0.4 0.133 0.8 0.533 1.2 0.933 0.533 0.533 1.067 1.067 1.867 1.333l-2.8 13.6z"></path>
</svg>
