<svg version="1.1" xmlns="http://www.w3.org/2000/svg" width="32" height="32" viewBox="0 0 32 32">
<title>heart-circle</title>
<path d="M16 0c-8.8 0-16 7.2-16 16s7.2 16 16 16 16-7.2 16-16c0-8.8-7.2-16-16-16zM16 29.867c-7.6 0-13.867-6.267-13.867-13.867s6.267-13.867 13.867-13.867 13.867 6.267 13.867 13.867-6.267 13.867-13.867 13.867v0zM18.667 11.067c-0.933 0.133-1.867 0.533-2.667 1.067-0.8-0.667-1.733-1.067-2.667-1.067-1.467 0-2.8 0.667-3.467 1.867-0.667 1.067-0.8 2.533-0.133 3.733 0.533 1.2 4.133 4.133 5.733 5.467 0.4 0.267 0.933 0.267 1.333 0 1.467-1.2 5.067-4.267 5.733-5.467 0.533-1.2 0.533-2.667-0.133-3.733-0.933-1.2-2.267-1.867-3.733-1.867zM20.4 15.733c-0.267 0.533-2.4 2.4-4.4 4.133-1.6-1.2-3.067-2.667-4.4-4.133-0.267-0.533-0.267-1.067 0.133-1.6 0.267-0.533 0.933-0.933 1.6-0.8 0.667 0.267 1.333 0.667 2 1.067 0.4 0.4 1.067 0.4 1.467 0 0.533-0.533 1.2-0.933 2-1.067 0.667 0 1.333 0.267 1.6 0.8s0.267 1.067 0 1.6v0z"></path>
</svg>
