<svg version="1.1" xmlns="http://www.w3.org/2000/svg" width="32" height="32" viewBox="0 0 32 32">
<title>help</title>
<path d="M16 0c-8.8 0-16 7.2-16 16s7.2 16 16 16 16-7.2 16-16c0-8.8-7.2-16-16-16zM24.933 5.467l-3.6 3.6c0 0 0 0 0 0-3.067-2.4-7.6-2.4-10.667 0 0 0 0 0 0 0l-3.6-3.6c5.067-4.4 12.8-4.4 17.867 0zM16 22.533c-3.6 0-6.533-2.933-6.533-6.533s2.933-6.533 6.533-6.533 6.533 2.933 6.533 6.533-2.933 6.533-6.533 6.533v0zM2.133 16c0-3.333 1.2-6.4 3.333-8.933l3.6 3.6c-2.4 3.2-2.4 7.6 0 10.667v0l-3.6 3.6c-2.133-2.533-3.333-5.6-3.333-8.933zM7.067 26.533l3.6-3.6c0 0 0 0 0 0 3.2 2.4 7.6 2.4 10.667 0 0 0 0 0 0 0l3.6 3.6c-5.067 4.4-12.8 4.4-17.867 0zM26.533 24.933l-3.6-3.6c2.4-3.2 2.4-7.6 0-10.667v0l3.6-3.6c4.4 5.067 4.4 12.8 0 17.867z"></path>
</svg>
