<!-- Generated by IcoMoon.io -->
<svg version="1.1" xmlns="http://www.w3.org/2000/svg" width="32" height="32" viewBox="0 0 32 32">
<title>home</title>
<path d="M31.067 13.2l-13.733-11.733c-0.8-0.667-2-0.667-2.8 0l-13.733 11.733c-0.933 0.8-1.067 2.133-0.267 3.067 0.4 0.4 0.933 0.8 1.6 0.8v11.733c0 1.2 0.933 2.133 2.133 2.267h23.333c1.2 0 2.133-0.933 2.133-2.267v-11.733c1.2 0 2.133-1.067 2.133-2.267 0-0.667-0.267-1.2-0.8-1.6zM15.2 28.8h-1.467v-6.533h4.4v6.533h-2.933zM27.6 14.933v13.867h-7.333v-6.533c0-1.2-0.933-2.133-2.133-2.133 0 0 0 0 0 0h-4.4c-1.2 0-2.133 0.933-2.133 2.133 0 0 0 0 0 0v6.533h-7.333v-13.867h-2.133l13.867-11.733 13.733 11.733h-2.133z"></path>
</svg>
