<!-- Generated by IcoMoon.io -->
<svg version="1.1" xmlns="http://www.w3.org/2000/svg" width="32" height="32" viewBox="0 0 32 32">
<title>ice-cream</title>
<path d="M16.133 0c-4.4 0-8.133 3.6-8.133 8.133v16.933h5.333v6.933h5.733v-6.933h5.2v-16.933c0-4.533-3.6-8.133-8.133-8.133zM17.067 30.133v0h-2v-5.067h2v5.067zM22.4 23.2h-12.533v-4.133h12.533v4.133zM22.4 17.2h-12.533v-9.067c0-3.467 2.8-6.267 6.267-6.267s6.267 2.8 6.267 6.267v9.067zM12.133 13.6h1.867v1.867h-1.867v-1.867zM18.267 12.667h1.867v1.867h-1.867v-1.867zM14.4 9.6h1.867v1.867h-1.867v-1.867zM18.533 6.267h1.867v1.867h-1.867v-1.867zM12.4 5.333h1.867v1.867h-1.867v-1.867z"></path>
</svg>
