<!-- Generated by IcoMoon.io -->
<svg version="1.1" xmlns="http://www.w3.org/2000/svg" width="32" height="32" viewBox="0 0 32 32">
<title>idea</title>
<path d="M16 3.467c0.533 0 1.067-0.4 1.067-1.067v-1.333c0-0.667-0.533-1.067-1.067-1.067s-1.067 0.4-1.067 1.067v1.333c0 0.533 0.533 1.067 1.067 1.067zM30.267 12.933h-1.333c-0.533 0-1.067 0.4-1.067 1.067 0 0.533 0.4 1.067 1.067 1.067h1.333c0.533 0 1.067-0.4 1.067-1.067s-0.533-1.067-1.067-1.067zM4.133 14c0-0.533-0.4-1.067-1.067-1.067h-1.333c-0.533 0-1.067 0.4-1.067 1.067 0 0.533 0.4 1.067 1.067 1.067h1.333c0.533-0.133 1.067-0.533 1.067-1.067zM25.867 16.4c0-5.333-4.4-9.6-9.733-9.6-5.2 0-9.333 4.133-9.333 9.2 0 0 0 0.133 0 0.133-0.133 3.467 1.733 6.8 4.8 8.533-0.133 0.267-0.133 0.533-0.133 0.933v2.133c0 2.4 1.6 4.267 3.867 4.267h1.333c2.267 0 4.133-1.867 4.267-4.133v-2c0-0.4-0.133-0.8-0.267-1.067 3.2-1.733 5.2-4.933 5.2-8.4zM19.067 25.867v0.667h-3.6c-0.533 0-1.067 0.4-1.067 1.067 0 0.533 0.4 1.067 1.067 1.067h3.467c-0.4 0.8-1.2 1.333-2 1.333h-1.333c-1.2 0-1.867-1.067-1.867-2.133v-2.133l2.533 0.267h2.8zM16.133 23.867v0c-4.133-0.133-7.467-3.467-7.333-7.6 0 0 0 0 0 0 0-4 3.2-7.333 7.2-7.467 0.133 0 0.133 0 0.267 0 4.133 0 7.467 3.2 7.6 7.467 0 4.133-3.2 7.467-7.467 7.6-0.133 0-0.133 0-0.267 0v0zM16.133 10.533c-0.533 0-1.067 0.4-1.067 1.067 0 0.533 0.4 1.067 1.067 1.067 2.133 0 3.733 1.6 3.867 3.733 0 0.533 0.533 1.067 1.067 1.067s0.933-0.4 1.067-1.067c-0.133-3.333-2.667-5.867-6-5.867v0zM25.733 3.867l-1.067 1.067c-0.4 0.4-0.4 1.067 0 1.6 0.4 0.4 1.067 0.4 1.467 0 0 0 0 0 0 0l1.067-1.2c0.4-0.4 0.4-1.067 0-1.6-0.4-0.267-1.067-0.267-1.467 0.133 0 0 0 0 0 0v0zM5.333 3.733l1.067 1.067c0.4 0.4 0.533 1.2 0 1.6-0.4 0.533-1.067 0.533-1.467 0.133 0 0 0 0 0 0l-1.2-1.2c-0.4-0.4-0.4-1.2 0-1.6s1.2-0.4 1.6 0v0 0z"></path>
</svg>
