<svg version="1.1" xmlns="http://www.w3.org/2000/svg" width="32" height="32" viewBox="0 0 32 32">
<title>image</title>
<path d="M29.067 7.2l-6.133-6.133c-0.4-0.667-1.067-1.067-1.867-1.067h-16.667c-1.2 0-2.267 0.933-2.267 2.133v27.6c0 1.2 0.933 2.133 2.133 2.133h23.2c1.067 0.133 2-0.533 2.133-1.6 0-0.133 0-0.4 0-0.533v-20.267c0.267-0.8 0-1.6-0.533-2.267zM23.2 4.4l2.8 2.8h-2.8v-2.8zM21.067 2.133c0 0 0 0.133 0 0v0l0.133 7.333h6.533v7.733l-3.867-2.133c-0.4-0.267-1.067-0.133-1.333 0.267l-6 6.667-5.2-2c-0.4-0.133-0.8 0-1.2 0.267l-5.733 5.733v-23.867h16.667zM4.4 29.733v-0.667c0 0 0 0 0 0l6.8-6.8 5.2 1.867c0.4 0.133 0.933 0 1.2-0.267l6-6.533 4.133 2.4v10h-23.333zM10.933 15.2c2 0 3.6-1.6 3.6-3.6s-1.6-3.6-3.6-3.6-3.6 1.6-3.6 3.6 1.6 3.6 3.6 3.6zM10.933 10.133c0.8 0 1.467 0.667 1.467 1.467s-0.667 1.467-1.467 1.467-1.467-0.667-1.467-1.467 0.667-1.467 1.467-1.467z"></path>
</svg>
