<!-- Generated by IcoMoon.io -->
<svg version="1.1" xmlns="http://www.w3.org/2000/svg" width="32" height="32" viewBox="0 0 32 32">
<title>increase</title>
<path d="M31.2 18.533c0 0.667-0.533 1.333-1.333 1.333h-12.533v7.733l1.333-1.6c0 0 0 0 0 0 0.533-0.533 1.333-0.4 1.733 0 0.533 0.533 0.533 1.333 0 1.867l-3.6 3.733c-0.533 0.533-1.333 0.4-1.733 0l-3.6-3.6c-0.267-0.267-0.4-0.533-0.4-0.933s0.133-0.667 0.4-0.933c0 0 0 0 0 0 0.533-0.533 1.333-0.4 1.733 0l1.6 1.6v-7.733h-12.667c-0.667 0-1.333-0.667-1.333-1.333 0-0.8 0.133-1.2 0.8-1.2h27.733c0.8-0.133 1.867 0.4 1.867 1.067zM0.8 13.467c0-0.667 0.533-1.333 1.333-1.333h12.533v-7.733l-1.333 1.6c0 0 0 0 0 0-0.533 0.533-1.333 0.4-1.733 0-0.533-0.667-0.533-1.467 0-2l3.6-3.733c0.533-0.533 1.333-0.4 1.733 0l3.6 3.733c0.267 0.267 0.4 0.533 0.4 0.933s-0.133 0.667-0.4 0.933c0 0 0 0 0 0-0.533 0.533-1.333 0.4-1.733 0l-1.6-1.6v7.733h12.667c0.667 0 1.333 0.667 1.333 1.333 0 0.8-0.133 1.2-0.8 1.2h-27.867c-0.667 0.133-1.733-0.4-1.733-1.067z"></path>
</svg>
