<!-- Generated by IcoMoon.io -->
<svg version="1.1" xmlns="http://www.w3.org/2000/svg" width="32" height="32" viewBox="0 0 32 32">
<title>instagram</title>
<path d="M23.6 2.267c3.333 0 6.133 2.667 6.133 6.133v15.2c0 3.333-2.667 6.133-6.133 6.133h-15.2c-3.333 0-6.133-2.667-6.133-6.133v-15.2c0-3.333 2.667-6.133 6.133-6.133h15.2zM23.6 0h-15.2c-4.667 0-8.4 3.733-8.4 8.4v15.2c0 4.667 3.733 8.4 8.4 8.4h15.2c4.667 0 8.4-3.733 8.4-8.4v-15.2c0-4.667-3.733-8.4-8.4-8.4v0zM16 9.2c3.733 0 6.8 3.067 6.8 6.8s-3.067 6.8-6.8 6.8-6.8-3.067-6.8-6.8 3.067-6.8 6.8-6.8v0zM16 6.8c-5.067 0-9.2 4.133-9.2 9.2s4.133 9.2 9.2 9.2 9.2-4.133 9.2-9.2c0-5.067-4.133-9.2-9.2-9.2v0zM26.267 6.533c0 0.8-0.667 1.467-1.467 1.467s-1.467-0.667-1.467-1.467 0.667-1.467 1.467-1.467 1.467 0.533 1.467 1.467z"></path>
</svg>
