<!-- Generated by IcoMoon.io -->
<svg version="1.1" xmlns="http://www.w3.org/2000/svg" width="32" height="32" viewBox="0 0 32 32">
<title>ironing</title>
<path d="M31.867 25.867l-2.4-18.133c-0.133-1.333-1.333-2.267-2.667-2.267h-15.467c-0.4-0.133-0.667 0.267-0.667 0.533s0.267 0.667 0.667 0.667h15.467c0.667 0 1.2 0.533 1.333 1.2l0.933 6.8h-17.733c-6.267 0-11.333 5.067-11.333 11.333 0 0.267 0.4 0.667 0.667 0.667h30.533c0.133 0 0.4-0.133 0.533-0.267s0.133-0.4 0.133-0.533zM1.467 25.333c0.4-5.2 4.667-9.333 9.867-9.333h17.867l1.2 9.333h-28.933zM17.333 20.667c0 0.736-0.597 1.333-1.333 1.333s-1.333-0.597-1.333-1.333c0-0.736 0.597-1.333 1.333-1.333s1.333 0.597 1.333 1.333z"></path>
</svg>
