<svg version="1.1" xmlns="http://www.w3.org/2000/svg" width="32" height="32" viewBox="0 0 32 32">
<title>jam</title>
<path d="M24.133 6.4h0.8v-6.4h-17.867v6.4h0.8l-3.067 5.333v20.267h22.4v-20.267l-3.067-5.333zM8.933 1.867h14.133v2.533h-14.133v-2.533zM10 6.4h12l2.667 4.667h-17.333l2.667-4.667zM25.333 30.133h-18.667v-4.267h18.667v4.267zM25.333 24h-18.667v-11.067h18.667v11.067zM17.067 16.267c0.133-0.267 0.4-0.533 0.8-0.667l-0.667-1.733c-1.333 0.4-1.867 1.467-2.133 2.4-1.467 0.4-2.533 1.733-2.533 3.333 0 1.867 1.467 3.467 3.467 3.467s3.467-1.467 3.467-3.467c0-1.6-1.067-2.8-2.4-3.333zM16 21.067c-0.8 0-1.467-0.667-1.467-1.467s0.667-1.467 1.467-1.467 1.467 0.667 1.467 1.467-0.667 1.467-1.467 1.467z"></path>
</svg>
