<svg version="1.1" xmlns="http://www.w3.org/2000/svg" width="32" height="32" viewBox="0 0 32 32">
<title>joystick</title>
<path d="M22.667 17.067c0.667 0 1.067-0.533 1.067-1.067 0-0.667-0.533-1.067-1.067-1.067-0.667 0-1.067 0.533-1.067 1.067 0 0 0 0 0 0 0 0.667 0.533 1.067 1.067 1.067zM22.667 19.333c-0.667 0-1.067 0.533-1.067 1.067 0 0.667 0.533 1.067 1.067 1.067 0.667 0 1.067-0.533 1.067-1.067 0.133-0.533-0.4-1.067-1.067-1.067zM24.933 17.067c-0.667 0-1.067 0.533-1.067 1.067s0.533 1.067 1.067 1.067c0.667 0 1.067-0.533 1.067-1.067s-0.4-1.067-1.067-1.067zM20.533 17.067c-0.667 0-1.067 0.533-1.067 1.067s0.533 1.067 1.067 1.067 1.067-0.533 1.067-1.067-0.533-1.067-1.067-1.067zM29.6 16c0-0.133-0.133-0.267-0.133-0.533l-0.4-1.6c-1.2-2.267-3.467-3.6-6-3.467-1.2-0.133-2.533 0-3.733 0.4 0-1.067-0.8-2-1.867-2.133 0-0.667 1.2-1.867 4.8-1.867 2.4 0 4-0.667 4.933-2 0.8-1.2 0.933-2.667 0.533-4-0.133-0.533-0.8-0.933-1.333-0.667 0 0 0 0 0 0-0.533 0.267-0.933 0.8-0.667 1.467 0.133 0.667 0.133 1.333-0.267 2-0.667 0.8-2.133 1.067-3.2 1.067-6.933 0-7.067 4-7.067 4.133 0 0 0 0 0 0-1.067 0.133-1.867 1.067-1.867 2.133-1.067-0.4-2.133-0.667-3.333-0.533-3.333-0.133-6.267 2.267-6.933 5.467l-3.067 10.133v0.667c0 2.933 2.267 5.2 5.2 5.333 0.933 0 1.867-0.267 2.667-0.8l0.133 0.133 1.067-1.2 4.933-5.6h4.667l4.133 5.867c0.933 1.067 2.4 1.733 4 1.6 2.933 0 5.2-2.4 5.2-5.333 0-0.267 0-0.4-2.4-10.667zM15.6 12.267v-1.333h1.467v1.333c0 0 0 0 0.133 0-0.267 0.267-0.533 0.533-0.667 0.8h-0.267c-0.267-0.267-0.533-0.533-0.667-0.8 0 0 0 0 0 0zM26.8 29.733c-0.8 0.133-1.6-0.133-2.267-0.8l-5.2-6.667h-6l-5.733 6.267c-0.533 0.667-1.467 1.067-2.267 1.067-1.6 0-2.933-1.333-2.933-3.067l2.933-10.133c0.267-2.267 2.133-3.867 4.4-3.733 2.133 0 4.533 1.067 5.2 2.933h2.933c0.667-2 2.933-2.933 5.2-2.933 4.133 0 4.533 4.667 4.4 3.867 0 0 2.267 10.133 2.267 10.267 0 1.6-1.333 2.933-2.933 2.933 0 0 0 0 0 0zM11.867 16.933h-1.467v-1.467c0-0.667-0.533-1.067-1.067-1.067s-1.067 0.533-1.067 1.067v1.467h-1.6c-0.667 0-1.067 0.533-1.067 1.067 0 0.667 0.533 1.067 1.067 1.067v0h1.467v1.467c0 0.667 0.533 1.067 1.067 1.067s1.067-0.533 1.067-1.067v-1.467h1.467c0.667 0 1.067-0.533 1.067-1.067 0.267-0.533-0.267-1.067-0.933-1.067z"></path>
</svg>
