<svg version="1.1" xmlns="http://www.w3.org/2000/svg" width="32" height="32" viewBox="0 0 32 32">
<title>juice</title>
<path d="M22 16.933c0.133-0.667 0.667-1.6 1.733-2.133l-0.8-1.733c-1.867 0.933-2.533 2.533-2.667 3.6-0.267 0-0.667 0-0.933 0.133v-2.267l-2.533-5.6v-3.733h1.067v-5.2h-11.6v5.2h1.067v3.733l-2.533 5.6v17.467h14.267v-0.133c0.4 0 0.8 0.133 1.2 0.133 4.267 0 7.6-3.467 7.6-7.6 0.133-3.733-2.533-6.8-5.867-7.467zM8.133 1.867h7.6v1.467h-7.6v-1.467zM14.667 5.2v2.933h-5.467v-2.933h5.467zM6.8 14.667l2.133-4.667h6.133l2.133 4.667h-10.4zM6.667 16.533h10.533v0.8c-2.4 1.067-4.133 3.333-4.533 6.133h-6v-6.933zM6.667 30.133v-4.8h6c0.267 1.867 1.2 3.6 2.533 4.8h-8.533zM20.267 30.133c-0.4 0-0.8 0-1.2-0.133-0.667-0.133-1.333-0.4-1.867-0.8-1.333-0.8-2.267-2.267-2.667-3.867 0-0.267-0.133-0.667-0.133-0.933s0-0.667 0.133-0.933c0.267-1.6 1.2-3.067 2.667-4 0.533-0.4 1.2-0.667 1.867-0.8 0.4-0.133 0.8-0.133 1.2-0.133 3.2 0 5.733 2.533 5.733 5.733s-2.533 5.867-5.733 5.867zM17.2 25.467h-0.4v1.867h1.733v-1.867zM19.333 26.8h1.867v1.867h-1.867v-1.867z"></path>
</svg>
