<!-- Generated by IcoMoon.io -->
<svg version="1.1" xmlns="http://www.w3.org/2000/svg" width="32" height="32" viewBox="0 0 32 32">
<title>key</title>
<path d="M21.067 6c-2.667 0-4.8 2.133-4.8 4.8s2.133 4.8 4.8 4.8c2.667 0 4.8-2.133 4.8-4.8s-2.133-4.8-4.8-4.8zM21.067 13.2c-1.333 0-2.4-1.067-2.4-2.4s1.067-2.4 2.4-2.4c1.333 0 2.4 1.067 2.4 2.4s-1.067 2.4-2.4 2.4c0 0 0 0 0 0zM21.467 0.267c-5.733 0-10.533 4.667-10.533 10.4 0 1.067 0.133 2 0.4 2.933l-10.667 10.533c-0.933 0.933-0.933 2.4 0 3.333 0 0 0 0 0 0l3.333 3.467c0.933 0.933 2.533 0.933 3.467 0l2.267-2.267 0.667 0.667c0.933 0.933 2.533 0.933 3.467 0l2.4-2.4c0.933-0.933 0.933-2.4 0-3.333 0 0 0 0 0 0l-0.667-0.667 2.267-2.267c5.467 2 11.467-0.667 13.467-6.133s-0.667-11.467-6.133-13.6c-1.2-0.4-2.4-0.667-3.733-0.667v0zM21.467 18.8c-1.467 0-2.933-0.4-4.133-1.2l-5.067 5.2 2.4 2.4-2.4 2.4-2.4-2.4-4 4-3.2-3.2 11.733-11.733c-0.667-1.067-1.067-2.267-1.067-3.467 0-4.533 3.6-8.133 8-8.133s8.133 3.6 8.133 8c0.133 4.533-3.467 8.133-8 8.133 0 0 0 0 0 0v0z"></path>
</svg>
