<svg version="1.1" xmlns="http://www.w3.org/2000/svg" width="32" height="32" viewBox="0 0 32 32">
<title>lable</title>
<path d="M31.733 0.533c-0.4-0.4-1.067-0.4-1.6 0l-2 1.867c-0.133 0-0.4-0.133-0.533-0.133l-10.933-0.133c-0.533 0-1.2 0.267-1.6 0.667l-14.4 14.4c-0.8 0.8-0.8 2.133 0 3.067 0 0 0 0 0 0l11.067 10.8c0.8 0.8 2.267 0.8 3.067 0l14.667-14.267c0.4-0.4 0.667-0.933 0.667-1.467l-0.133-10.8c0-0.133 0-0.4-0.133-0.533l2-1.867c0.267-0.533 0.267-1.2-0.133-1.6 0 0 0 0 0 0zM27.867 15.333l-14.667 14.267-11.067-10.8 14.533-14.4h9.6l-3.333 3.333c-0.533-0.267-1.067-0.4-1.6-0.4-2 0-3.6 1.6-3.733 3.6 0 2 1.6 3.6 3.6 3.733 2 0 3.6-1.6 3.733-3.6 0-0.667-0.133-1.2-0.4-1.733l3.467-3.333-0.133 9.333zM22.667 10.933c0 0.8-0.667 1.467-1.467 1.333-0.8 0-1.467-0.667-1.333-1.467 0-0.8 0.667-1.333 1.467-1.333s1.333 0.667 1.333 1.467c0 0 0 0 0 0v0z"></path>
</svg>
