<svg version="1.1" xmlns="http://www.w3.org/2000/svg" width="32" height="32" viewBox="0 0 32 32">
<title>lemon</title>
<path d="M26.267 12.667c-1.067-1.733-2.533-3.067-4.267-3.733-0.4-1.333-1.467-2.267-2.8-2.267-1.2 0-2.267 0.8-2.8 2.133-0.133 0-0.267 0.133-0.4 0.133 0 0-0.133 0-0.133 0-0.267-0.933-0.933-1.733-1.867-2 0.133-0.933 0.8-2.4 2.8-3.2l-0.8-1.867c-0.533 0.267-0.933 0.4-1.333 0.667 0 0 0 0 0 0 0-0.533-0.4-1.2-0.933-1.6-1.467-1.2-4-1.2-7.333 0l-1.333 0.4 0.8 1.067c2 2.8 4 4.133 5.733 4.133 0.133 0 0.267 0 0.267 0 0.133 0 0.133 0 0.267 0 0 0 0 0 0 0 0 0.133 0 0.267 0 0.267s0 0 0 0c-0.8 0.267-1.467 1.067-1.867 2-3.733 1.467-6.267 5.733-6.267 10.533 0 2.533 0.667 4.933 1.867 6.8 1.2 1.733 2.667 3.067 4.4 3.733 0.533 1.2 1.467 2 2.667 2s2.267-0.8 2.8-2.133c0.133 0 0.133 0 0.267-0.133 0.133 0.133 0.4 0.133 0.533 0.267 0.533 1.2 1.467 2 2.667 2s2.267-0.8 2.8-2.133c1.733-0.667 3.2-2 4.267-3.867 1.2-2 1.867-4.267 1.867-6.667-0.133-2.267-0.8-4.533-1.867-6.533zM11.733 4.667c-0.533 0-1.733-0.267-3.6-2.4 2.667-0.8 3.867-0.4 4.267 0 0.533 0.4 0.667 1.2 0.667 1.467-0.133 0.267-0.533 0.933-1.333 0.933zM16 27.733c-0.4 0.267-0.8 0.4-1.333 0.667l-0.533 0.133v0.267l-0.133 0.267c-0.133 0.667-0.667 1.2-1.067 1.2s-0.933-0.4-1.067-1.067l-0.133-0.533-0.533-0.133c-3.2-0.933-5.467-4.667-5.467-8.933s2.267-8 5.467-8.933l0.533-0.133 0.267-0.8c0.133-0.667 0.533-1.2 1.067-1.2s0.933 0.533 1.067 1.2v0.533l0.533 0.133c0.533 0.267 0.933 0.4 1.333 0.667 2.4 1.467 4 4.667 4 8.267s-1.6 6.8-4 8.4zM20.933 28.267l-0.533 0.133-0.133 0.533c-0.133 0.667-0.667 1.2-1.067 1.2s-0.933-0.4-1.067-1.067l-0.133-0.533c0.8-0.667 1.467-1.467 2-2.4 1.2-2 1.867-4.267 1.867-6.667s-0.667-4.8-1.733-6.667c-0.533-0.933-1.333-1.733-2-2.4v0l0.133-0.533c0.133-0.667 0.533-1.2 1.067-1.2s0.933 0.533 1.067 1.2l0.133 0.533 0.533 0.133c3.067 1.067 5.2 4.8 5.2 8.933-0.133 4.133-2.267 7.733-5.333 8.8zM11.067 24.267c-1.467-1.2-1.6-2.8-1.6-2.933h-1.867c0 0.133 0.133 3.067 2.933 4.933l0.8-1.2 0.267-0.267c-0.133-0.267-0.4-0.267-0.533-0.533z"></path>
</svg>
