<svg version="1.1" xmlns="http://www.w3.org/2000/svg" width="32" height="32" viewBox="0 0 32 32">
<title>lightning</title>
<path d="M24.667 13.333c-0.4-0.667-1.067-0.933-1.733-0.933h-4.267v-10.133c0-1.067-0.667-1.867-1.733-2.133-0.133 0-0.267 0-0.4 0-0.8 0-1.6 0.533-2 1.333l-6.533 15.067c-0.4 0.8-0.267 1.467 0.133 2.133s1.067 0.933 1.733 0.933h4.267v10.133c0 1.067 0.667 1.867 1.733 2.133 0.133 0 0.267 0 0.4 0 0.8 0 1.6-0.533 2-1.333l6.4-15.2c0.4-0.667 0.4-1.333 0-2zM16.4 29.733v-12.4h-6.533l6.4-15.2v12.4h6.4l-6.267 15.2z"></path>
</svg>
