<svg version="1.1" xmlns="http://www.w3.org/2000/svg" width="32" height="32" viewBox="0 0 32 32">
<title>link</title>
<path d="M28 20.533l-3.467-3.467c-0.533-0.533-1.333-0.533-1.733 0 0 0 0 0 0 0-0.533 0.533-0.533 1.2 0 1.733 0 0 0 0 0 0l3.467 3.467c1.733 1.6 1.733 4.4 0 6 0 0 0 0 0 0-1.733 1.733-4.4 1.733-6.133 0l-6.533-6.533c-1.733-1.6-1.733-4.4 0-6 0 0 0 0 0 0 0.667-0.667 1.467-1.067 2.4-1.2 0.667-0.133 1.067-0.667 1.067-1.333 0 0 0 0 0 0-0.133-0.667-0.8-1.2-1.467-1.067-1.467 0.267-2.8 0.933-3.733 1.867-2.667 2.667-2.667 6.8 0 9.467 0 0 0 0 0 0l6.533 6.533c2.667 2.667 6.933 2.667 9.6 0 2.533-2.533 2.667-6.8 0-9.467 0 0 0 0 0 0zM5.867 9.733c-1.733-1.6-1.733-4.4 0-6 0 0 0 0 0 0 1.733-1.733 4.4-1.733 6.133 0l6.533 6.533c1.733 1.6 1.733 4.4 0 6-0.667 0.667-1.467 1.067-2.4 1.2-0.667 0.133-1.067 0.8-1.067 1.467 0.133 0.533 0.667 1.067 1.2 1.067 0 0 0.133 0 0.133 0 1.467-0.267 2.8-0.933 3.733-1.867 2.667-2.533 2.667-6.8 0-9.467 0 0 0 0 0 0l-6.533-6.533c-2.667-2.667-6.933-2.667-9.6 0-2.667 2.533-2.667 6.8 0 9.467 0 0 0 0 0 0l3.467 3.467c0.533 0.533 1.2 0.533 1.733 0s0.533-1.2 0-1.733c0 0 0 0 0 0l-3.333-3.6z"></path>
</svg>
