<svg version="1.1" xmlns="http://www.w3.org/2000/svg" width="32" height="32" viewBox="0 0 32 32">
<title>linkedin</title>
<path d="M32 19.467v11.867h-6.8v-11.067c0-2.8-0.933-4.667-3.467-4.667-1.867 0-3.067 1.333-3.467 2.533-0.133 0.4-0.267 1.067-0.267 1.733v11.467h-6.933c0 0 0.133-18.667 0-20.667h6.8v2.933c0 0 0 0 0 0v0 0c0.933-1.467 2.533-3.467 6.133-3.467 4.667 0 8 2.933 8 9.333zM3.867 0.667c-2.267 0-3.867 1.6-3.867 3.6s1.467 3.6 3.733 3.6v0c2.4 0 3.867-1.6 3.867-3.6 0.133-2-1.333-3.6-3.733-3.6zM0.4 31.333h6.8v-20.667h-6.8v20.667z"></path>
</svg>
