<svg version="1.1" xmlns="http://www.w3.org/2000/svg" width="32" height="32" viewBox="0 0 32 32">
<title>list</title>
<path d="M1.467 3.867h29.067c0.8 0 1.467-0.667 1.467-1.467s-0.667-1.467-1.467-1.467h-29.067c-0.8 0-1.467 0.667-1.467 1.467s0.667 1.467 1.467 1.467zM1.467 10.667h18.4c0.8 0 1.467-0.667 1.467-1.467s-0.667-1.467-1.467-1.467h-18.4c-0.8 0-1.467 0.667-1.467 1.467s0.667 1.467 1.467 1.467zM1.467 17.467h27.2c0.8 0 1.467-0.667 1.467-1.467s-0.667-1.467-1.467-1.467h-27.2c-0.8 0-1.467 0.667-1.467 1.467s0.667 1.467 1.467 1.467zM1.467 24.267h24.267c0.8 0 1.467-0.667 1.467-1.467s-0.667-1.467-1.467-1.467h-24.267c-0.8 0-1.467 0.667-1.467 1.467s0.667 1.467 1.467 1.467zM30.533 28.133h-29.067c-0.8 0-1.467 0.667-1.467 1.467s0.667 1.467 1.467 1.467h29.067c0.8 0 1.467-0.667 1.467-1.467s-0.667-1.467-1.467-1.467z"></path>
</svg>
