<svg version="1.1" xmlns="http://www.w3.org/2000/svg" width="32" height="32" viewBox="0 0 32 32">
<title>loading</title>
<path d="M16 3.733c2.667 0 5.2 0.8 7.333 2.4l-3.333 0.4c-0.667 0.133-1.2 0.8-1.067 1.467 0.133 0.533 0.533 1.067 1.2 1.067 0 0 0.133 0 0.133 0l5.733-0.8c0.667-0.133 1.2-0.667 1.067-1.333 0 0 0 0 0 0l-0.8-5.733c-0.133-0.667-0.8-1.067-1.467-1.067-0.667 0.133-1.067 0.667-1.067 1.333l0.267 2.267c-6.8-4.533-16-2.667-20.533 4.133-2.533 3.867-3.2 8.533-1.733 12.933l2.267-2.133c-1.467-6.667 2.667-13.2 9.333-14.667 0.8-0.267 1.733-0.267 2.667-0.267zM30 11.333l-2 2c1.467 6.667-2.8 13.2-9.333 14.667-3.467 0.8-7.2 0-10.133-2.267l2.667-0.4c0.667-0.133 1.2-0.667 1.067-1.333s-0.667-1.2-1.333-1.067l-5.733 0.8c-0.667 0.133-1.2 0.667-1.067 1.333l0.8 5.733c0 0.8 0.533 1.2 1.2 1.2 0 0 0.133 0 0.133 0 0.667-0.133 1.2-0.667 1.067-1.333 0 0 0 0 0 0l-0.4-2.933c6.4 5.067 15.733 3.867 20.667-2.533 3.067-4 4-9.2 2.4-13.867z"></path>
</svg>
