<!-- Generated by IcoMoon.io -->
<svg version="1.1" xmlns="http://www.w3.org/2000/svg" width="32" height="32" viewBox="0 0 32 32">
<title>location</title>
<path d="M16 0c-7.2 0.133-12.933 6-13.067 13.067 0.133 2.133 0.667 4.133 1.733 6 0 0 0 0.133 0.133 0.133 7.867 12.8 10.133 12.8 11.2 12.8 1.6 0 3.333-1.067 7.333-6.8 2.133-2.933 3.867-5.867 4-6 0 0 0.133-0.133 0.133-0.133 1.067-1.867 1.6-3.867 1.733-6-0.267-7.067-6-12.933-13.2-13.067zM25.467 18.133c0 0-7.2 11.6-9.467 11.6-2.133 0-9.467-11.6-9.467-11.6-0.8-1.6-1.333-3.333-1.467-5.067 0-6 4.933-10.933 10.933-10.933s10.933 4.933 10.933 10.933c-0.133 1.867-0.667 3.467-1.467 5.067zM16 6.533c-3.2 0-5.867 2.667-5.867 5.867s2.667 5.867 5.867 5.867 5.867-2.667 5.867-5.867c0-3.2-2.667-5.867-5.867-5.867zM16 16c-2 0-3.6-1.6-3.6-3.6s1.6-3.6 3.6-3.6 3.6 1.6 3.6 3.6-1.6 3.6-3.6 3.6z"></path>
</svg>
