<!-- Generated by IcoMoon.io -->
<svg version="1.1" xmlns="http://www.w3.org/2000/svg" width="32" height="32" viewBox="0 0 32 32">
<title>locked</title>
<path d="M26.933 11.733h-2.4v-3.2c0-4.667-3.733-8.533-8.533-8.533s-8.533 3.867-8.533 8.533v3.067h-2.4c-1.333 0-2.4 1.067-2.4 2.4v15.6c0 1.333 1.067 2.4 2.4 2.4h21.867c1.333 0 2.4-1.067 2.4-2.4v-15.6c0-1.2-1.067-2.267-2.4-2.267zM9.733 8.533c0-3.467 2.8-6.267 6.267-6.267s6.267 2.8 6.267 6.267v3.067h-12.533v-3.067zM26.933 29.6h-21.867v-15.6h21.867v15.6zM16.4 25.733c2 0 3.467-1.6 3.467-3.467s-1.6-3.6-3.467-3.6-3.467 1.6-3.467 3.467c0 2 1.467 3.6 3.467 3.6zM16.4 21.067c0.667 0 1.2 0.533 1.2 1.2s-0.533 1.2-1.2 1.2-1.2-0.533-1.2-1.2c0-0.667 0.533-1.2 1.2-1.2z"></path>
</svg>
