<!-- Generated by IcoMoon.io -->
<svg version="1.1" xmlns="http://www.w3.org/2000/svg" width="32" height="32" viewBox="0 0 32 32">
<title>lollipop</title>
<path d="M16.933 32v-11.467c5.2-0.533 9.333-4.933 9.333-10.267 0-5.6-4.533-10.267-10.267-10.267s-10.267 4.667-10.267 10.267c0 5.333 4.133 9.733 9.333 10.267v11.467h1.867zM7.6 10.267c0-4.667 3.733-8.4 8.4-8.4s8.4 3.733 8.4 8.4-3.733 8.4-8.4 8.4-8.4-3.733-8.4-8.4zM15.333 16.133l1.2 1.467c1.2-1.067 1.867-2.4 1.867-4 0-0.933-0.267-1.733-0.667-2.533 0.533 0 0.933 0.133 1.333 0.4 0.8 0.533 1.467 1.333 1.6 2.267l1.867-0.4c-0.267-1.467-1.2-2.667-2.533-3.467-0.8-0.4-1.6-0.667-2.533-0.667 0.267-0.4 0.667-0.667 1.067-0.933 0.8-0.533 1.867-0.533 2.8-0.267l0.667-1.733c-1.467-0.533-3.067-0.4-4.4 0.4-0.8 0.4-1.467 1.067-1.867 1.867-0.133-0.4-0.267-0.933-0.267-1.333 0-0.933 0.4-1.867 1.2-2.533l-1.2-1.467c-1.2 1.067-1.867 2.4-1.867 4 0 0.933 0.267 1.733 0.667 2.533-0.533 0-0.933-0.133-1.333-0.4-0.933-0.667-1.467-1.467-1.733-2.533l-1.867 0.4c0.4 1.467 1.333 2.8 2.667 3.6 0.8 0.4 1.6 0.667 2.533 0.667-0.267 0.4-0.667 0.667-1.067 0.933-0.933 0.533-1.867 0.667-2.8 0.267l-0.667 1.733c1.467 0.533 3.067 0.4 4.4-0.4 0.8-0.4 1.467-1.067 1.867-1.867 0.133 0.4 0.267 0.933 0.267 1.333 0 1.067-0.4 2-1.2 2.667z"></path>
</svg>
