<svg version="1.1" xmlns="http://www.w3.org/2000/svg" width="32" height="32" viewBox="0 0 32 32">
<title>loudspeaker</title>
<path d="M16.8 1.067c-0.667-0.667-1.467-1.067-2.4-1.067s-1.867 0.4-2.533 1.067c-0.667 0.533-0.933 1.467-0.933 2.4 0 0.667 0.267 1.333 0.533 2l-6.667 16.4c-0.4-0.133-0.933-0.267-1.333-0.267-0.933 0-1.733 0.4-2.4 1.067-1.333 1.333-1.333 3.467 0 4.933l3.6 3.6c0.533 0.4 1.467 0.8 2.267 0.8 0.933 0 1.733-0.4 2.4-1.067s1.067-1.467 1.067-2.4c0-0.4-0.133-0.933-0.267-1.333l3.467-1.333 1.333 1.333c0.8 0.8 2.133 1.333 3.467 1.333 0.533 0 1.2-0.133 1.6-0.267l3.333-1.333c0.933-0.4 1.467-1.067 1.733-1.867 0.133-0.8-0.133-1.733-0.8-2.4l-0.8-0.8 3.2-1.333c0.533 0.4 1.2 0.533 2 0.533 0 0 0 0 0 0 0.933 0 1.733-0.4 2.4-1.067 1.333-1.333 1.333-3.467 0-4.933l-14.267-14zM21.333 20.667c0 0 0 0 0 0l-7.867 3.2c0 0 0 0 0 0l-4.4 1.867-2.667-2.667 6.533-16.133 12.267 12.267-3.867 1.467zM8.133 29.6c-0.267 0.267-0.667 0.4-1.067 0.4s-0.8-0.133-1.067-0.4l-3.6-3.6c-0.667-0.667-0.667-1.6 0-2.267 0.267-0.267 0.667-0.4 1.067-0.4s0.8 0.133 1.067 0.4l3.6 3.6c0.267 0.267 0.4 0.667 0.4 1.067 0 0.533-0.133 0.933-0.4 1.2zM22.8 23.867c0.267 0.267 0.4 0.533 0.267 0.667 0 0.133-0.267 0.4-0.533 0.533l-3.333 1.333c-0.933 0.4-2.4 0.133-3.067-0.667l-0.8-0.8 6-2.4 1.467 1.333zM29.6 18.8c-0.267 0.267-0.667 0.4-1.067 0.4 0 0 0 0 0 0-0.4 0-0.8-0.133-1.067-0.4l-14.267-14.267c-0.267-0.267-0.4-0.667-0.4-1.067s0.133-0.8 0.4-1.067 0.667-0.4 1.067-0.4 0.8 0.133 1.067 0.4l14.267 14.267c0.667 0.533 0.667 1.467 0 2.133zM26.8 6.133c0.267 0 0.533-0.133 0.667-0.267l4.267-4.267c0.4-0.4 0.4-0.933 0-1.333s-0.933-0.4-1.333 0l-4.267 4.267c-0.4 0.4-0.4 0.933 0 1.333 0.133 0.267 0.4 0.267 0.667 0.267zM22.533 3.333c0.267 0 0.533-0.133 0.667-0.267l1.467-1.467c0.4-0.4 0.4-0.933 0-1.333s-0.933-0.4-1.333 0l-1.467 1.467c-0.4 0.4-0.4 0.933 0 1.333 0.133 0.133 0.4 0.267 0.667 0.267zM30.4 7.333l-1.467 1.467c-0.4 0.4-0.4 0.933 0 1.333 0.133 0.133 0.4 0.267 0.667 0.267s0.533-0.133 0.667-0.267l1.467-1.467c0.4-0.4 0.4-0.933 0-1.333-0.4-0.267-0.933-0.267-1.333 0z"></path>
</svg>
