<svg version="1.1" xmlns="http://www.w3.org/2000/svg" width="32" height="32" viewBox="0 0 32 32">
<title>mail</title>
<path d="M29.733 3.733h-27.6c-1.2 0-2.133 0.933-2.133 2.133v20.267c0 1.2 0.933 2.133 2.133 2.133h27.6c1.2 0 2.133-0.933 2.133-2.133v-20.267c0-1.2-0.933-2.133-2.133-2.133zM29.733 24.667l-5.733-5.867c-0.4-0.4-1.067-0.4-1.6 0-0.4 0.4-0.4 1.067 0 1.467l5.733 5.733h-24.4l5.733-5.733c0.4-0.4 0.4-1.067 0-1.6-0.4-0.4-1.067-0.4-1.6 0 0 0 0 0 0 0l-5.733 5.733v-13.733l13.067 9.867c0.133 0.133 0.4 0.267 0.667 0.267s0.4-0.133 0.667-0.267l13.2-9.867v14zM29.733 5.867v2.133l-13.867 10.267-13.733-10.267v-2.133h27.6z"></path>
</svg>
