<svg version="1.1" xmlns="http://www.w3.org/2000/svg" width="32" height="32" viewBox="0 0 32 32">
<title>map</title>
<path d="M30.267 3.067l-7.467-2.933c-0.267-0.133-0.533-0.133-0.8-0.133-0.4 0-0.8 0.133-1.067 0.267-0.4-0.133-0.8-0.267-1.2-0.267-0.267 0-0.533 0-0.8 0.133l-7.467 2.933c-0.133 0-0.133 0.133-0.267 0.133s-0.133-0.133-0.267-0.133l-7.467-2.933c-0.267-0.133-0.533-0.133-0.8-0.133-0.533 0-0.933 0.133-1.333 0.4-0.533 0.4-0.933 1.067-0.933 1.867v24.533c0 0.933 0.533 1.733 1.467 2.133l7.467 2.933c0.133 0.133 0.4 0.133 0.667 0.133 0.4 0 0.8-0.133 1.067-0.267 0.4 0.133 0.8 0.267 1.2 0.267 0.267 0 0.533 0 0.8-0.133l7.467-2.933c0.133 0 0.133-0.133 0.267-0.133s0.133 0.133 0.267 0.133l7.467 2.933c0.267 0.133 0.533 0.133 0.8 0.133 0.4 0 0.933-0.133 1.2-0.4 0.667-0.4 0.933-1.067 0.933-1.867v-24.533c0.133-0.933-0.4-1.733-1.2-2.133zM2.667 26.8v-24.533l7.467 2.933v24.533l-7.467-2.933zM12.267 29.733v-24.533l7.467-2.933v24.533l-7.467 2.933zM29.333 29.733l-7.467-2.933v-24.533l7.467 2.933v24.533z"></path>
</svg>
