<!-- Generated by IcoMoon.io -->
<svg version="1.1" xmlns="http://www.w3.org/2000/svg" width="32" height="32" viewBox="0 0 32 32">
<title>menu</title>
<path d="M1.467 7.467h29.067c0.8 0 1.467-0.667 1.467-1.467s-0.667-1.467-1.467-1.467h-29.067c-0.8 0-1.467 0.667-1.467 1.467s0.667 1.467 1.467 1.467zM30.533 14.267h-29.067c-0.8 0-1.467 0.667-1.467 1.467s0.667 1.467 1.467 1.467h29.067c0.8 0 1.467-0.667 1.467-1.467s-0.667-1.467-1.467-1.467zM30.533 24h-29.067c-0.8 0-1.467 0.667-1.467 1.467s0.667 1.467 1.467 1.467h29.067c0.8 0 1.467-0.667 1.467-1.467s-0.667-1.467-1.467-1.467z"></path>
</svg>
