<!-- Generated by IcoMoon.io -->
<svg version="1.1" xmlns="http://www.w3.org/2000/svg" width="32" height="32" viewBox="0 0 32 32">
<title>menu-circle</title>
<path d="M31.867 14.4c-0.8-8.133-7.6-14.4-15.867-14.4-0.533 0-1.067 0-1.6 0.133-8.8 0.8-15.2 8.667-14.267 17.467 0.8 8.133 7.6 14.4 15.867 14.4 0.533 0 1.067 0 1.6-0.133 8.8-0.8 15.2-8.667 14.267-17.467 0 0 0 0 0 0zM17.333 29.733c-0.4 0-0.933 0-1.333 0-7.6 0.133-13.867-6.133-13.867-13.733 0-7.067 5.333-13.067 12.533-13.733 0.4 0 0.933 0 1.333 0 7.6 0 13.867 6.133 13.867 13.867 0 6.933-5.467 12.933-12.533 13.6v0zM22.933 15.333h-13.867c-0.667 0-1.067 0.533-1.067 1.067s0.533 1.067 1.067 1.067h13.867c0.667 0 1.067-0.533 1.067-1.067 0-0.667-0.533-1.067-1.067-1.067 0 0 0 0 0 0v0zM22.933 10.933h-13.867c-0.667 0-1.067 0.4-1.067 1.067s0.533 1.067 1.067 1.067h13.867c0.533 0 1.067-0.4 1.067-1.067 0-0.533-0.533-1.067-1.067-1.067 0 0 0 0 0 0v0zM22.933 19.6h-13.867c-0.667 0-1.067 0.533-1.067 1.067 0 0.667 0.533 1.067 1.067 1.067h13.867c0.667 0 1.067-0.533 1.067-1.067s-0.533-1.067-1.067-1.067c0 0 0 0 0 0v0z"></path>
</svg>
