<!-- Generated by IcoMoon.io -->
<svg version="1.1" xmlns="http://www.w3.org/2000/svg" width="32" height="32" viewBox="0 0 32 32">
<title>messenger</title>
<path d="M6.133 32c-0.4 0-0.933-0.133-1.333-0.4-0.8-0.533-1.2-1.333-1.2-2.133v-3.733c-2.667-3.333-3.867-7.6-3.2-12 0.933-6.933 6.667-12.667 13.6-13.6 4.933-0.667 9.733 0.933 13.2 4.4s5.2 8.267 4.667 13.2c-0.8 7.067-6.533 12.933-13.6 13.867-2.8 0.4-5.733 0-8.4-1.2l-2.533 1.333c-0.4 0.133-0.8 0.267-1.2 0.267zM14.133 2.4c-5.867 0.8-10.8 5.6-11.6 11.6-0.533 3.867 0.533 7.6 3.067 10.533 0.133 0.267 0.267 0.4 0.267 0.667v4.133c0 0.133 0.133 0.267 0.133 0.267s0.133 0.133 0.267 0l3.067-1.467c0.267-0.133 0.667-0.133 0.933 0 2.4 1.067 4.933 1.467 7.6 1.2 6.133-0.8 11.067-5.867 11.733-11.867 0.533-4.267-0.933-8.267-4-11.333-3.067-2.933-7.2-4.267-11.467-3.733zM14 1.2v0 0zM8.133 19.467l5.2-7.467c0.267-0.4 0.667-0.533 1.067-0.267l3.467 2.667c0.267 0.133 0.533 0.133 0.8 0l4.267-3.067c0.667-0.4 1.333 0.267 1.067 0.933l-4.267 7.333c-0.133 0.4-0.667 0.533-1.067 0.267l-4.667-2.8c-0.267-0.133-0.533-0.133-0.667 0l-4.267 3.333c-0.667 0.4-1.333-0.267-0.933-0.933z"></path>
</svg>
