<svg version="1.1" xmlns="http://www.w3.org/2000/svg" width="32" height="32" viewBox="0 0 32 32">
<title>message</title>
<path d="M25.467 3.6c2.4 0 4.4 2 4.4 4.4v11.6c0 2.4-2 4.4-4.4 4.4h-13.333l-4.933 4.4v-4.4h-0.667c-2.4 0-4.4-2-4.4-4.4v-11.6c0-2.4 2-4.4 4.4-4.4h18.933zM25.467 1.467h-18.933c-3.6 0-6.533 2.933-6.533 6.533v11.6c0 3.067 2.133 5.733 5.067 6.4v2.4c0 0.8 0.533 1.6 1.333 2 0.267 0.133 0.533 0.133 0.933 0.133 0.533 0 1.067-0.133 1.467-0.533l4.267-3.867h12.4c3.6 0 6.533-2.933 6.533-6.533v-11.6c0-3.6-2.933-6.533-6.533-6.533v0zM17.067 13.867c0 0.667-0.533 1.067-1.067 1.067s-1.067-0.533-1.067-1.067 0.533-1.067 1.067-1.067 1.067 0.4 1.067 1.067zM24.4 13.867c0 0.667-0.533 1.067-1.067 1.067-0.667 0-1.067-0.533-1.067-1.067s0.533-1.067 1.067-1.067c0.533-0.133 1.067 0.4 1.067 1.067zM9.867 13.867c0 0.667-0.533 1.067-1.067 1.067s-1.067-0.533-1.067-1.067 0.533-1.067 1.067-1.067 1.067 0.4 1.067 1.067z"></path>
</svg>
