<!-- Generated by IcoMoon.io -->
<svg version="1.1" xmlns="http://www.w3.org/2000/svg" width="32" height="32" viewBox="0 0 32 32">
<title>mobile</title>
<path d="M25.467 5.067c0-2.8-2.267-5.067-5.067-5.067h-8.8c-2.8 0-5.067 2.267-5.067 5.067v21.867c0 2.8 2.267 5.067 5.067 5.067h8.667c2.8 0 5.067-2.267 5.067-5.067v-21.867zM8.667 6.533h14.533v17.467h-14.533v-17.467zM11.6 2.133h8.667c1.333 0 2.533 0.933 2.8 2.133h-14.267c0.4-1.2 1.467-2.133 2.8-2.133zM20.4 29.867h-8.8c-1.6 0-2.933-1.333-2.933-2.933v-0.667h14.533v0.667c0.133 1.6-1.2 2.933-2.8 2.933zM15.6 26.933c-0.667 0-1.067 0.533-1.067 1.067s0.533 1.067 1.067 1.067 1.067-0.533 1.067-1.067-0.4-1.067-1.067-1.067z"></path>
</svg>
