<!-- Generated by IcoMoon.io -->
<svg version="1.1" xmlns="http://www.w3.org/2000/svg" width="32" height="32" viewBox="0 0 32 32">
<title>money-box</title>
<path d="M24 12.267c-0.533 0-0.933 0.4-0.933 0.933s0.4 0.933 0.933 0.933c0.533 0 0.933-0.4 0.933-0.933s-0.4-0.933-0.933-0.933c0 0 0 0 0 0zM29.333 11.467c-1.067-2.533-3.2-4.4-6.267-5.467l0.8-2.667c0.133-0.533-0.133-1.067-0.667-1.2-0.267-0.133-0.533 0-0.667 0l-6.533 3.067c-7.467 0.133-12.533 3.867-12.8 9.6-0.933-0.267-1.333 0-1.333-0.667 0.133-0.533 0.4-1.067 0.933-1.467 0.4-0.4 0.4-1.067 0-1.333-0.4-0.4-0.933-0.4-1.333 0-0.933 0.933-1.467 2.133-1.467 3.467 0 1.867 1.733 1.867 3.2 1.867 0.4 2.667 2.667 4.667 4.4 6v3.333c0 1.867 1.467 3.333 3.2 3.333h1.733c1.467 0 2.667-1.067 3.067-2.4 0.4 0 0.8 0 1.067 0 0.4 0 0.8 0 1.067 0 0.4 1.333 1.733 2.267 3.067 2.4h2.133c1.733 0 3.067-1.333 3.067-2.933 0 0 0-0.133 0-0.133v-3.2c1.2-0.933 2-2 2.667-3.333 1.733-0.133 3.067-1.467 3.067-3.2v-1.867c0.267-1.6-0.933-2.933-2.4-3.2v0zM30 16.533c0 0.8-0.533 1.333-1.2 1.467h-1.333c-0.533 1.867-1.467 2.667-3.2 3.867v4.533c0 0.667-0.4 1.2-1.067 1.333 0 0-0.133 0-0.133 0h-2.133c-0.8-0.133-1.333-0.667-1.333-1.467v-1.333c-0.933 0.267-2 0.267-2.933 0.267s-2-0.133-2.933-0.4v1.333c0 0.8-0.533 1.333-1.333 1.467h-1.733c-0.8-0.133-1.333-0.667-1.333-1.467v-4.267c-2.4-1.733-4.4-3.467-4.4-6.4 0-4.933 4.667-7.867 10.267-8.267 1.333 0 6-2.4 6-2.4l-1.333 4.4c-0.133 0.533 0.133 1.067 0.667 1.2 0.133 0 0.133 0 0.267 0 0.4 0 0.8-0.267 0.933-0.667l0.533-2c2.533 0.933 4.533 3.067 5.067 5.733h1.333c0.667 0 1.333 0.533 1.333 1.2 0 0 0 0 0 0v1.867z"></path>
</svg>
