<svg version="1.1" xmlns="http://www.w3.org/2000/svg" width="32" height="32" viewBox="0 0 32 32">
<title>money-bag</title>
<path d="M16 19.467c-0.667 0-1.333-0.533-1.333-1.2 0-0.4 0.133-0.667 0.4-0.933 0.533-0.533 1.333-0.533 1.867 0 0.267 0.267 0.4 0.533 0.4 0.933 0 0.667 0.533 1.067 1.067 1.067s1.067-0.533 1.067-1.067c0-1.6-1.067-3.067-2.667-3.333v-0.667c0-0.667-0.533-1.067-1.067-1.067s-1.067 0.533-1.067 1.067v0.933c-0.4 0.133-0.667 0.4-0.933 0.667-1.333 1.333-1.333 3.6 0 4.933 0.667 0.667 1.467 1.067 2.4 1.067 0.8 0 1.6 0.667 1.6 1.6 0 0.4-0.133 0.8-0.4 1.067-0.267 0.133-0.4 0.4-0.667 0.4s-0.4 0-0.667 0c-0.8-0.133-1.333-0.933-1.2-1.6 0-0.533-0.4-1.067-0.933-1.2s-1.067 0.4-1.2 0.933c0 0 0 0 0 0-0.133 1.6 0.8 3.2 2.267 3.733 0 0.533 0.533 1.067 1.2 0.933 0.4 0 0.8-0.267 0.933-0.8 2-0.4 3.333-2.267 2.933-4.267-0.667-1.867-2.133-3.2-4-3.2zM29.733 26.133c-0.267-3.2-1.867-13.467-8.133-17.333 0 0 0 0 0 0l2.133-5.867c0.4-1.067-0.133-2.4-1.333-2.8 0 0-0.267-0.133-0.533-0.133h-11.733c-1.2 0-2.133 1.067-2.133 2.267 0 0.267 0 0.533 0.133 0.8l2.133 5.867c0 0 0 0 0 0-6.267 4-7.867 14.133-8.133 17.333 0 1.467 0.533 3.067 1.467 4.267 0.933 0.933 2.4 1.467 3.733 1.467h17.2c1.333 0.133 2.8-0.4 3.733-1.467 1.067-1.2 1.6-2.8 1.467-4.4zM10.133 2.267h11.6l-2.133 5.733h-7.2l-2.267-5.733zM24.533 29.867h-17.067c-1.733 0-3.2-1.2-3.067-2.933 0.533-6 2.8-14.4 8-16.667h7.333c5.067 2.4 7.467 10.667 8 16.667 0 1.6-1.467 2.933-3.2 2.933z"></path>
</svg>
