<!-- Generated by IcoMoon.io -->
<svg version="1.1" xmlns="http://www.w3.org/2000/svg" width="32" height="32" viewBox="0 0 32 32">
<title>monitor</title>
<path d="M28 1.6h-24c-2.133 0-4 1.733-4 4v15.333c0 2.133 1.733 4 4 4h11.2v3.733h-5.6c-0.533 0-0.933 0.4-0.933 0.933s0.4 0.933 0.933 0.933h12.933c0.533 0 0.933-0.4 0.933-0.933s-0.4-0.933-0.933-0.933h-5.6v-3.733h11.067c2.133 0 4-1.733 4-4v-15.333c0-2.267-1.733-4-4-4zM4 3.467h24c1.2 0 2.133 0.933 2.133 2.133v12.8h-28.4v-12.8c0-1.2 1.067-2.133 2.267-2.133zM28 23.067h-24c-1.2 0-2.133-0.933-2.133-2.133v-0.667h28.4v0.667c0 1.067-1.067 2.133-2.267 2.133z"></path>
</svg>
