<!-- Generated by IcoMoon.io -->
<svg version="1.1" xmlns="http://www.w3.org/2000/svg" width="32" height="32" viewBox="0 0 32 32">
<title>moon</title>
<path d="M31.333 21.867c0-0.267-0.133-0.533-0.4-0.8-0.533-0.533-1.067-0.533-1.6-0.267-1.467 0.667-3.067 1.067-4.667 1.067-2 0-3.867-0.533-5.6-1.467s-3.067-2.4-4-4c-0.933-1.733-1.467-3.6-1.467-5.6 0-1.6 0.267-3.067 0.933-4.4s1.467-2.667 2.667-3.733c0.533-0.533 0.667-1.067 0.4-1.733-0.4-0.667-0.933-0.933-1.6-0.933-2.133 0.133-4.133 0.533-6 1.467-1.867 0.8-3.467 2-4.933 3.333s-2.4 3.2-3.2 5.067c-0.8 1.867-1.2 4-1.2 6.133s0.4 4.267 1.333 6.267c0.8 2 2 3.733 3.467 5.067s3.2 2.533 5.067 3.467c2 0.8 4 1.333 6.267 1.333 3.067 0 6-0.8 8.667-2.533s4.667-4 5.867-6.8c0.133-0.133 0.133-0.4 0.133-0.533-0.133-0.267-0.133-0.4-0.133-0.4zM16.667 29.067c-1.733 0-3.467-0.4-5.067-1.067s-3.067-1.6-4.133-2.8c-1.2-1.2-2.133-2.533-2.8-4.133s-1.067-3.333-1.067-5.067c0-2.933 0.933-5.467 2.667-7.867 1.6-2.133 3.733-3.733 6.267-4.533-1.333 2.267-2 4.533-2 7.067s0.667 4.933 1.867 7.067c1.2 2.133 2.933 3.867 5.067 5.067s4.533 1.867 7.067 1.867c0.667 0 1.2 0 1.867-0.133-1.2 1.333-2.533 2.4-4.267 3.2-1.6 0.933-3.467 1.333-5.467 1.333z"></path>
</svg>
