<svg version="1.1" xmlns="http://www.w3.org/2000/svg" width="32" height="32" viewBox="0 0 32 32">
<title>music</title>
<path d="M28.933 0.267c-0.267-0.267-0.667-0.267-1.067-0.267l-15.867 5.067c-0.667 0.267-1.067 0.933-1.067 1.6v16c-1.6-0.4-3.333-0.267-4.933 0.267-1.2 0.533-2.267 1.467-2.933 2.533-1.2 2-0.533 4.533 1.333 5.733 0.4 0.267 0.8 0.4 1.2 0.533 0.533 0.133 1.067 0.267 1.6 0.267 0.8 0 1.6-0.133 2.4-0.533 2.267-0.933 3.867-3.733 3.867-6.267v-18.533l13.467-3.733v14.933c-0.267-0.133-0.533-0.267-0.933-0.4-2.667-0.667-5.467 0.533-6.933 2.8-0.667 1.2-0.8 2.533-0.267 3.733 0.8 1.733 2.533 2.8 4.4 2.667 0.8 0 1.6-0.133 2.4-0.533 1.333-0.533 3.867-2.533 3.867-4.267v-20.667c0-0.4-0.133-0.667-0.533-0.933zM8.667 29.2c-0.667 0.267-1.467 0.4-2.267 0.133-0.933-0.133-1.467-1.067-1.333-1.867 0-0.267 0.133-0.4 0.267-0.667 0.4-0.667 1.067-1.2 1.733-1.467 0.4-0.133 0.933-0.267 1.467-0.267 0.8-0.133 1.6 0.267 2 1.067 0.4 1.067-0.4 2.4-1.867 3.067v0zM26.4 22.533c-0.4 0.667-1.067 1.2-1.733 1.467-1.467 0.667-3.067 0.267-3.467-0.8-0.133-0.533-0.133-1.067 0.133-1.6 0.4-0.667 1.067-1.2 1.733-1.467 0.4-0.133 0.933-0.267 1.467-0.267 0.267 0 0.533 0 0.8 0.133 0.533 0.133 0.933 0.533 1.2 0.933v0c0.267 0.533 0.267 1.2-0.133 1.6v0z"></path>
</svg>
