<!-- Generated by IcoMoon.io -->
<svg version="1.1" xmlns="http://www.w3.org/2000/svg" width="32" height="32" viewBox="0 0 32 32">
<title>navigation</title>
<path d="M31.2 0.667c-0.4-0.4-1.067-0.667-1.6-0.667-0.267 0-0.667 0.133-0.933 0.133l-27.2 12.267c-0.933 0.4-1.467 1.333-1.333 2.267s0.8 1.733 1.733 2l10.8 2.667 3.333 10.933c0.267 0.933 1.067 1.6 2 1.6h0.133c0.933 0 1.733-0.533 2.133-1.333l11.333-27.333c0.4-0.933 0.267-1.867-0.4-2.533zM18.267 29.6l-3.733-12.133-12-2.933 27.2-12.267-11.467 27.333z"></path>
</svg>
