<!-- Generated by IcoMoon.io -->
<svg version="1.1" xmlns="http://www.w3.org/2000/svg" width="32" height="32" viewBox="0 0 32 32">
<title>odnoklassniki</title>
<path d="M16 0c-4.4 0-8 3.6-8 8s3.6 8 8 8 8-3.6 8-8-3.6-8-8-8zM16 12c-2.267 0-4-1.733-4-4s1.733-4 4-4 4 1.733 4 4-1.733 4-4 4zM26.667 15.733c-0.8-0.8-2-0.8-2.8 0-4.267 4.267-11.333 4.267-15.6 0-0.8-0.8-2-0.8-2.8 0s-0.8 2.133-0.133 2.933c2.533 2.533 5.6 3.867 8.933 4.267l-5.733 5.733c-0.8 0.8-0.8 2 0 2.8s2 0.8 2.8 0l4.533-4.533 4.533 4.533c0.4 0.4 0.933 0.533 1.467 0.533s1.067-0.133 1.467-0.533c0.8-0.8 0.8-2 0-2.8l-5.733-5.733c3.2-0.4 6.4-1.733 8.933-4.267 0.8-0.8 0.8-2.133 0.133-2.933z"></path>
</svg>
