<!-- Generated by IcoMoon.io -->
<svg version="1.1" xmlns="http://www.w3.org/2000/svg" width="32" height="32" viewBox="0 0 32 32">
<title>open</title>
<path d="M24.933 12.267l-6-5.067c0-0.267 0.133-0.4 0.133-0.667 0-1.6-1.333-2.933-2.933-2.933s-2.933 1.333-2.933 2.933c0 0.267 0 0.4 0.133 0.667l-6.267 5.067h-7.067v16.267h32v-16.267h-7.067zM16 5.467c0.667 0 1.067 0.533 1.067 1.067s-0.4 1.067-1.067 1.067c-0.667 0-1.067-0.533-1.067-1.067s0.4-1.067 1.067-1.067zM14.133 8.8c0.533 0.4 1.2 0.667 1.867 0.667s1.467-0.267 1.867-0.667l4 3.467h-12l4.267-3.467zM30.133 26.533h-28.267v-12.533h28.267v12.533zM10.267 19.2c-0.133-0.4-0.4-0.8-0.667-1.067s-0.667-0.533-1.067-0.8c-0.4-0.133-0.8-0.267-1.333-0.267s-0.933 0.133-1.333 0.267c-0.4 0.133-0.8 0.4-1.067 0.667s-0.533 0.667-0.667 1.067c0 0.4-0.133 0.8-0.133 1.333 0 0.4 0.133 0.8 0.267 1.2s0.4 0.8 0.667 1.067c0.267 0.267 0.667 0.533 1.067 0.667s0.8 0.267 1.333 0.267c0.533 0 0.933-0.133 1.333-0.267 0.267-0.133 0.667-0.4 0.933-0.667s0.533-0.667 0.667-1.067c0.133-0.4 0.267-0.8 0.267-1.2s-0.133-0.8-0.267-1.2zM8.667 20.933c0 0.267-0.133 0.4-0.267 0.533s-0.267 0.267-0.4 0.4c-0.133 0.133-0.4 0.133-0.667 0.133s-0.533 0-0.667-0.133c-0.133-0.133-0.267-0.267-0.4-0.4s-0.267-0.267-0.267-0.533c0-0.267-0.133-0.4-0.133-0.667s0-0.4 0.133-0.667c0-0.267 0.133-0.4 0.267-0.533s0.267-0.267 0.4-0.4c0.133 0.133 0.4 0 0.667 0s0.4 0 0.667 0.133c0.133 0.133 0.4 0.267 0.4 0.4 0.133 0.133 0.267 0.267 0.267 0.533s0.133 0.4 0.133 0.667c-0.133 0.133-0.133 0.4-0.133 0.533zM16 18.533c-0.133-0.267-0.267-0.533-0.4-0.667-0.133-0.267-0.4-0.4-0.667-0.533s-0.533-0.133-0.8-0.133h-2.933v6.4h1.733v-2h1.067c0.267 0 0.533 0 0.8-0.133s0.533-0.267 0.667-0.533c0.133-0.267 0.267-0.4 0.4-0.667s0.133-0.533 0.133-0.8c0.133-0.4 0.133-0.667 0-0.933zM14.267 19.867c-0.133 0.133-0.267 0.133-0.4 0.133h-0.933v-1.333h0.933c0.133 0 0.267 0 0.267 0.133 0.133 0.133 0.133 0.267 0.133 0.533 0.133 0.267 0 0.533 0 0.533zM18.533 22v-0.933h2.4v-1.467h-2.4v-0.933h2.8v-1.467h-4.533v6.4h4.533v-1.6zM26.133 17.2v3.2l-2.533-3.2h-1.467v6.4h1.733v-3.2l2.533 3.2h1.467v-6.4z"></path>
</svg>
