<!-- Generated by IcoMoon.io -->
<svg version="1.1" xmlns="http://www.w3.org/2000/svg" width="32" height="32" viewBox="0 0 32 32">
<title>orange</title>
<path d="M11.467 25.333h1.867v1.867h-1.867v-1.867zM9.333 22h1.867v1.867h-1.867v-1.867zM13.333 22.133h1.867v1.867h-1.867v-1.867zM16.667 7.333c0-0.667 0.4-2.667 2.8-3.733l-0.8-1.867c-0.533 0.267-0.933 0.4-1.333 0.667 0-0.4-0.4-1.067-0.933-1.467-1.467-1.2-4-1.2-7.333 0l-1.333 0.4 0.8 1.067c2 2.8 4 4.133 5.733 4.133 0.133 0 0.267 0 0.267 0 0.133 0 0.133 0 0.267 0-0.133 0.4-0.133 0.667-0.133 0.933-6.133 0.533-10.933 5.867-10.933 12.267 0 6.8 5.467 12.267 12.267 12.267s12.267-5.467 12.267-12.267c0-6.667-5.067-12-11.6-12.4zM14.4 4.667c-0.533 0-1.733-0.267-3.6-2.4 2.667-0.8 3.867-0.4 4.267 0 0.533 0.4 0.667 1.2 0.667 1.467-0.133 0.267-0.533 0.933-1.333 0.933zM16 30.133c-5.733 0-10.4-4.667-10.4-10.4s4.667-10.533 10.4-10.533 10.4 4.667 10.4 10.4-4.667 10.533-10.4 10.533z"></path>
</svg>
