<!-- Generated by IcoMoon.io -->
<svg version="1.1" xmlns="http://www.w3.org/2000/svg" width="32" height="32" viewBox="0 0 32 32">
<title>package</title>
<path d="M30.667 7.467c0-0.133 0-0.267-0.133-0.4-0.133-0.267-0.267-0.4-0.533-0.4l-13.733-6.667c-0.267-0.133-0.533-0.133-0.667 0l-13.867 6.667c-0.267 0.267-0.4 0.533-0.4 0.8v0c0 0 0 0 0 0v16.933c0 0.267 0.133 0.533 0.4 0.667l13.867 6.667c0 0 0 0 0 0s0 0 0 0 0 0 0 0 0 0 0 0 0 0 0 0 0 0 0.133 0c0 0 0 0 0 0s0 0 0.133 0c0 0 0 0 0.133 0 0 0 0 0 0 0s0 0 0.133 0c0 0 0 0 0 0s0 0 0 0 0 0 0 0 0 0 0 0 0 0 0 0l13.867-6.8c0.267-0.133 0.4-0.4 0.4-0.667l0.267-16.8c0 0.133 0 0.133 0 0zM16 1.733l12 5.867-4.4 2.133-12-5.867 4.4-2.133zM16 13.333l-12-5.733 5.733-2.8 12 5.867-5.733 2.667zM2.933 8.8l12.267 6v15.067l-12.267-6v-15.067zM16.8 29.867v-15.067l5.733-2.8v4c0 0.4 0.4 0.8 0.8 0.8s0.8-0.4 0.8-0.8v-4.8l4.933-2.4v15.067l-12.267 6z"></path>
</svg>
