<!-- Generated by IcoMoon.io -->
<svg version="1.1" xmlns="http://www.w3.org/2000/svg" width="32" height="32" viewBox="0 0 32 32">
<title>paprika</title>
<path d="M29.2 10c-0.667-1.2-1.733-2.133-3.067-2.8l-0.133-0.133h-0.133c-1.733-0.667-3.467-0.667-3.867-0.667-0.267 0-1.333 0-2.533 0.267 0 0 0 0 0 0l1.2-6.667h-5.733l-1.333 6.667c-0.267 0-0.4 0-0.533 0.133-1.467-0.4-2.667-0.4-2.933-0.4-0.533 0-4.133-0.133-6.4 2.267-1.6 1.6-2.133 4-1.733 7.067 0.667 4.933 1.333 8.533 2.267 11.2 1.333 3.333 3.2 4.933 5.733 5.067v0 0c1.067 0 2.133-0.4 2.933-0.933 0.8 0.667 1.867 0.933 2.933 0.933v0 0c1.067 0 2.133-0.4 2.933-0.933 0.8 0.667 1.867 0.933 2.933 0.933v0 0c1.333 0 2.4-0.533 3.467-1.333 1.333-1.2 2.267-3.067 3.067-5.867 0.667-2.4 1.067-5.333 1.6-8.933 0.4-2.4 0.133-4.4-0.667-5.867zM16.4 1.867h2l-0.8 4.667c0 0 0 0 0 0-0.8-0.133-1.333-0.133-1.467-0.133s-0.267 0-0.533 0c0 0 0 0 0 0l0.8-4.533zM10.133 30.133c-4-0.133-5.067-6.4-6.267-14.667-0.267-2.4 0.133-4.267 1.2-5.467 1.6-1.6 4-1.733 4.667-1.733 0.133 0 0.267 0 0.267 0v0 0c0 0.133-0.267 0.267-0.4 0.533-1.6 1.6-2.133 4-1.733 7.067 0.667 4.933 1.333 8.533 2.267 11.2 0.4 1.067 0.933 2 1.467 2.667-0.4 0.267-0.933 0.4-1.467 0.4zM18.133 29.2c-0.133 0.133-0.4 0.267-0.667 0.4-0.533 0.267-1.067 0.4-1.6 0.4s-1.067-0.133-1.6-0.4c-0.533-0.267-0.933-0.8-1.333-1.333-1.733-2.4-2.533-7.2-3.2-12.8-0.267-2.4 0.133-4.267 1.333-5.467 0.533-0.667 1.333-1.067 2-1.333 1.067-0.4 2.133-0.4 2.667-0.4 0.133 0 0.267 0 0.267 0v0c0 0 0 0 0 0s0 0 0 0v0c0 0 1.467-0.133 2.933 0.4 0 0 0.133 0 0.133 0l0.267 0.133c2.267 1.067 3.333 3.2 2.8 6.667-0.667 5.333-1.467 10.267-3.2 12.8-0.267 0.4-0.4 0.667-0.8 0.933zM28.133 15.467c-0.8 6-1.733 11.6-4 13.733-0.667 0.533-1.333 0.8-2.133 0.933-0.533 0-1.067-0.133-1.6-0.4 0.933-1.2 1.6-2.8 2.133-4.933 0.667-2.4 1.067-5.333 1.6-8.933 0.267-2.267 0-4.267-0.8-5.733-0.4-0.667-0.8-1.2-1.333-1.733v0 0c0 0 1.467-0.133 3.067 0.533h0.267c2.267 1.067 3.2 3.2 2.8 6.533z"></path>
</svg>
