<svg version="1.1" xmlns="http://www.w3.org/2000/svg" width="32" height="32" viewBox="0 0 32 32">
<title>paypal</title>
<path d="M20.667 0h-14l-6.267 28.533h8.267l2-9.467h5.867c5.6 0 10.267-3.467 11.6-9.333 1.467-6.667-3.333-9.733-7.467-9.733zM14.533 13.6h-2.667l1.733-7.733h4c1.333 0 2.4 0.8 2.8 2-0.133 0-0.4-0.133-0.533-0.133h-4l-1.333 5.867zM20.4 9.733c-0.533 2.133-2.533 3.867-4.533 3.867l0.933-4.267h3.6c0 0.133 0 0.267 0 0.4zM30.4 11.6c0.533-2.267 0.267-4-0.4-5.467 1.333 1.6 2 3.867 1.333 6.933-1.2 5.867-6 9.333-11.6 9.333h-5.867l-2 9.6h-8.267l0.4-1.6h6.933l2-9.467h5.867c5.6 0.133 10.267-3.333 11.6-9.333z"></path>
</svg>
