<svg version="1.1" xmlns="http://www.w3.org/2000/svg" width="32" height="32" viewBox="0 0 32 32">
<title>percent</title>
<path d="M16 0c-8.8 0-16 7.2-16 16s7.2 16 16 16 16-7.2 16-16v0c0-8.8-7.2-16-16-16zM16 29.867c-7.6 0-13.867-6.267-13.867-13.867s6.267-13.867 13.867-13.867 13.867 6.267 13.867 13.867-6.267 13.867-13.867 13.867v0zM13.867 11.6c0-2-1.733-3.6-3.733-3.6s-3.6 1.6-3.6 3.6 1.6 3.6 3.6 3.6 3.733-1.6 3.733-3.6zM8.667 11.6c0-0.8 0.667-1.467 1.467-1.467s1.467 0.667 1.467 1.467-0.667 1.467-1.467 1.467-1.467-0.667-1.467-1.467zM20.4 18.133c-2 0-3.6 1.6-3.6 3.6s1.6 3.6 3.6 3.6 3.6-1.6 3.6-3.6-1.6-3.6-3.6-3.6zM20.4 23.333c-0.8 0-1.467-0.667-1.467-1.467s0.667-1.467 1.467-1.467 1.467 0.667 1.467 1.467c0 0.8-0.667 1.467-1.467 1.467zM23.333 8.667c-0.4-0.4-1.067-0.4-1.6 0 0 0 0 0 0 0l-13.733 13.867c-0.4 0.4-0.4 1.067 0 1.6 0.4 0.4 1.067 0.4 1.6 0 0 0 0 0 0 0l13.733-13.867c0.4-0.533 0.4-1.2 0-1.6z"></path>
</svg>
