<svg version="1.1" xmlns="http://www.w3.org/2000/svg" width="32" height="32" viewBox="0 0 32 32">
<title>phone</title>
<path d="M31.2 23.6l-4-4c-1.067-1.067-2.933-1.067-4 0l-1.867 1.867c-0.8 0.8-2.133 0.8-3.067 0l-7.867-7.867c-0.8-0.8-0.8-2.133 0-3.067 0.267-0.267 1.067-1.067 1.867-1.867 1.067-1.067 1.067-2.933 0-4l-4-4c-1.067-1.067-2.933-1.067-4 0-0.667 0.933-0.933 1.2-1.333 1.6-4 4-4 10.4 0 14.4l12.4 12.4c4 4 10.4 4 14.4 0l1.467-1.467c1.067-1.067 1.067-2.933 0-4zM5.733 2.133c0.4-0.4 0.933-0.4 1.333 0l4 4c0.4 0.4 0.4 0.933 0 1.333l-0.667 0.667-5.333-5.333 0.667-0.667zM16.667 27.733l-12.4-12.4c-3.067-3.067-3.2-7.867-0.533-11.2l5.333 5.333c-1.333 1.6-1.333 4 0.133 5.467l7.867 7.867c0 0 0 0 0 0 1.467 1.467 3.867 1.6 5.467 0.133l5.333 5.333c-3.333 2.667-8.133 2.533-11.2-0.533zM29.867 26.267l-0.667 0.667-5.333-5.333 0.667-0.667c0.4-0.4 0.933-0.4 1.333 0l4 4c0.4 0.4 0.4 0.933 0 1.333z"></path>
</svg>
