<!-- Generated by IcoMoon.io -->
<svg version="1.1" xmlns="http://www.w3.org/2000/svg" width="32" height="32" viewBox="0 0 32 32">
<title>pinterest</title>
<path d="M28.267 8.933c-0.933-6.267-7.2-9.6-13.867-8.8-5.333 0.533-10.667 4.933-10.8 11.067-0.133 3.733 0.933 6.533 4.533 7.333 1.6-2.8-0.533-3.333-0.8-5.333-1.333-8.133 9.333-13.6 14.933-8 3.867 3.867 1.333 16-4.933 14.667-6-1.2 2.933-10.8-1.867-12.667-3.867-1.467-6 4.8-4.133 7.867-1.067 5.333-3.333 10.267-2.4 16.933 3.067-2.267 4-6.4 4.933-10.8 1.467 0.933 2.4 1.867 4.267 2 7.2 0.533 11.2-7.2 10.133-14.267z"></path>
</svg>
