<!-- Generated by IcoMoon.io -->
<svg version="1.1" xmlns="http://www.w3.org/2000/svg" width="32" height="32" viewBox="0 0 32 32">
<title>pizza</title>
<path d="M16 0l-15.867 27.467 0.8 0.533c4.667 2.667 9.733 4 15.067 4 0.133 0 0.133 0 0.267 0 5.2 0 10.267-1.467 14.8-4l0.8-0.533-15.867-27.467zM23.2 16.133l2.267 4c-0.4 0.267-0.8 0.4-1.2 0.4-1.2 0-2.267-1.067-2.267-2.267-0.133-0.933 0.4-1.733 1.2-2.133zM8.8 16.133c0.8 0.4 1.2 1.2 1.2 2 0 1.2-1.067 2.267-2.267 2.267-0.4 0-0.933-0.133-1.2-0.4l2.267-3.867zM5.6 21.733c0.667 0.4 1.467 0.667 2.133 0.667 2.267 0 4.133-1.867 4.133-4.133 0-1.6-0.933-2.933-2.133-3.733l6.267-10.8 6.267 10.8c-1.333 0.667-2.267 2.133-2.267 3.733 0 2.267 1.867 4.133 4.133 4.133 0.8 0 1.6-0.267 2.133-0.667l0.933 1.6c-7.2 3.2-15.467 3.2-22.667 0l1.067-1.6zM2.667 26.8l1.067-1.733c3.867 1.733 8.133 2.667 12.267 2.667s8.4-0.933 12.267-2.667l1.067 1.733c-8.4 4.4-18.4 4.4-26.667 0zM16.133 8.533c-1.6 0-2.8 1.333-2.8 2.8s1.333 2.8 2.8 2.8c1.6 0 2.8-1.333 2.8-2.8s-1.2-2.8-2.8-2.8zM16.133 12.267c-0.533 0-0.933-0.4-0.933-0.933s0.4-0.933 0.933-0.933c0.533 0 0.933 0.4 0.933 0.933 0.133 0.533-0.4 0.933-0.933 0.933zM11.318 22.484l1.756-0.633 0.633 1.756-1.756 0.633-0.633-1.756zM17.2 15.867h1.867v1.867h-1.867v-1.867zM12.184 15.252l1.788-0.536 0.536 1.788-1.788 0.536-0.536-1.788zM18.095 23.696l0.5-1.798 1.798 0.5-0.5 1.798-1.798-0.5zM13.671 19.557l1.257-1.38 2.76 2.513-1.257 1.38-2.76-2.513z"></path>
</svg>
