<!-- Generated by IcoMoon.io -->
<svg version="1.1" xmlns="http://www.w3.org/2000/svg" width="32" height="32" viewBox="0 0 32 32">
<title>plane</title>
<path d="M16 2.4c0.533 0 1.067 0.267 1.467 0.8 0.533 0.667 0.8 1.467 0.8 2.267v6l9.067 6.8v2.267l-9.867-3.733v8.267l3.733 3.067v1.467l-5.333-1.467-5.333 1.467v-1.467l3.733-3.067v-8.267l-9.867 3.733v-2.267l9.067-6.8v-6.133c0-0.8 0.267-1.6 0.8-2.267 0.667-0.4 1.2-0.667 1.733-0.667zM16 0.133c-1.2 0-2.267 0.533-3.067 1.467-0.933 0.933-1.467 2.4-1.467 3.733v4.933l-8.133 6.133c-0.533 0.4-0.933 1.067-0.933 1.867v2.267c0 1.2 1.067 2.267 2.267 2.267 0.267 0 0.533 0 0.8-0.133l6.8-2.667v4l-2.933 2.4c-0.533 0.4-0.8 1.067-0.8 1.733v1.467c0 1.2 1.067 2.267 2.267 2.267 0.267 0 0.4 0 0.667-0.133l4.667-1.333 4.667 1.333c0.267 0 0.4 0.133 0.667 0.133 1.2 0 2.267-1.067 2.267-2.267v-1.467c0-0.667-0.267-1.333-0.8-1.733l-3.2-2.4v-4l6.8 2.533c0.267 0.133 0.533 0.133 0.8 0.133 1.2 0 2.267-1.067 2.267-2.267v-2.267c0-0.667-0.4-1.333-0.933-1.867l-8.133-6.133v-4.8c0-1.467-0.533-2.8-1.467-3.867-0.8-0.8-1.867-1.333-3.067-1.333v0z"></path>
</svg>
