<svg version="1.1" xmlns="http://www.w3.org/2000/svg" width="32" height="32" viewBox="0 0 32 32">
<title>play-circle</title>
<path d="M16 0c-8.8 0-16 7.2-16 16s7.2 16 16 16 16-7.2 16-16c0-8.8-7.2-16-16-16zM16 29.867c-7.6 0-13.867-6.267-13.867-13.867s6.267-13.867 13.867-13.867 13.867 6.267 13.867 13.867v0c0 7.6-6.267 13.867-13.867 13.867zM21.333 14l-7.333-3.6c-1.067-0.533-2.267-0.133-2.8 0.933-0.267 0.4-0.267 0.667-0.267 1.067v7.333c0 1.2 0.933 2.133 2.133 2.133 0.4 0 0.667-0.133 0.933-0.267l7.333-3.6c1.067-0.533 1.467-1.867 0.933-2.933-0.133-0.533-0.533-0.8-0.933-1.067zM13.067 19.6v-7.2l7.333 3.6-7.333 3.6z"></path>
</svg>
