<svg version="1.1" xmlns="http://www.w3.org/2000/svg" width="32" height="32" viewBox="0 0 32 32">
<title>pot</title>
<path d="M30.667 9.333h-29.333c-0.8 0-1.333 0.533-1.333 1.333v2.667h2.667v-1.333h1.333v14.667c0 2.267 1.733 4 4 4h16c2.267 0 4-1.733 4-4v-14.667h1.333v1.333h2.667v-2.667c0-0.8-0.533-1.333-1.333-1.333zM25.333 26.667c0 0.8-0.533 1.333-1.333 1.333h-16c-0.8 0-1.333-0.533-1.333-1.333v-14.667h18.667v14.667zM28 5.333h-8v-1.333c0-1.467-1.2-2.667-2.667-2.667h-2.667c-1.467 0-2.667 1.2-2.667 2.667v1.333h-8v2.667h24v-2.667zM14.667 4h2.667v1.333h-2.667v-1.333z"></path>
</svg>
