<!-- Generated by IcoMoon.io -->
<svg version="1.1" xmlns="http://www.w3.org/2000/svg" width="32" height="32" viewBox="0 0 32 32">
<title>printer</title>
<path d="M26.533 6.533h-0.8v-1.867c0-2.667-2.133-4.667-4.667-4.667h-10c-2.667 0-4.667 2.133-4.667 4.667v1.867h-0.933c-2.667 0-4.667 2.133-4.667 4.667v7.6c0 2.667 2.133 4.667 4.667 4.667h0.8v6c0 1.333 1.067 2.4 2.4 2.4h14.667c1.333 0 2.4-1.067 2.4-2.4v-6h0.8c2.667 0 4.667-2.133 4.667-4.667v-7.467c0-2.667-2.133-4.8-4.667-4.8zM8 4.667c0-1.6 1.333-2.933 2.933-2.933h9.867c1.6 0 2.933 1.333 2.933 2.933v1.867h-15.733v-1.867zM23.867 29.6c0 0.267-0.267 0.533-0.533 0.533h-14.667c-0.267 0-0.533-0.267-0.533-0.533v-9.867h15.867v9.867zM29.467 18.933c0 1.6-1.333 2.933-2.933 2.933h-0.8v-2.133h1.2c0.533 0 0.933-0.4 0.933-0.933s-0.4-0.933-0.933-0.933h-22c-0.533 0-0.933 0.4-0.933 0.933s0.4 0.933 0.933 0.933h1.333v2.133h-0.8c-1.6 0-2.933-1.333-2.933-2.933v-7.6c0-1.6 1.333-2.933 2.933-2.933h20.933c1.6 0 2.933 1.333 2.933 2.933v7.6zM10.267 24.133h11.467c0.533 0 0.933-0.4 0.933-0.933s-0.4-0.933-0.933-0.933h-11.467c-0.533 0-0.933 0.4-0.933 0.933s0.4 0.933 0.933 0.933zM21.733 26h-11.467c-0.533 0-0.933 0.4-0.933 0.933s0.4 0.933 0.933 0.933h11.467c0.533 0 0.933-0.4 0.933-0.933s-0.533-0.933-0.933-0.933zM26.4 10.133h-1.867c-0.533 0-0.933 0.4-0.933 0.933s0.4 0.933 0.933 0.933h1.867c0.533 0 0.933-0.4 0.933-0.933s-0.4-0.933-0.933-0.933z"></path>
</svg>
