<svg version="1.1" xmlns="http://www.w3.org/2000/svg" width="32" height="32" viewBox="0 0 32 32">
<title>pumpkin</title>
<path d="M30.4 12c-1.2-2.267-2.8-3.6-4.533-3.6-0.8 0-1.6 0.267-2.4 0.8-0.8-0.533-1.6-0.8-2.4-0.8-0.933 0-1.733 0.267-2.533 0.933-0.133-0.133-0.133-0.133-0.267-0.267 0-1.733 1.733-3.867 2.4-4.667l0.8-0.8-4.133-2.8-0.667 0.533c-3.2 2.667-3.6 6.133-3.467 7.733-0.667-0.4-1.333-0.667-2.133-0.667s-1.6 0.4-2.4 0.933c-0.667-0.533-1.467-0.933-2.4-0.933-1.733 0-3.333 1.333-4.533 3.6-1.067 2.133-1.6 4.8-1.6 7.733s0.533 5.733 1.6 7.733c1.2 2.267 2.8 3.6 4.533 3.6 0.8 0 1.6-0.267 2.4-0.8 0.8 0.533 1.467 0.8 2.4 0.8s1.733-0.267 2.533-0.933c0.8 0.667 1.6 0.933 2.533 0.933s1.733-0.267 2.533-0.933c0.8 0.667 1.6 0.933 2.533 0.933 0.8 0 1.6-0.267 2.4-0.8 0.8 0.533 1.6 0.8 2.4 0.8 1.733 0 3.467-1.2 4.533-3.6 1.067-2.133 1.6-4.8 1.6-7.733 0-2.8-0.667-5.6-1.733-7.733zM17.467 3.2l1.2 0.8c-0.267 0.4-0.533 0.8-0.933 1.2-0.667 1.067-1.2 2.133-1.333 3.2-0.133 0-0.267 0-0.4 0-0.4 0-0.667 0-1.067 0.133 0.133-1.2 0.533-3.467 2.533-5.333zM6.267 29.333c-1.067 0-2.133-0.933-2.933-2.533-0.933-1.867-1.467-4.267-1.467-6.933s0.533-5.067 1.467-6.933c0.933-1.733 2-2.533 2.933-2.533 0.4 0 0.8 0 1.067 0.267-0.267 0.4-0.533 0.8-0.8 1.333-1.067 2.133-1.6 4.8-1.6 7.733s0.533 5.733 1.6 7.733c0.267 0.533 0.533 0.933 0.8 1.333-0.267 0.4-0.667 0.533-1.067 0.533zM11.067 29.333c-0.4 0-0.667-0.133-1.067-0.267-0.533-0.267-0.933-0.667-1.333-1.333-0.133-0.267-0.4-0.533-0.533-0.933-0.933-1.867-1.467-4.4-1.467-6.933 0-2.667 0.533-5.067 1.467-6.933 0.133-0.4 0.4-0.667 0.533-0.933 0.4-0.667 0.933-1.067 1.333-1.333s0.667-0.267 1.067-0.267c0.4 0 0.8 0.133 1.2 0.4-0.267 0.4-0.533 0.8-0.8 1.2 0 0.267-0.133 0.4-0.267 0.667-0.4 0.933-0.667 2-0.933 3.2s-0.4 2.533-0.4 4c0 1.333 0.133 2.667 0.4 4 0.267 1.067 0.533 2.133 0.933 3.2 0.133 0.267 0.267 0.4 0.267 0.667 0.267 0.267 0.533 0.8 0.8 1.067-0.4 0.267-0.8 0.533-1.2 0.533zM18.667 27.467c-0.4 0.667-0.8 1.067-1.333 1.467-0.4 0.267-0.8 0.4-1.2 0.4s-0.8-0.133-1.2-0.4c-0.4-0.267-0.933-0.8-1.333-1.467-0.133-0.267-0.267-0.4-0.4-0.667-0.4-0.8-0.8-1.867-1.067-2.933-0.267-1.2-0.4-2.533-0.4-4 0-1.333 0.133-2.8 0.4-4 0.267-1.067 0.533-2.133 1.067-2.933 0.133-0.267 0.267-0.4 0.4-0.667 0.4-0.667 0.8-1.067 1.333-1.467 0.4-0.267 0.8-0.4 1.2-0.4s0.8 0.133 1.2 0.4c0.4 0.267 0.933 0.8 1.333 1.467 0.133 0.267 0.267 0.4 0.4 0.667 0.4 0.8 0.8 1.867 1.067 2.933 0.267 1.2 0.4 2.533 0.4 4 0 1.333-0.133 2.8-0.4 4-0.267 1.067-0.533 2.133-1.067 2.933-0.133 0.133-0.267 0.4-0.4 0.667zM23.467 27.6c-0.4 0.667-0.933 1.067-1.333 1.333-0.4 0.133-0.667 0.267-1.067 0.267s-0.8-0.133-1.2-0.4c0.267-0.4 0.533-0.8 0.8-1.2 0.133-0.267 0.267-0.4 0.267-0.667 0.4-0.933 0.667-2 0.933-3.2s0.4-2.533 0.4-4c0-1.333-0.133-2.667-0.4-4-0.267-1.067-0.533-2.133-0.933-3.2-0.133-0.267-0.267-0.4-0.267-0.667-0.267-0.4-0.533-0.933-0.8-1.2 0.4-0.267 0.8-0.4 1.2-0.4s0.667 0.133 1.067 0.267c0.533 0.267 0.933 0.667 1.333 1.333 0.133 0.267 0.4 0.533 0.533 0.933 0.933 1.867 1.467 4.267 1.467 6.933s-0.533 5.067-1.467 6.933c-0.133 0.4-0.267 0.667-0.533 0.933zM28.8 26.8c-0.8 1.6-1.867 2.533-2.933 2.533-0.4 0-0.667-0.133-1.067-0.267 0.267-0.4 0.533-0.933 0.8-1.333 1.067-2.133 1.6-4.8 1.6-7.733s-0.533-5.733-1.6-7.733c-0.267-0.533-0.533-0.933-0.8-1.333 0.4-0.133 0.667-0.267 1.067-0.267 1.067 0 2.133 0.933 2.933 2.533 0.933 1.867 1.467 4.267 1.467 6.933 0 2.267-0.533 4.8-1.467 6.667z"></path>
</svg>
