<svg version="1.1" xmlns="http://www.w3.org/2000/svg" width="32" height="32" viewBox="0 0 32 32">
<title>reduce</title>
<path d="M30.267 13.467c0 0 0 0 0 0 0 0.667-0.533 1.2-1.2 1.2h-26.133c-0.667 0-1.2-0.533-1.2-1.2s0.133-1.2 0.8-1.2h12.133l-3.067-2.933c-0.133-0.133-0.267-0.533-0.267-0.8s0.133-0.667 0.4-0.8 1.2-0.533 1.733 0l1.467 1.467v-7.2c0-2 2.4-3.333 2.4 0v7.067l1.2-1.467c0.4-0.4 1.2-0.4 1.733 0s0.533 1.2 0 1.733l-2.933 2.933h11.467c0.533 0 1.467 0.533 1.467 1.2zM1.733 18.4c0 0 0 0 0 0 0-0.667 0.533-1.2 1.2-1.2h26.133c0.667 0 1.2 0.533 1.2 1.2s-0.133 1.2-0.8 1.2h-12.133l2.933 2.933c0.267 0.267 0.4 0.533 0.4 0.8s-0.133 0.667-0.4 0.8-1.2 0.533-1.733 0l-1.467-1.467v7.067c0 2-2.4 3.333-2.4 0v-7.067l-1.2 1.467c-0.4 0.4-1.2 0.4-1.733 0s-0.533-1.2 0-1.733l2.933-2.933h-11.333c-0.667 0.133-1.6-0.4-1.6-1.067z"></path>
</svg>
