<!-- Generated by IcoMoon.io -->
<svg version="1.1" xmlns="http://www.w3.org/2000/svg" width="32" height="32" viewBox="0 0 32 32">
<title>reload</title>
<path d="M30.933 13.333l-2.267 2.267c0 0.4 0 0.667 0 1.067-0.133 6.933-5.867 12.533-12.8 12.4s-12.533-5.867-12.4-12.8c0.267-6.933 5.867-12.4 12.8-12.4 2.667-0.133 5.467 0.8 7.6 2.533l-3.467 0.533c-0.667 0.133-1.2 0.8-1.067 1.467 0 0.533 0.533 0.933 1.067 0.933 0 0 0.133 0 0.133 0l5.867-0.8c0.667-0.133 1.2-0.8 1.067-1.467l-0.8-6c0-0.667-0.667-1.2-1.333-1.067s-1.2 0.8-1.067 1.467l0.4 2.4c-2.4-1.733-5.333-2.667-8.4-2.667-8.533 0-15.467 6.667-15.6 15.2s6.667 15.467 15.2 15.6c8.533 0.133 15.467-6.667 15.6-15.2-0.133-1.2-0.267-2.4-0.533-3.467z"></path>
</svg>
