<!-- Generated by IcoMoon.io -->
<svg version="1.1" xmlns="http://www.w3.org/2000/svg" width="32" height="32" viewBox="0 0 32 32">
<title>remove-folder</title>
<path d="M28.933 16.533v-6.667c0-2.133-1.733-3.867-3.867-3.867h-8.933l-1.333-2c-0.8-1.2-2.133-1.867-3.6-1.867h-5.733c-1.333 0-2.533 0.667-3.2 1.867l-1.6 2.667c-0.533 0.8-0.667 1.467-0.667 2.133v14c0 2.133 1.733 3.867 3.867 3.867h15.067c2.267 3.2 6.8 4 10.133 1.733 3.2-2.267 4-6.8 1.733-10.133-0.667-0.667-1.2-1.2-1.867-1.733zM3.867 24.4c-0.8 0-1.467-0.667-1.467-1.467v-14.133c0-0.267 0.133-0.533 0.267-0.8l1.6-2.667c0.267-0.4 0.8-0.8 1.333-0.8h5.867c0.533 0 1.067 0.267 1.467 0.8l1.467 2.267c0.4 0.533 0.933 0.8 1.467 0.8h9.2c0.8 0 1.467 0.667 1.467 1.467v5.6c-0.667-0.133-1.2-0.267-1.867-0.267-4 0-7.2 3.2-7.2 7.2 0 0.667 0.133 1.333 0.267 2h-13.867zM24.8 27.467c-2.8 0-4.933-2.267-4.933-4.933s2.267-4.933 4.933-4.933 4.933 2.267 4.933 4.933v0c0 2.667-2.267 4.933-4.933 4.933zM27.067 21.333h-4.533c-0.667 0-1.2 0.533-1.2 1.2s0.533 1.2 1.2 1.2h4.533c0.667 0 1.2-0.533 1.2-1.2-0.133-0.667-0.533-1.2-1.2-1.2z"></path>
</svg>
