<!-- Generated by IcoMoon.io -->
<svg version="1.1" xmlns="http://www.w3.org/2000/svg" width="32" height="32" viewBox="0 0 32 32">
<title>remove-document</title>
<path d="M27.2 18.267v-7.867c0-0.667-0.133-1.467-0.533-2 0-0.133-0.133-0.267-0.267-0.267l-5.333-6.267c-0.667-1.2-1.867-1.867-3.2-1.867h-12.267c-2.267 0-4 1.733-4 4v22.4c0 2.267 1.733 4 4 4h12.533c3.333 2.533 8.133 2 10.667-1.333s2-8.133-1.333-10.667c-0.133 0-0.133-0.133-0.267-0.133zM4 26.4v-22.4c0-0.933 0.667-1.6 1.6-1.6h12.267c0.533 0 1.067 0.267 1.333 0.8l5.333 6.4c0.133 0.267 0.267 0.533 0.267 0.8v6.667c-0.667-0.133-1.333-0.267-2-0.267-4.133 0-7.6 3.467-7.6 7.6 0 1.2 0.267 2.533 0.933 3.6h-10.533c-0.933 0-1.6-0.667-1.6-1.6zM22.8 29.6c-2.933 0-5.2-2.267-5.2-5.2s2.267-5.2 5.2-5.2 5.2 2.267 5.2 5.2-2.267 5.2-5.2 5.2v0zM25.2 23.2h-4.8c-0.667 0-1.2 0.533-1.2 1.2s0.533 1.2 1.2 1.2h4.8c0.667 0 1.2-0.533 1.2-1.2s-0.533-1.2-1.2-1.2z"></path>
</svg>
