<svg version="1.1" xmlns="http://www.w3.org/2000/svg" width="32" height="32" viewBox="0 0 32 32">
<title>reply</title>
<path d="M9.6 4.667v4.4h5.733c0 0 6.933 0.933 10.533 4.4 3.2 3.067 3.733 13.867 3.733 13.867s-0.133-13.067-14.267-13.067h-5.733v4.4l-6.933-7.067 6.8-6.933zM9.467 2.133c-0.8 0-1.6 0.267-2.133 0.8l-6.667 6.933c-0.933 1.067-0.933 2.667 0.133 3.6 0 0 0 0 0 0l7.467 6.933c0.533 0.4 1.067 0.667 1.733 0.667 0.4 0 0.667-0.133 1.067-0.267 0.933-0.4 1.067-1.333 1.067-2.4v-1.733h3.2c11.467 0 11.333 10.133 11.467 10.533 0.133 1.333 1.2 2.4 2.667 2.4h0.133c1.467 0 2.533-1.2 2.533-2.667 0-2-0.533-12-4.267-15.6-4-4-11.2-4.933-12-5.067-0.133 0-0.133 0-0.267 0h-3.467v-1.6c0-1.067-0.8-2-1.733-2.4-0.267-0.133-0.667-0.133-0.933-0.133v0z"></path>
</svg>
