<svg version="1.1" xmlns="http://www.w3.org/2000/svg" width="32" height="32" viewBox="0 0 32 32">
<title>rocket</title>
<path d="M18.533 9.733c-0.8 0-1.733 0.267-2.4 0.8-1.6 1.333-1.867 3.6-0.533 5.2 0.667 0.8 1.733 1.333 2.933 1.333 0.8 0 1.733-0.267 2.4-0.8 1.6-1.333 1.867-3.6 0.533-5.2-0.667-0.933-1.733-1.333-2.933-1.333zM19.467 14.533c-0.667 0.533-1.6 0.4-2.133-0.267s-0.4-1.6 0.267-2.133c0 0 0 0 0 0 0.267-0.267 0.533-0.267 0.933-0.267 0.8 0 1.467 0.667 1.467 1.467 0 0.533-0.133 0.933-0.533 1.2zM32 2.267c0-1.2-0.933-2.133-2.133-2.133 0 0-0.267 0-0.933 0-3.2 0-11.2 0.533-16.133 5.333-0.8 0.933-1.467 1.867-2.267 2.8 0 0-0.133 0-0.133 0l-8.933 3.067c-1.2 0.4-1.733 1.6-1.333 2.8 0.133 0.267 0.267 0.667 0.533 0.8l4.667 4.667c-0.667 0.267-1.2 0.533-1.733 1.067-1.067 1.333-1.6 2.933-1.333 4.667-0.133 0.267-0.267 0.667-0.4 0.933-0.4 0.667-0.533 1.333-0.133 2 0.267 0.667 0.933 1.2 1.6 1.333 0.267 0 0.4 0 0.667 0 0.667 0 1.333-0.133 1.867-0.533 0.133 0.267 0.4 0.267 0.667 0.4 0.4 0.133 0.8 0.133 1.333 0.133 1.333 0 2.533-0.533 3.467-1.467 0.533-0.533 0.8-1.067 1.067-1.733l4.667 4.667c0.4 0.4 0.933 0.667 1.6 0.667 0.133 0 0.4 0 0.533 0 0.8-0.133 1.333-0.667 1.6-1.467l2.933-8.667c1.067-0.667 2-1.467 2.8-2.4 5.733-5.733 5.467-16.4 5.467-16.933zM8.667 11.2c-1.067 2-1.867 4-2.4 6.133l-4-4 6.4-2.133zM9.6 26.667c-0.667 0.667-1.6 0.933-2.533 0.667 0 0-0.133-1.733-0.533-2.133 0 0-1.333 2.267-2.667 2.267-0.133 0-0.133 0-0.267 0 0.4-0.667 0.667-1.467 0.8-2.267-0.133-1.067 0.133-2 0.8-2.8 0.667-0.533 1.6-0.8 2.4-0.8s1.467 0.267 2 0.8c0-0.133 1.6 2.667 0 4.267v0zM18.533 29.6l-4.267-4.267c2.267-0.4 4.4-1.067 6.4-2l-2.133 6.267zM24.8 17.733c-3.2 3.2-7.467 5.067-11.867 5.6l-0.8-0.8c-0.133-0.4-0.267-0.933-0.533-1.333-0.133-0.133-0.267-0.4-0.4-0.533-0.533-0.533-1.333-0.933-2.133-1.2l-0.933-0.933c0.933-4.4 3.067-8.4 6.267-11.467 1.733-1.733 4-2.933 6.4-3.6 0 2.133 0.667 4.133 2.133 5.733 1.467 1.333 3.467 2.133 5.6 2v0c-0.667 2.4-2 4.667-3.733 6.533v0zM29.067 8.933c-2 0.133-3.6-0.4-4.667-1.333-0.933-0.933-1.467-2.667-1.467-4.667 2-0.4 4-0.533 6-0.533 0.267 0 0.533 0 0.667-0.133 0.133 2.267 0 4.533-0.533 6.667v0z"></path>
</svg>
