<!-- Generated by IcoMoon.io -->
<svg version="1.1" xmlns="http://www.w3.org/2000/svg" width="32" height="32" viewBox="0 0 32 32">
<title>ruler</title>
<path d="M31.733 9.6c-0.133-0.133-0.4-0.267-0.533-0.267h-30.4c-0.4 0-0.8 0.4-0.8 0.8v11.733c0 0.133 0.133 0.4 0.267 0.533s0.4 0.267 0.533 0.267h30.267c0.533 0 0.8-0.267 0.8-0.667v-11.733c0.133-0.4 0-0.533-0.133-0.667zM30.267 21.2h-3.467v-2.133c0-0.133-0.133-0.4-0.267-0.533s-0.4-0.267-0.667-0.267c-0.533 0-0.8 0.267-0.8 0.667v2.133h-3.333v-4c0-0.133-0.133-0.4-0.267-0.533s-0.4-0.267-0.667-0.267c-0.533 0-0.8 0.267-0.8 0.667v4h-3.333v-2.133c0-0.133-0.133-0.4-0.267-0.533s-0.4-0.267-0.667-0.267c-0.533 0-0.8 0.267-0.8 0.667v2.133h-3.067v-4c0-0.133-0.133-0.4-0.267-0.533s-0.4-0.267-0.533-0.267v0c-0.533 0-0.8 0.267-0.8 0.667v4h-3.333v-2.133c0-0.133-0.133-0.4-0.267-0.533s-0.4-0.267-0.667-0.267c-0.533 0-0.8 0.267-0.8 0.667v2.133h-3.467v-9.733h28.533v10.4z"></path>
</svg>
