<svg version="1.1" xmlns="http://www.w3.org/2000/svg" width="32" height="32" viewBox="0 0 32 32">
<title>scale</title>
<path d="M27.467 26.533l-1.733-13.867c-0.4-2.667-2.533-4.667-5.2-4.667h-1.733v-2.4h6.4c1.467 0 2.8-1.333 2.8-2.8v-2.8h-24v2.8c0 1.467 1.333 2.8 2.8 2.8h6.4v2.4h-1.733c-2.667 0-4.933 2-5.2 4.667l-1.733 13.867h-1.867v5.467h26.667v-5.467h-1.867zM6.8 3.733c-0.533 0-0.933-0.4-0.933-0.933v-0.933h20.133v0.933c0 0.533-0.4 0.933-0.933 0.933 0.133 0-18.267 0-18.267 0zM16.933 5.6v2.4h-1.733v-2.4h1.733zM8.133 12.933c0.267-1.733 1.733-2.933 3.467-2.933h8.933c1.733 0 3.2 1.333 3.467 2.933l1.733 13.6h-19.333l1.733-13.6zM27.467 30.133h-22.933v-1.733h22.933v1.733zM16 12.133c-3.333 0-6.133 2.8-6.133 6.133s2.8 6.133 6.133 6.133 6.133-2.8 6.133-6.133-2.8-6.133-6.133-6.133zM16 22.533c-2.4 0-4.267-1.867-4.267-4.267s1.867-4.267 4.267-4.267 4.267 1.867 4.267 4.267-1.867 4.267-4.267 4.267zM15.067 15.2h1.867v3.067h-1.867v-3.067z"></path>
</svg>
