<!-- Generated by IcoMoon.io -->
<svg version="1.1" xmlns="http://www.w3.org/2000/svg" width="32" height="32" viewBox="0 0 32 32">
<title>scroll</title>
<path d="M16.667 6.133c-0.8 0-1.067 0.667-1.067 1.333v4.533c0 0.8 0.4 1.333 1.067 1.333s1.067-0.667 1.067-1.333v-4.4c0-0.8-0.4-1.467-1.067-1.467zM17.467 0h-2.533c-5.2 0-9.6 4.267-9.6 9.6v12.667c0 5.333 4.267 9.6 9.6 9.6h2.533c5.333 0 9.6-4.267 9.6-9.6v-12.667c0.133-5.333-4.267-9.6-9.6-9.6zM24.933 22.4c0 4.133-3.333 7.467-7.467 7.467h-2.533c-4.133 0-7.467-3.333-7.467-7.467v-12.8c0-4.133 3.333-7.467 7.467-7.467h2.533c4.133 0 7.467 3.333 7.467 7.467v12.8z"></path>
</svg>
