<svg version="1.1" xmlns="http://www.w3.org/2000/svg" width="32" height="32" viewBox="0 0 32 32">
<title>search</title>
<path d="M30.8 30l-7.2-7.2c5.2-5.2 5.2-13.733-0.133-18.933-5.067-5.2-13.6-5.2-18.8 0.133-5.2 5.2-5.2 13.733 0.133 18.933 4.533 4.533 11.867 5.2 17.067 1.467l7.333 7.333c0.4 0.4 1.2 0.4 1.6 0 0.533-0.533 0.533-1.333 0-1.733zM3.333 13.467c0-6 4.933-10.933 10.933-10.933s10.933 4.933 10.933 10.933c0 6-4.933 10.933-10.933 10.933s-10.933-4.933-10.933-10.933c0 0 0 0 0 0z"></path>
</svg>
