<svg version="1.1" xmlns="http://www.w3.org/2000/svg" width="32" height="32" viewBox="0 0 32 32">
<title>security-check</title>
<path d="M16 2.133c10.933 0 11.6 2.933 11.6 2.933v9.733c0 5.2-2.8 10.133-7.467 12.667l-4.133 2.4-4.267-2.4c-4.533-2.533-7.467-7.467-7.467-12.667v-9.733c0.133 0 0.133-2.933 11.733-2.933zM16 0c-5.2 0-8.933 0.533-11.2 1.733-2.533 1.2-2.667 2.933-2.667 3.467v9.733c0 6 3.2 11.6 8.533 14.533l4.267 2.4c0.667 0.4 1.467 0.4 2.133 0l4.267-2.533c5.2-2.933 8.533-8.533 8.533-14.533v-9.733c0-0.133 0-0.4 0-0.533-0.533-1.733-2.933-4.533-13.867-4.533v0zM15.333 20c-0.267 0-0.533-0.133-0.8-0.267l-5.067-5.067c-0.4-0.4-0.4-1.067 0-1.6 0.4-0.4 1.067-0.4 1.467 0l4.267 4.267 7.2-7.2c0.4-0.4 1.067-0.4 1.6 0 0.4 0.4 0.4 1.067 0 1.6 0 0 0 0 0 0l-8 8c-0.133 0.133-0.4 0.267-0.667 0.267z"></path>
</svg>
