<!-- Generated by IcoMoon.io -->
<svg version="1.1" xmlns="http://www.w3.org/2000/svg" width="32" height="32" viewBox="0 0 32 32">
<title>security-prohibition</title>
<path d="M29.733 4.533c-0.4-1.733-2.8-4.533-13.733-4.533-5.2 0-8.933 0.533-11.2 1.733-2.533 1.2-2.667 2.933-2.667 3.467v9.733c0 6 3.2 11.6 8.533 14.533l4.267 2.4c0.667 0.4 1.467 0.4 2.133 0l4.267-2.533c5.2-2.933 8.533-8.533 8.533-14.533v-9.733c0-0.133-0.133-0.267-0.133-0.533zM27.6 14.8c0 5.2-2.8 10.133-7.467 12.667l-4.133 2.4-4.267-2.4c-4.533-2.533-7.467-7.467-7.467-12.667v-9.733c0 0 0-2.933 11.6-2.933 10.933 0 11.6 2.933 11.6 2.933v9.733zM16 6.533c-4 0-7.333 3.2-7.333 7.333s3.333 7.2 7.333 7.2 7.333-3.2 7.333-7.333c0-3.867-3.333-7.2-7.333-7.2zM16 8.667c0.933 0 1.867 0.267 2.8 0.8l-7.067 7.067c-1.467-2.4-0.8-5.467 1.467-7.067 0.933-0.4 1.867-0.8 2.8-0.8zM16 18.933c-0.933 0-1.867-0.267-2.8-0.8l7.067-7.067c1.467 2.4 0.8 5.467-1.467 7.067-0.8 0.533-1.867 0.8-2.8 0.8z"></path>
</svg>
