<!-- Generated by IcoMoon.io -->
<svg version="1.1" xmlns="http://www.w3.org/2000/svg" width="32" height="32" viewBox="0 0 32 32">
<title>security-announcement</title>
<path d="M29.733 4.533c-0.4-1.733-2.8-4.533-13.733-4.533-5.2 0-8.933 0.533-11.2 1.733-2.533 1.2-2.667 2.933-2.667 3.467v9.733c0 6 3.2 11.6 8.533 14.533l4.267 2.4c0.667 0.4 1.467 0.4 2.133 0l4.267-2.533c5.2-2.933 8.533-8.533 8.533-14.533v-9.733c0-0.133-0.133-0.267-0.133-0.533zM27.6 14.8c0 5.2-2.8 10.133-7.467 12.667l-4.133 2.4-4.267-2.4c-4.533-2.533-7.467-7.467-7.467-12.667v-9.733c0 0 0-2.933 11.6-2.933 10.933 0 11.6 2.933 11.6 2.933v9.733zM15.6 22.533c-0.667 0-1.067 0.533-1.067 1.067 0 0.667 0.533 1.067 1.067 1.067s1.067-0.533 1.067-1.067c0-0.533-0.4-1.067-1.067-1.067zM15.6 6.133c-0.667 0-1.067 0.533-1.067 1.067v11.6c0 0.667 0.533 1.067 1.067 1.067s1.067-0.533 1.067-1.067v-11.467c0-0.667-0.4-1.2-1.067-1.2z"></path>
</svg>
