<!-- Generated by IcoMoon.io -->
<svg version="1.1" xmlns="http://www.w3.org/2000/svg" width="32" height="32" viewBox="0 0 32 32">
<title>server-alt</title>
<path d="M10.533 3.867c-0.667 0-1.2 0.533-1.2 1.2s0.533 1.2 1.2 1.2 1.2-0.533 1.2-1.2-0.533-1.2-1.2-1.2zM7.867 10.133h21.067c1.333 0 2.4-1.067 2.4-2.4v-5.333c0-1.333-1.067-2.4-2.4-2.4v0h-21.067c-1.333 0-2.4 1.067-2.4 2.4v0 1.6h-3.467c-0.667-0.133-1.2 0.4-1.2 1.067v22.667c0 0.667 0.533 1.2 1.2 1.2h3.467v0.8c0 1.333 1.067 2.4 2.4 2.4h21.067c1.333 0 2.4-1.067 2.4-2.4v-5.467c0-1.333-1.067-2.4-2.4-2.4h-21.067c-1.333 0-2.4 1.067-2.4 2.4v2.4h-2.4v-9.333h2.4v1.333c0 1.333 1.067 2.4 2.4 2.4h21.067c1.333 0 2.4-1.067 2.4-2.4v-5.333c0-1.333-1.067-2.4-2.4-2.4v0h-21.067c-1.333 0-2.4 1.067-2.4 2.4v0 1.6h-2.4v-8.667h2.4v1.6c0 1.2 1.067 2.267 2.4 2.267zM7.867 2.4h21.067v5.467h-21.067v-5.467zM7.867 24.133h21.067v5.467h-21.067v-5.467zM7.867 13.333h21.067v5.333h-21.067v-5.333zM10.533 14.8c-0.667 0-1.2 0.533-1.2 1.2s0.533 1.2 1.2 1.2 1.2-0.533 1.2-1.2-0.533-1.2-1.2-1.2zM10.533 25.733c-0.667 0-1.2 0.533-1.2 1.2s0.533 1.2 1.2 1.2 1.2-0.533 1.2-1.2-0.533-1.2-1.2-1.2z"></path>
</svg>
