<svg version="1.1" xmlns="http://www.w3.org/2000/svg" width="32" height="32" viewBox="0 0 32 32">
<title>server</title>
<path d="M7.6 11.733c2.267 0 4.267-1.867 4.267-4.267s-2-4.133-4.267-4.133-4.267 1.867-4.267 4.267 1.867 4.133 4.267 4.133zM7.6 5.867c0.933 0 1.733 0.8 1.733 1.733s-0.8 1.6-1.733 1.6-1.733-0.667-1.733-1.6 0.8-1.733 1.733-1.733zM29.467 0h-26.933c-1.467 0-2.533 1.067-2.533 2.533v0 10.133c0 1.333 1.067 2.533 2.533 2.533h26.933c1.333 0 2.533-1.067 2.533-2.533v-10.133c0-1.467-1.067-2.533-2.533-2.533v0zM29.467 12.667h-26.933v-10.133h26.933v10.133zM7.6 28.667c2.267 0 4.267-1.867 4.267-4.267s-1.867-4.267-4.267-4.267-4.267 1.867-4.267 4.267 1.867 4.267 4.267 4.267zM7.6 22.8c0.933 0 1.733 0.8 1.733 1.733s-0.8 1.733-1.733 1.733-1.733-0.933-1.733-1.867 0.8-1.6 1.733-1.6zM29.467 16.8h-26.933c-1.333 0-2.533 1.067-2.533 2.533v10.133c0 1.333 1.067 2.533 2.533 2.533h26.933c1.333 0 2.533-1.067 2.533-2.533v-10.133c0-1.333-1.067-2.533-2.533-2.533zM29.467 29.467h-26.933v-10.133h26.933v10.133z"></path>
</svg>
