<svg version="1.1" xmlns="http://www.w3.org/2000/svg" width="32" height="32" viewBox="0 0 32 32">
<title>settings</title>
<path d="M16 10.133c-3.2 0-5.867 2.667-5.867 5.867s2.667 5.867 5.867 5.867 5.867-2.667 5.867-5.867c0-3.2-2.667-5.867-5.867-5.867zM16 19.6c-2 0-3.6-1.6-3.6-3.6s1.6-3.6 3.6-3.6 3.6 1.6 3.6 3.6-1.6 3.6-3.6 3.6zM29.867 11.6h-0.667c-0.267-0.667-0.4-1.2-0.8-1.867l0.4-0.4c0.8-0.8 0.8-2.267 0-3.067l-3.067-3.067c-0.8-0.8-2.267-0.8-3.067 0 0 0 0 0 0 0l-0.533 0.533c-0.533-0.267-1.2-0.533-1.867-0.8v-0.8c0-1.2-0.933-2.133-2.133-2.133h-4.4c-1.067 0-2.133 0.933-2.133 2.133v0.667c-0.533 0.267-1.2 0.533-1.733 0.8l-0.533-0.4c-0.8-0.8-2.267-0.8-3.067 0 0 0 0 0 0 0l-3.067 3.067c-0.933 0.8-0.933 2.133 0 3.067l0.533 0.533c-0.4 0.533-0.667 1.2-0.8 1.733h-0.8c-1.2 0-2.133 1.067-2.133 2.267v4.4c0 1.2 0.933 2.133 2.133 2.133h0.667c0.267 0.667 0.4 1.2 0.8 1.867l-0.4 0.4c-0.8 0.8-0.8 2.267 0 3.067l3.067 3.067c0.8 0.8 2.267 0.8 3.067 0 0 0 0 0 0 0l0.533-0.533c0.533 0.267 1.2 0.533 1.867 0.8v0.667c0 1.2 0.933 2.133 2.133 2.133h4.4c1.2 0 2.133-0.933 2.133-2.133v-0.667c0.667-0.267 1.2-0.4 1.867-0.8l0.533 0.533c0.8 0.8 2.267 0.8 3.067 0 0 0 0 0 0 0l3.067-3.067c0.8-0.8 0.8-2.267 0-3.067l-0.533-0.533c0.267-0.533 0.533-1.2 0.8-1.867h0.667c1.2 0 2.133-0.933 2.133-2.133v-4.4c0-1.067-0.933-2.133-2.133-2.133zM29.867 18.133h-2.4c-0.267 1.6-0.933 3.067-1.867 4.4l1.733 1.733-3.067 3.067-1.733-1.733c-1.333 0.933-2.8 1.467-4.4 1.867v2.4h-4.4v-2.4c-1.6-0.267-3.067-0.933-4.4-1.867l-1.733 1.733-3.067-3.067 1.733-1.733c-0.933-1.333-1.467-2.8-1.867-4.4h-2.267v-4.4h2.4c0.267-1.6 0.933-3.067 1.867-4.4l-1.733-1.6 3.067-3.067 1.733 1.733c1.333-0.933 2.8-1.467 4.4-1.867v-2.4h4.4v2.4c1.6 0.267 3.067 0.933 4.4 1.867l1.733-1.733 3.067 3.067-1.733 1.733c0.933 1.333 1.467 2.8 1.867 4.4h2.4v4.267z"></path>
</svg>
