<!-- Generated by IcoMoon.io -->
<svg version="1.1" xmlns="http://www.w3.org/2000/svg" width="32" height="32" viewBox="0 0 32 32">
<title>share</title>
<path d="M28.533 32h-25.067c-0.667 0-1.333-0.533-1.467-1.2v-18.133c0.133-0.667 0.667-1.2 1.467-1.2h5.333c0.667 0 1.2 0.667 1.2 1.2s-0.533 1.067-1.067 1.067c0 0 0 0-0.133 0h-4.667v16h23.6v-16h-5.333c-0.533 0-1.067-0.4-1.2-0.933 0 0 0 0 0-0.133 0-0.667 0.533-1.2 1.2-1.2h6.133c0.8 0 1.333 0.533 1.467 1.2v18.133c-0.133 0.667-0.667 1.2-1.467 1.2zM16 23.2c-0.667 0-1.2-0.533-1.2-1.2v-17.867l-2.933 3.6c-0.4 0.533-1.067 0.533-1.6 0.133-0.4-0.4-0.533-1.067-0.133-1.467 0 0 0 0 0 0s3.467-4.267 5.067-6.133v0c0.133-0.133 1.2-0.4 1.733 0.133l4.933 6c0.133 0.133 0.267 0.4 0.267 0.667 0 0.4-0.133 0.667-0.4 0.933-0.533 0.4-1.2 0.267-1.6-0.133l-2.933-3.6v17.867c0 0.667-0.533 1.067-1.2 1.067z"></path>
</svg>
