<!-- Generated by IcoMoon.io -->
<svg version="1.1" xmlns="http://www.w3.org/2000/svg" width="32" height="32" viewBox="0 0 32 32">
<title>share-alt</title>
<path d="M25.867 20.533c-1.733 0-3.333 0.8-4.4 2.133l-9.6-4.8c0.133-0.4 0.133-0.933 0.133-1.467s-0.133-1.067-0.267-1.6l9.867-5.333c2.133 2.4 5.733 2.667 8.133 0.533s2.667-5.733 0.533-8.133-5.733-2.667-8.133-0.533c-1.733 1.467-2.4 3.867-1.733 6l-9.867 5.333c-2.133-2.4-5.733-2.667-8.133-0.533s-2.667 5.733-0.533 8.133c2.133 2.4 5.733 2.667 8.133 0.533 0.133-0.267 0.4-0.533 0.667-0.8l9.6 4.8c-0.8 3.067 1.067 6.133 4.133 6.933s6.133-1.067 6.933-4.133c0.8-3.067-1.067-6.133-4.133-6.933-0.4-0.133-0.933-0.133-1.333-0.133zM25.867 2.533c1.867 0 3.333 1.467 3.333 3.333s-1.467 3.333-3.333 3.333-3.333-1.467-3.333-3.333 1.467-3.333 3.333-3.333zM6.133 19.733c-1.867 0-3.333-1.467-3.333-3.333s1.467-3.333 3.333-3.333 3.333 1.467 3.333 3.333-1.467 3.333-3.333 3.333zM25.867 29.6c-1.867 0-3.333-1.467-3.333-3.333s1.467-3.333 3.333-3.333 3.333 1.467 3.333 3.333c-0.133 1.867-1.6 3.333-3.333 3.333z"></path>
</svg>
