<!-- Generated by IcoMoon.io -->
<svg version="1.1" xmlns="http://www.w3.org/2000/svg" width="32" height="32" viewBox="0 0 32 32">
<title>sign-in</title>
<path d="M2 16.667h19.067l-4.933 5.067c-0.4 0.4-0.4 1.067 0 1.333 0.133 0.133 0.4 0.267 0.667 0.267s0.533-0.133 0.667-0.267l6.133-6.133c0.133-0.133 0.267-0.4 0.267-0.667s-0.133-0.533-0.267-0.667l-0.267-0.267c0-0.133-0.133-0.133-0.267-0.267l-5.6-5.6c-0.4-0.4-0.933-0.4-1.333 0s-0.4 0.933 0 1.2l4 4h-18.133c-0.533 0-0.933 0.4-0.933 0.933 0 0.667 0.4 1.067 0.933 1.067zM30.933 28.267v-23.733c0-2.267-1.867-4.533-4.133-4.533h-12.4c-2.4 0-4.533 2.133-4.533 4.533v5.6c0 0.533 0.4 0.933 0.933 0.933s0.933-0.4 0.933-0.933v-5.6c0-1.333 1.333-2.667 2.533-2.667h12.4c1.2 0 2.267 1.467 2.267 2.667v23.733c0 1.333-1.067 1.733-2.267 1.733h-12.4c-1.067 0-2.533-0.4-2.533-1.733v-5.6c0-0.533-0.4-0.933-0.933-0.933s-0.933 0.4-0.933 0.933v5.733c0 2.267 2 3.733 4.4 3.733h12.4c2.533-0.133 4.267-1.6 4.267-3.867z"></path>
</svg>
