<svg version="1.1" xmlns="http://www.w3.org/2000/svg" width="32" height="32" viewBox="0 0 32 32">
<title>sign-out</title>
<path d="M28.533 0h-14.8c-1.867 0-3.467 1.6-3.467 3.467v6.8c0 0.667 0.533 1.2 1.2 1.2s1.2-0.533 1.2-1.2v-6.8c0-0.667 0.533-1.2 1.2-1.2h14.8c0.667 0 1.2 0.533 1.2 1.2v25.2c0 0.667-0.533 1.2-1.2 1.2h-14.933c-0.667 0-1.2-0.533-1.2-1.2v-6.8c0-0.667-0.533-1.2-1.2-1.2s-1.2 0.533-1.2 1.2v6.8c0 1.867 1.6 3.467 3.467 3.467h14.8c1.867 0 3.467-1.6 3.467-3.467v-25.2c0.133-1.867-1.467-3.467-3.333-3.467zM22.8 14.8h-18.933l3.733-3.733c0.4-0.4 0.4-1.2 0-1.6s-1.2-0.4-1.6 0l-5.733 5.733c-0.133 0.133-0.133 0.267-0.267 0.4-0.133 0.267-0.133 0.533 0 0.933 0 0.133 0.133 0.267 0.267 0.4l5.733 5.733c0.4 0.4 1.2 0.4 1.6 0s0.4-1.2 0-1.6c0 0 0 0 0 0l-3.733-3.733h18.933c0.667 0 1.2-0.533 1.2-1.2 0-0.8-0.533-1.333-1.2-1.333z"></path>
</svg>
