<!-- Generated by IcoMoon.io -->
<svg version="1.1" xmlns="http://www.w3.org/2000/svg" width="32" height="32" viewBox="0 0 32 32">
<title>skype</title>
<path d="M22.533 32c-1.467 0-2.8-0.267-4-0.933-0.933 0.133-1.6 0.267-2.4 0.267-8.4 0-15.333-6.8-15.333-15.2 0-0.8 0.133-1.6 0.267-2.533-0.667-1.333-1.067-2.8-1.067-4.267 0-5.067 4.267-9.333 9.467-9.333 1.6 0 3.2 0.4 4.533 1.2 0.667-0.133 1.333-0.133 2.133-0.133 4.133 0 7.867 1.6 10.8 4.4s4.533 6.667 4.533 10.667c0 1.067-0.133 2-0.267 2.8 0.533 1.2 0.8 2.4 0.8 3.733 0 5.2-4.267 9.333-9.467 9.333zM18.933 28.533l0.4 0.267c0.933 0.533 2.133 0.8 3.333 0.8 3.867 0 6.933-3.067 6.933-6.8 0-1.067-0.267-2.133-0.667-3.067l-0.267-0.4 0.133-0.4c0.133-0.8 0.267-1.6 0.267-2.667 0-6.933-5.733-12.533-12.8-12.533-0.933 0-1.6 0-2.133 0.133l-0.4 0.133-0.667-0.4c-1.067-0.8-2.4-1.067-3.6-1.067-3.867 0-6.933 3.067-6.933 6.8 0 1.2 0.267 2.4 0.933 3.467l0.267 0.4-0.133 0.533c-0.133 0.933-0.267 1.733-0.267 2.533 0 6.933 5.733 12.667 12.8 12.667 0.667 0 1.467-0.133 2.4-0.267l0.4-0.133zM24 19.467c0-0.933-0.133-1.733-0.533-2.267-0.4-0.667-0.8-1.2-1.467-1.6s-1.333-0.8-2.267-1.067c-0.8-0.267-1.867-0.533-2.933-0.8-0.8-0.133-1.467-0.4-1.867-0.4-0.4-0.133-0.667-0.267-1.067-0.4-0.267-0.133-0.533-0.4-0.8-0.533 0-0.267-0.133-0.533-0.133-0.8 0-0.533 0.267-0.933 0.933-1.2 0.533-0.4 1.333-0.533 2.267-0.533 1.067 0 1.733 0.133 2.133 0.533 0.4 0.267 0.8 0.8 1.2 1.333 0.267 0.533 0.533 0.8 0.8 1.067s0.667 0.4 1.067 0.4c0.533 0 0.933-0.133 1.333-0.533s0.667-0.8 0.667-1.2c0-0.533-0.267-0.933-0.533-1.467s-0.667-0.933-1.333-1.467c-0.533-0.4-1.333-0.8-2.133-1.067s-1.867-0.4-3.067-0.4c-1.467 0-2.8 0.267-3.867 0.667-1.067 0.267-1.867 0.8-2.4 1.6-0.667 0.667-0.933 1.6-0.933 2.667s0.267 1.867 0.933 2.667c0.533 0.667 1.333 1.2 2.267 1.6s2.133 0.667 3.467 1.067c1.067 0.267 1.867 0.4 2.4 0.533s1.067 0.4 1.467 0.8c0.4 0.267 0.533 0.667 0.533 1.2 0 0.667-0.4 1.2-0.933 1.6-0.667 0.4-1.6 0.667-2.667 0.667-0.8 0-1.467 0-1.867-0.267-0.533-0.267-0.8-0.533-1.067-0.8-0.267-0.4-0.533-0.8-0.8-1.333s-0.4-0.8-0.8-1.067c-0.267-0.267-0.667-0.4-1.2-0.4s-1.067 0.133-1.333 0.533c-0.4 0.4-0.533 0.8-0.533 1.2 0 0.8 0.267 1.6 0.8 2.4s1.333 1.467 2.133 1.867c1.2 0.667 2.8 0.933 4.667 0.933 1.6 0 2.933-0.267 4.133-0.667 1.2-0.533 2-1.2 2.667-2 0.4-1.067 0.667-2 0.667-3.067z"></path>
</svg>
