<!-- Generated by IcoMoon.io -->
<svg version="1.1" xmlns="http://www.w3.org/2000/svg" width="32" height="32" viewBox="0 0 32 32">
<title>smile</title>
<path d="M10.133 13.067c0.8 0 1.467-0.667 1.467-1.467s-0.667-1.467-1.467-1.467-1.467 0.667-1.467 1.467 0.667 1.467 1.467 1.467zM21.867 13.067c0.8 0 1.467-0.667 1.467-1.467s-0.667-1.467-1.467-1.467c-0.8 0-1.467 0.667-1.467 1.467s0.667 1.467 1.467 1.467zM16 0c-8.8 0-16 7.2-16 16s7.2 16 16 16 16-7.2 16-16c0-8.8-7.2-16-16-16zM16 29.867c-7.6 0-13.867-6.267-13.867-13.867s6.267-13.867 13.867-13.867 13.867 6.267 13.867 13.867-6.267 13.867-13.867 13.867v0zM16 25.467c-3.733-0.133-7.067-2.133-8.933-5.2-0.267-0.533-0.133-1.2 0.4-1.467s1.2-0.133 1.467 0.4v0c2.133 3.867 6.933 5.333 10.933 3.2 1.333-0.8 2.533-1.867 3.2-3.2 0.267-0.533 0.933-0.667 1.467-0.4s0.667 0.933 0.4 1.467c-1.867 3.067-5.2 5.067-8.933 5.2z"></path>
</svg>
