<!-- Generated by IcoMoon.io -->
<svg version="1.1" xmlns="http://www.w3.org/2000/svg" width="32" height="32" viewBox="0 0 32 32">
<title>soap</title>
<path d="M19.6 8.933v-3.867h-2.667v-2.267c0.267-0.133 0.533-0.267 0.667-0.533 0.533-0.4 1.2-0.667 1.867-0.4 0.533 0.133 1.067 0.4 1.067 0.4v0l1.2-1.467c-0.933-0.667-3.2-1.6-5.2 0-0.667 0.533-1.2 0.667-1.733 0.533s-0.8-0.4-0.8-0.4v0l-1.333 1.333c0.4 0.4 1.333 0.933 2.4 0.933v1.733h-2.667v3.867c-2.667 0.8-4.667 3.333-4.667 6.267v16.933h16.667v-16.8c-0.133-2.933-2.133-5.467-4.8-6.267zM14.267 6.933h3.467v1.733h-3.467v-1.733zM14.267 10.533h3.6c2.4 0 4.4 1.867 4.667 4.133h-12.933c0.267-2.267 2.267-4.133 4.667-4.133zM22.4 30.133h-12.8v-3.6h12.933v3.6zM22.4 24.667h-12.8v-8h12.933v8zM16 17.6c-1.733 0-3.067 1.333-3.067 3.067s1.333 3.067 3.067 3.067 3.067-1.333 3.067-3.067c0-1.733-1.333-3.067-3.067-3.067zM16 21.867c-0.667 0-1.2-0.533-1.2-1.2s0.533-1.2 1.2-1.2c0.667 0 1.2 0.533 1.2 1.2s-0.533 1.2-1.2 1.2z"></path>
</svg>
