<svg version="1.1" xmlns="http://www.w3.org/2000/svg" width="32" height="32" viewBox="0 0 32 32">
<title>speaker</title>
<path d="M24.8 0h-17.733c-1.867 0-3.333 1.6-3.333 3.467v25.067c0 1.867 1.6 3.467 3.467 3.467h17.733c1.867 0 3.467-1.6 3.467-3.467v-25.067c-0.133-1.867-1.733-3.467-3.6-3.467zM26.4 28.533c0 0.8-0.667 1.6-1.6 1.6h-17.733c-0.8 0-1.6-0.667-1.6-1.6v-25.067c0-0.8 0.667-1.6 1.6-1.6h17.733c0.8 0 1.6 0.667 1.6 1.6v25.067zM16 15.067c-3.6 0-6.533 2.933-6.533 6.533s2.933 6.533 6.533 6.533 6.533-2.933 6.533-6.533-2.933-6.533-6.533-6.533zM16 26.4c-2.533 0-4.667-2.133-4.667-4.667s2.133-4.667 4.667-4.667 4.667 2.133 4.667 4.667-2.133 4.667-4.667 4.667zM16 18.933c-1.6 0-2.8 1.2-2.8 2.8s1.2 2.8 2.8 2.8 2.8-1.2 2.8-2.8-1.333-2.8-2.8-2.8zM16 22.667c-0.533 0-0.933-0.4-0.933-0.933s0.4-0.933 0.933-0.933 0.933 0.4 0.933 0.933-0.4 0.933-0.933 0.933zM16 13.067c2.533 0 4.667-2.133 4.667-4.667s-2.133-4.667-4.667-4.667-4.667 2.133-4.667 4.667 2 4.667 4.667 4.667zM16 5.6c1.6 0 2.8 1.2 2.8 2.8s-1.333 2.8-2.8 2.8-2.8-1.2-2.8-2.8 1.2-2.8 2.8-2.8zM16.933 8.4c0 0.515-0.418 0.933-0.933 0.933s-0.933-0.418-0.933-0.933c0-0.515 0.418-0.933 0.933-0.933s0.933 0.418 0.933 0.933zM9.2 4.667c0 0.515-0.418 0.933-0.933 0.933s-0.933-0.418-0.933-0.933c0-0.515 0.418-0.933 0.933-0.933s0.933 0.418 0.933 0.933zM24.533 4.667c0 0.515-0.418 0.933-0.933 0.933s-0.933-0.418-0.933-0.933c0-0.515 0.418-0.933 0.933-0.933s0.933 0.418 0.933 0.933zM9.2 27.333c0 0.515-0.418 0.933-0.933 0.933s-0.933-0.418-0.933-0.933c0-0.515 0.418-0.933 0.933-0.933s0.933 0.418 0.933 0.933zM24.533 27.333c0 0.515-0.418 0.933-0.933 0.933s-0.933-0.418-0.933-0.933c0-0.515 0.418-0.933 0.933-0.933s0.933 0.418 0.933 0.933z"></path>
</svg>
