<svg version="1.1" xmlns="http://www.w3.org/2000/svg" width="32" height="32" viewBox="0 0 32 32">
<title>star-half</title>
<path d="M31.333 11.6l-10-1.467-4.533-9.067c-0.133-0.267-0.4-0.533-0.8-0.533s-0.667 0.133-0.8 0.533l-4.4 9.2-10 1.467c-0.4 0.133-0.667 0.267-0.8 0.667 0 0 0 0.133 0 0.133v0c0 0 0 0.133 0 0.133 0 0.267 0.133 0.667 0.533 0.933l6.933 6.667-1.733 10c0 0.4 0.133 0.667 0.4 0.933 0.133 0.133 0.4 0.133 0.533 0.133 0 0 0.133 0 0.133 0s0 0 0 0c0.267 0 0.533-0.133 0.8-0.267l8.667-4.533 8.667 4.533c0.133 0 0.267 0.133 0.4 0.133 0.533 0 0.933-0.4 0.933-0.933 0-0.133 0-0.133 0-0.267l-1.733-9.867 7.2-7.067c0.267-0.133 0.267-0.533 0.267-0.8-0.133-0.267-0.4-0.533-0.667-0.667zM22.933 19.333c-0.267 0.267-0.267 0.533-0.267 0.8l1.467 8.667-7.733-4.133v-20.267l3.467 6.933c0.133 0.4 0.4 0.533 0.667 0.667l8.667 1.2-6.267 6.133z"></path>
</svg>
