<!-- Generated by IcoMoon.io -->
<svg version="1.1" xmlns="http://www.w3.org/2000/svg" width="32" height="32" viewBox="0 0 32 32">
<title>star</title>
<path d="M32 12.267c-0.133-0.267-0.4-0.533-0.667-0.667l-10-1.467-4.533-9.067c-0.133-0.267-0.4-0.533-0.8-0.533v0c-0.4 0-0.667 0.133-0.8 0.533l-4.4 9.2-10 1.467c-0.4 0.133-0.667 0.267-0.8 0.667 0 0.267 0 0.667 0.267 0.8l7.2 7.067-1.733 10c0 0.4 0.133 0.667 0.4 0.933 0.133 0.133 0.4 0.133 0.533 0.133s0.267 0 0.4-0.133l8.933-4.8 8.933 4.667c0.133 0 0.267 0.133 0.4 0.133v0c0.533 0 0.933-0.4 0.933-0.933 0-0.133 0-0.133 0-0.267l-1.733-9.867 7.2-7.067c0.267-0.133 0.267-0.533 0.267-0.8zM22.933 19.333c-0.267 0.267-0.267 0.533-0.267 0.8l1.467 8.667-7.733-4.133c-0.267-0.133-0.533-0.133-0.8 0l-7.733 4.133 1.467-8.667c0-0.267 0-0.533-0.267-0.8l-6.267-6.133 8.667-1.333c0.267 0 0.533-0.267 0.667-0.533l3.867-7.733 3.867 7.867c0.133 0.267 0.4 0.4 0.667 0.533l8.667 1.2-6.267 6.133z"></path>
</svg>
