<svg version="1.1" xmlns="http://www.w3.org/2000/svg" width="32" height="32" viewBox="0 0 32 32">
<title>store</title>
<path d="M27.467 4.133h-1.467v-4.133h-20v4.133h-1.467l-3.333 8.133v3.067c0 1.333 0.667 2.533 1.867 3.2v13.333h25.867v-13.2c1.067-0.667 1.867-1.867 1.867-3.2v-3.2l-3.333-8.133zM26.267 6.133l2.267 5.733h-3.467l-1.333-5.733c0 0 2.533 0 2.533 0zM7.867 1.867h16.267v2.267h-16.267c0 0 0-2.267 0-2.267zM19.733 13.6h3.6v1.867c0 1.067-0.8 1.867-1.867 1.867s-1.867-0.8-1.867-1.867l0.133-1.867zM19.6 11.733l-0.4-5.733h2.533l1.333 5.733h-3.467zM17.867 13.6v1.867c0 1.067-0.8 1.867-1.867 1.867s-1.867-0.8-1.867-1.867v-1.867h3.733zM14.267 11.733l0.4-5.6h2.667l0.4 5.733h-3.467zM8.933 11.733l1.333-5.733h2.533l-0.4 5.733h-3.467zM12.267 13.6v1.867c0 1.067-0.8 1.867-1.867 1.867s-1.867-0.8-1.867-1.867v-1.867h3.733zM5.733 6.133h2.533l-1.333 5.733h-3.467l2.267-5.733zM3.067 15.467v-1.867h3.6v1.867c0 1.067-0.8 1.867-1.867 1.867-0.8 0-1.733-0.8-1.733-1.867zM15.067 30.133h-3.467v-6.533h3.467v6.533zM20.4 30.133h-3.467v-6.533h3.467v6.533zM27.067 30.133h-4.8v-8.4h-12.533v8.4h-4.8v-10.933c0 0 0 0 0 0s0 0 0 0c1.067 0 2.133-0.533 2.8-1.2 0.667 0.667 1.6 1.2 2.8 1.2 1.067 0 2.133-0.533 2.8-1.2 0.667 0.8 1.6 1.2 2.8 1.2 1.067 0 2.133-0.533 2.8-1.2 0.667 0.8 1.6 1.2 2.8 1.2 1.067 0 2.133-0.533 2.8-1.2 0.667 0.8 1.6 1.2 2.8 1.2 0 0 0 0 0 0s0 0 0 0l-0.267 10.933zM28.933 15.467c0 1.067-0.8 1.867-1.867 1.867s-1.867-0.8-1.867-1.867v-1.867h3.6l0.133 1.867z"></path>
</svg>
