<svg version="1.1" xmlns="http://www.w3.org/2000/svg" width="32" height="32" viewBox="0 0 32 32">
<title>sun</title>
<path d="M16 22.667c3.733 0 6.667-2.933 6.667-6.667s-2.933-6.667-6.667-6.667-6.667 2.933-6.667 6.667c0 3.733 2.933 6.667 6.667 6.667zM16 12.4c2 0 3.6 1.6 3.6 3.6s-1.6 3.6-3.6 3.6c-2 0-3.6-1.6-3.6-3.6 0 0 0 0 0 0 0-2 1.6-3.6 3.6-3.6v0zM14.4 26.267v4.133c0 0.8 0.667 1.6 1.6 1.6s1.6-0.667 1.6-1.6v-4.133c0-0.8-0.667-1.6-1.6-1.6s-1.6 0.667-1.6 1.6zM16 7.333c0.8 0 1.467-0.667 1.6-1.467v-4.267c0-0.8-0.667-1.6-1.6-1.6s-1.6 0.667-1.6 1.6v4.133c0.133 0.933 0.8 1.6 1.6 1.6zM1.6 17.6h4.133c0.8 0.133 1.6-0.533 1.6-1.467 0.133-0.8-0.533-1.6-1.467-1.6-0.133 0-0.133 0-0.267 0h-4c-0.8-0.133-1.6 0.533-1.6 1.467s0.533 1.6 1.467 1.6c0 0 0.133 0 0.133 0zM24.667 16c0 0.8 0.667 1.6 1.6 1.6h4.133c0.8 0.133 1.6-0.533 1.6-1.467 0.133-0.8-0.533-1.6-1.467-1.6-0.133 0-0.133 0-0.267 0h-4.133c-0.8 0-1.467 0.667-1.467 1.467zM6.533 8.667c0.533 0.533 1.6 0.667 2.133 0 0 0 0 0 0 0 0.667-0.667 0.667-1.6 0-2.267l-2.933-2.933c-0.533-0.533-1.6-0.667-2.133 0 0 0 0 0 0 0-0.667 0.667-0.667 1.6 0 2.133l2.933 3.067zM23.333 23.333c-0.667 0.667-0.667 1.6 0 2.133l2.933 2.933c0.533 0.533 1.6 0.533 2.133 0 0.667-0.667 0.667-1.6 0-2.133l-2.933-2.933c-0.533-0.533-1.467-0.533-2.133 0 0 0 0 0 0 0zM24.4 10.133c0.4 0 0.8-0.133 1.067-0.4l2.933-3.067c0.667-0.667 0.667-1.6 0-2.133-0.533-0.533-1.6-0.667-2.133 0 0 0 0 0 0 0l-2.933 2.933c-0.667 0.533-0.667 1.6 0 2.133 0.267 0.4 0.667 0.533 1.067 0.533v0zM6.533 23.333l-2.933 2.933c-0.667 0.667-0.667 1.6 0 2.133 0.533 0.533 1.6 0.533 2.133 0l2.933-2.933c0.667-0.667 0.667-1.6 0-2.133-0.533-0.533-1.6-0.533-2.133 0 0 0 0 0 0 0v0z"></path>
</svg>
