<!-- Generated by IcoMoon.io -->
<svg version="1.1" xmlns="http://www.w3.org/2000/svg" width="32" height="32" viewBox="0 0 32 32">
<title>support</title>
<path d="M27.067 12v-0.933c0-2.933-1.067-5.733-2.933-7.733-2-2.133-4.667-3.333-7.6-3.333h-1.067c-2.933 0-5.6 1.2-7.6 3.2-1.867 2.133-2.933 4.933-2.933 7.867v0.933c-2.267 0.267-4 2.267-4 4.533v1.867c0 2.533 2.133 4.667 4.667 4.667h2.4c0.667 0 1.067-0.533 1.067-1.067v-8.933c0-0.667-0.533-1.067-1.067-1.067h-0.8v-0.933c0-5.067 3.6-8.8 8.267-8.8h0.933c4.8 0 8.267 3.733 8.267 8.8v0.933h-0.667c-0.667 0-1.067 0.533-1.067 1.067v8.933c0 0.667 0.533 1.067 1.067 1.067h0.8c-0.4 3.333-2.533 4.267-3.867 4.533-0.533-1.067-1.6-1.867-2.8-1.867h-2.133c-1.733 0-3.067 1.333-3.067 3.067s1.333 3.067 3.067 3.067h2c1.333 0 2.533-0.8 2.933-2.133 0.667-0.133 1.6-0.4 2.533-0.933 1.467-0.8 3.2-2.533 3.467-6 2.267-0.267 4.133-2.267 4.133-4.667v-1.867c0-2-1.733-4-4-4.267zM6.933 20.8h-1.333c-1.333 0-2.4-1.067-2.4-2.4v-1.867c0-1.333 1.067-2.4 2.4-2.4h1.333v6.667zM18 29.733h-2c-0.533 0-0.8-0.4-0.8-0.8 0-0.533 0.4-0.933 0.8-0.933h2c0.533 0 0.8 0.4 0.8 0.933 0 0.4-0.267 0.8-0.8 0.8zM28.8 18.4c0 1.333-1.067 2.4-2.4 2.4h-1.333v-6.667h1.333c1.333 0 2.4 1.067 2.4 2.4v1.867z"></path>
</svg>
