<!-- Generated by IcoMoon.io -->
<svg version="1.1" xmlns="http://www.w3.org/2000/svg" width="32" height="32" viewBox="0 0 32 32">
<title>tag</title>
<path d="M19.067 18c-0.133-0.267-0.267-0.533-0.533-0.667s-0.533-0.4-0.8-0.533c-0.267-0.133-0.667-0.267-1.067-0.4-0.267-0.133-0.533-0.133-0.8-0.267-0.267 0-0.4-0.133-0.533-0.267s-0.267-0.133-0.267-0.267-0.133-0.267-0.133-0.4c0-0.4 0.4-0.667 1.067-0.667 0.267 0 0.533 0 0.8 0.133s0.533 0.133 0.667 0.267c0.267 0.133 0.4 0.133 0.533 0.267s0.267 0.133 0.267 0.133l0.8-1.6c-0.133-0.133-0.4-0.267-0.667-0.267-0.267-0.133-0.533-0.267-0.667-0.267-0.267-0.133-0.533-0.133-0.8-0.267v-1.333h-1.867v1.6c-0.133 0-0.133 0-0.267 0-0.4 0.133-0.667 0.267-0.933 0.533s-0.533 0.533-0.667 0.8c-0.133 0.4-0.267 0.667-0.267 1.2 0 0.267 0 0.533 0.133 0.8s0.267 0.4 0.4 0.667c0.133 0.133 0.4 0.4 0.667 0.533s0.667 0.267 1.067 0.4c0.267 0.133 0.533 0.133 0.8 0.267s0.4 0.133 0.667 0.267c0.133 0.133 0.267 0.133 0.4 0.267s0.133 0.267 0.133 0.4c0 0.4-0.4 0.667-1.067 0.667-0.267 0-0.667 0-0.933-0.133s-0.667-0.133-0.8-0.267c-0.267-0.133-0.533-0.267-0.667-0.267-0.133-0.133-0.267-0.133-0.267-0.267l-0.8 1.733c0.267 0.133 0.533 0.267 0.8 0.4s0.533 0.267 0.933 0.267c0.267 0.133 0.533 0.133 0.8 0.133v1.733h1.867v-1.6c0.133 0 0.267 0 0.4-0.133 0.4-0.133 0.667-0.267 1.067-0.4 0.267-0.267 0.533-0.4 0.667-0.8 0.133-0.267 0.267-0.667 0.267-1.2-0.133-0.533-0.267-0.933-0.4-1.2zM23.467 0h-14.933l-3.6 7.333v24.667h22.133v-24.667l-3.6-7.333zM16 5.067c0.667 0 1.2 0.533 1.2 1.2s-0.533 1.2-1.2 1.2-1.2-0.533-1.2-1.2 0.533-1.2 1.2-1.2zM25.2 30.133h-18.4v-2.8h18.4v2.8zM25.2 25.467h-18.4v-17.733l2.933-5.867h5.333v1.467c-1.2 0.4-2.133 1.6-2.133 2.933 0 1.733 1.333 3.067 3.067 3.067s3.067-1.333 3.067-3.067c0-1.333-0.933-2.533-2.133-2.933v-1.467h5.333l2.933 5.867v17.733z"></path>
</svg>
