<svg version="1.1" xmlns="http://www.w3.org/2000/svg" width="32" height="32" viewBox="0 0 32 32">
<title>target</title>
<path d="M16 0c-8.8 0-16 7.2-16 16s7.2 16 16 16 16-7.2 16-16c0-8.8-7.2-16-16-16zM16 29.867c-7.6 0-13.867-6.267-13.867-13.867s6.267-13.867 13.867-13.867 13.867 6.267 13.867 13.867-6.267 13.867-13.867 13.867v0zM16 5.067c-6 0-10.933 4.933-10.933 10.933s4.933 10.933 10.933 10.933 10.933-4.933 10.933-10.933v0c0-6-4.933-10.933-10.933-10.933zM16 24.667c-4.8 0-8.667-3.867-8.667-8.667s3.867-8.667 8.667-8.667 8.667 3.867 8.667 8.667-3.867 8.667-8.667 8.667zM16 10.133c-3.2 0-5.867 2.667-5.867 5.867s2.667 5.867 5.867 5.867 5.867-2.667 5.867-5.867c0-3.2-2.667-5.867-5.867-5.867zM16 19.6c-2 0-3.6-1.6-3.6-3.6s1.6-3.6 3.6-3.6 3.6 1.6 3.6 3.6-1.6 3.6-3.6 3.6zM16 14.933c-0.667 0-1.067 0.533-1.067 1.067s0.533 1.067 1.067 1.067 1.067-0.533 1.067-1.067-0.4-1.067-1.067-1.067z"></path>
</svg>
