<!-- Generated by IcoMoon.io -->
<svg version="1.1" xmlns="http://www.w3.org/2000/svg" width="32" height="32" viewBox="0 0 32 32">
<title>telegram</title>
<path d="M31.467 3.2c-0.4-0.533-0.933-0.8-1.6-0.8-0.4 0-0.8 0.133-1.2 0.267l-27.067 10.4c-1.467 0.533-1.6 1.333-1.6 1.867s0.267 1.2 1.733 1.733c0 0 0 0 0 0l5.6 1.6 3.067 8.667c0.4 1.2 1.333 1.867 2.4 1.867 0.667 0 1.333-0.267 2-0.8l3.467-3.2 5.067 4c0 0 0 0 0 0v0c0 0 0 0 0 0 0.533 0.4 1.2 0.667 1.733 0.667v0c1.2 0 2.133-0.8 2.4-2.267l4.4-21.867c0.267-0.8 0.133-1.6-0.4-2.133zM9.2 17.867l10.8-5.6-6.667 7.2c-0.133 0.133-0.133 0.267-0.267 0.4l-1.333 5.333-2.533-7.333zM13.467 26.533c0 0-0.133 0.133-0.133 0.133l1.2-4.933 2.133 1.733-3.2 3.067zM30.133 5.067l-4.4 21.867c0 0.267-0.133 0.667-0.533 0.667-0.133 0-0.4-0.133-0.667-0.267l-5.733-4.533c0 0 0 0 0 0l-3.467-2.8 9.733-10.4c0.267-0.267 0.4-0.8 0.133-1.2-0.267-0.267-0.8-0.4-1.2-0.133l-16 8.133-5.733-1.6 27.067-10.4c0.267-0.133 0.4-0.133 0.533-0.133 0 0 0.133 0 0.133 0 0.133 0.133 0.133 0.4 0.133 0.8z"></path>
</svg>
