<svg version="1.1" xmlns="http://www.w3.org/2000/svg" width="32" height="32" viewBox="0 0 32 32">
<title>thumb-up-filled</title>
<path d="M6.267 9.733c0.133 0 0.267 0 0.533 0v21.867c-0.133 0-0.267 0-0.533 0h-3.867c-1.333 0.133-2.4-0.933-2.4-2.267v-17.2c0-1.333 1.067-2.4 2.4-2.4h3.867zM32 14.933c-0.4 0.8-0.4 1.733 0 2.4v2.4c-0.4 0.8-0.4 1.733 0 2.4v2.4c-0.4 0.8-0.4 1.733 0 2.4v0.8c0 2.133-1.733 3.867-3.867 3.867h-14.8c-0.533 0-0.933-0.133-1.333-0.4l-3.333-2.133v-18l3.333-1.067 2.933-2.8v-2.133c0-2.267 1.333-4.667 3.867-4.667s3.867 2.4 3.867 4.667v5.467h5.467c2.133 0 3.867 1.733 3.867 3.867v0.533z"></path>
</svg>
