<!-- Generated by IcoMoon.io -->
<svg version="1.1" xmlns="http://www.w3.org/2000/svg" width="32" height="32" viewBox="0 0 32 32">
<title>thumb-up</title>
<path d="M32 14.4c0-2.133-1.733-3.867-3.867-3.867h-5.467v-5.467c0-2.267-1.333-4.667-3.867-4.667s-3.867 2.4-3.867 4.667v2.133l-2.933 2.8-3.6 1.2c-0.4-0.933-1.2-1.467-2.133-1.467h-3.867c-1.333 0-2.4 1.067-2.4 2.4v17.2c0 1.333 1.067 2.4 2.4 2.4h3.867c1.333 0 2.4-1.067 2.4-2.4v-0.267l3.333 2.133c0.4 0.267 0.8 0.4 1.333 0.4h14.8c2.133 0 3.867-1.733 3.867-3.867v-0.8c-0.4-0.667-0.4-1.6 0-2.4v-2.4c-0.4-0.667-0.4-1.6 0-2.4v-2.4c-0.4-0.667-0.4-1.6 0-2.4v-0.533zM6.267 29.333h-3.867v-17.2h3.867v17.2zM29.6 15.2h-1.2c-0.667 0-1.2 0.533-1.2 1.2s0.533 1.2 1.2 1.2h1.2v2.4h-1.2c-0.667 0-1.2 0.533-1.2 1.2s0.533 1.2 1.2 1.2h1.2v2.4h-1.2c-0.667 0-1.2 0.533-1.2 1.2s0.533 1.2 1.2 1.2h1.2v0.8c0 0.8-0.667 1.6-1.6 1.6h-14.667l-4.667-3.067v-12.533l4.667-1.867 3.867-3.867v-3.2c0 0 0-2.4 1.6-2.4s1.6 2.4 1.6 2.4v7.867h7.867c0.8 0 1.6 0.667 1.6 1.6v0.667z"></path>
</svg>
