<!-- Generated by IcoMoon.io -->
<svg version="1.1" xmlns="http://www.w3.org/2000/svg" width="32" height="32" viewBox="0 0 32 32">
<title>time</title>
<path d="M16 0c-8.8 0-16 7.2-16 16s7.2 16 16 16 16-7.2 16-16c0-8.8-7.2-16-16-16zM16 29.867c-7.6 0-13.867-6.267-13.867-13.867s6.267-13.867 13.867-13.867 13.867 6.267 13.867 13.867v0c0 7.6-6.267 13.867-13.867 13.867zM23.333 15.333h-6.533v-8c0-0.667-0.533-1.067-1.067-1.067s-1.2 0.4-1.2 1.067v10.133h8.667c0.667 0 1.067-0.533 1.067-1.067s-0.4-1.067-0.933-1.067z"></path>
</svg>
