<!-- Generated by IcoMoon.io -->
<svg version="1.1" xmlns="http://www.w3.org/2000/svg" width="32" height="32" viewBox="0 0 32 32">
<title>toothbrush</title>
<path d="M16.933 7.2c-0.133-1.467-0.933-2.667-2.267-3.2v-4h-6.133v4c-1.333 0.533-2.133 1.733-2.267 3.2l-1.2 24.8h12.933l-1.067-24.8zM10.4 1.867h2.4v1.867h-2.4v-1.867zM8.133 7.2c0-0.933 0.8-1.6 1.6-1.6h3.6c0.933 0 1.6 0.667 1.6 1.6l0.133 4.133h-7.2l0.267-4.133zM7.867 13.2h7.467l0.267 6.267h-8.133l0.4-6.267zM7.467 21.333h8.267l0.267 5.333h-8.8l0.267-5.333zM7.067 30.133l0.133-1.6h8.8l0.133 1.6h-9.067zM20 0v32h1.867v-20.133h5.067v-11.867h-6.933zM25.067 10h-3.2v-1.467h3.2v1.467zM25.067 6.667h-3.2v-1.467h3.2v1.467zM25.067 3.333h-3.2v-1.467h3.2v1.467z"></path>
</svg>
