<svg version="1.1" xmlns="http://www.w3.org/2000/svg" width="32" height="32" viewBox="0 0 32 32">
<title>trash</title>
<path d="M28.8 5.067h-5.867c-1.2-3.867-5.2-6-9.067-4.8-2.267 0.667-4 2.533-4.8 4.8h-5.867c-0.8 0-1.467 0.267-1.467 1.467 0 0.4 0.4 0.667 0.667 0.667h1.6v22.533c0 1.333 0.533 2.267 1.867 2.267h19.6c1.2 0 2.533-0.933 2.533-2.133v-22.533c0 0 0.267 0 0.667 0 0.8 0 1.467 0 1.467-1.467 0.133-0.533-0.8-0.8-1.333-0.8zM16 2.133c2 0 3.867 1.067 4.8 2.933h-9.6c0.933-1.733 2.8-2.933 4.8-2.933zM25.867 29.867h-2.933v-12.4c0-0.667-0.533-1.333-1.2-1.467-0.667 0-0.933 0.8-0.933 1.467v12.4h-3.6v-17.067c0-0.667-0.533-1.067-1.067-1.067-0.667 0-1.067 0.533-1.067 1.067v17.067h-3.867v-12.4c0-0.667-0.267-1.467-0.933-1.467-0.667 0.133-1.2 0.8-1.2 1.467v12.4h-2.933v-22.533h19.6v22.533z"></path>
</svg>
