<svg version="1.1" xmlns="http://www.w3.org/2000/svg" width="32" height="32" viewBox="0 0 32 32">
<title>truck</title>
<path d="M27.2 9.067h-4.8v-2.933h-22.4v16.667h2.933c0.133 1.733 1.6 2.933 3.333 2.933s3.2-1.333 3.333-2.933h13.333c0.133 1.733 1.6 2.933 3.333 2.933s3.2-1.333 3.333-2.933h2.4v-8.133l-4.8-5.6zM22.4 10.933h3.867l2.8 3.333h-6.8v-3.333zM7.733 22.8c-0.133 0.667-0.8 1.2-1.467 1.2s-1.333-0.533-1.467-1.067c0-0.133 0-0.267 0-0.4 0-0.8 0.667-1.467 1.467-1.467s1.467 0.667 1.467 1.467c0 0.133 0 0.133 0 0.267zM20.533 20.933h-11.333c-0.533-1.067-1.733-1.867-2.933-1.867-1.333 0-2.4 0.8-2.933 1.867h-1.467v-12.933h18.667v12.933zM27.733 22.8c-0.133 0.667-0.8 1.067-1.467 1.067s-1.333-0.533-1.467-1.067c0-0.133 0-0.267 0-0.4 0-0.8 0.667-1.467 1.467-1.467s1.467 0.667 1.467 1.467c0 0.267 0 0.267 0 0.4zM30.133 20.933h-0.8c-0.533-1.067-1.733-1.867-2.933-1.867-1.333 0-2.4 0.8-2.933 1.867h-0.8v-4.8h7.733v4.8zM4 9.733h4.533v1.867h-4.533v-1.867zM4 12.8h4.533v1.867h-4.533v-1.867zM4 15.867h4.533v1.867h-4.533v-1.867z"></path>
</svg>
