<!-- Generated by IcoMoon.io -->
<svg version="1.1" xmlns="http://www.w3.org/2000/svg" width="32" height="32" viewBox="0 0 32 32">
<title>tumblr</title>
<path d="M21.067 26.8c-0.933 0-1.733-0.267-2.4-0.667-0.533-0.267-0.933-0.8-1.067-1.2-0.133-0.533-0.267-1.733-0.267-3.6v-8.267h7.6v-4.933h-7.6v-8.133h-4.667c-0.267 1.6-0.667 2.933-1.2 4.133-0.533 1.067-1.2 2-2.133 2.667-0.933 0.8-2 1.333-3.2 1.733v4.533h3.6v11.2c0 1.467 0.133 2.667 0.4 3.333 0.267 0.8 0.8 1.467 1.6 2.133s1.733 1.2 2.933 1.6c1.067 0.4 2.4 0.533 3.867 0.533 1.333 0 2.533-0.133 3.6-0.4s2.267-0.667 3.733-1.333v-5.067c-1.6 1.2-3.2 1.733-4.8 1.733z"></path>
</svg>
