<!-- Generated by IcoMoon.io -->
<svg version="1.1" xmlns="http://www.w3.org/2000/svg" width="32" height="32" viewBox="0 0 32 32">
<title>turn-off</title>
<path d="M21.6 2.667v2.667c6.4 3.067 8.933 10.667 5.867 17.067s-10.667 8.933-17.067 5.867-8.933-10.667-5.867-17.067c1.2-2.533 3.333-4.533 5.867-5.867v-2.667c-6.667 2.667-10.533 9.6-9.333 16.667 1.467 8.267 9.333 13.733 17.6 12.4 8.267-1.467 13.733-9.333 12.4-17.6-1.067-5.067-4.533-9.467-9.467-11.467zM16 0l-0.8 1.867v13.2c0 0.8 0.4 1.467 1.2 1.467s1.2-0.667 1.2-1.467v-13.2c0-0.8-0.4-1.467-1.2-1.467s-1.2 0.667-1.2 1.467l0.8-1.867z"></path>
</svg>
