<svg version="1.1" xmlns="http://www.w3.org/2000/svg" width="32" height="32" viewBox="0 0 32 32">
<title>twitter</title>
<path d="M32 6.133c-1.2 0.533-2.4 0.933-3.733 1.067 1.333-0.8 2.4-2.133 2.933-3.6-1.333 0.8-2.667 1.333-4.133 1.6-1.2-1.333-2.933-2.133-4.8-2.133-3.6 0-6.533 2.933-6.533 6.533 0 0.533 0 1.067 0.133 1.467-5.6-0.267-10.4-2.933-13.6-6.8-0.667 0.933-0.933 2-0.933 3.2 0 2.267 1.2 4.267 2.933 5.467-1.067 0-2.133-0.267-2.933-0.8v0.133c0 3.2 2.267 5.867 5.2 6.4-0.533 0.133-1.067 0.267-1.733 0.267-0.4 0-0.8 0-1.2-0.133 0.8 2.667 3.2 4.533 6.133 4.533-2.267 1.733-5.067 2.8-8.133 2.8-0.533 0-1.067 0-1.6-0.133 2.933 1.867 6.4 2.933 10 2.933 12.133 0 18.667-10 18.667-18.667v-0.8c1.333-0.933 2.4-2.133 3.333-3.333z"></path>
</svg>
