<svg version="1.1" xmlns="http://www.w3.org/2000/svg" width="32" height="32" viewBox="0 0 32 32">
<title>unlocked</title>
<path d="M15.6 25.2c1.867 0 3.467-1.467 3.467-3.467 0-1.867-1.467-3.467-3.467-3.467-1.867 0-3.467 1.467-3.467 3.467 0 1.867 1.6 3.467 3.467 3.467zM15.6 20.533c0.667 0 1.2 0.533 1.2 1.2s-0.533 1.2-1.2 1.2-1.2-0.533-1.2-1.2c0.133-0.667 0.533-1.2 1.2-1.2zM26.667 12.133h-17.467v-3.6c0-3.067 2.133-5.733 5.2-6.267 3.333-0.533 6.4 1.867 6.933 5.067 0 0.267 0 0.533 0 0.933v0.4c0 0.667 0.533 1.2 1.2 1.2s1.2-0.533 1.2-1.2v0c0-4.133-2.933-7.733-6.933-8.533-4.667-0.8-9.067 2.267-9.867 6.8-0.133 0.4-0.133 0.933-0.133 1.333v3.867h-1.467c-1.2 0-2.267 1.067-2.267 2.267v15.2c0 1.333 1.067 2.4 2.267 2.4h21.333c1.2 0 2.267-1.067 2.267-2.267v-15.2c0-1.333-1.067-2.4-2.267-2.4zM26.667 29.733h-21.333v-15.2h21.333v15.2z"></path>
</svg>
