<svg version="1.1" xmlns="http://www.w3.org/2000/svg" width="32" height="32" viewBox="0 0 32 32">
<title>upload</title>
<path d="M10.4 9.067l4.267-4.4v19.333c0 0.8 0.533 1.333 1.333 1.333s1.333-0.533 1.333-1.333v-19.333l4.4 4.4c0.267 0.267 0.667 0.267 1.067 0.267s0.667-0.133 0.933-0.4c0.533-0.533 0.533-1.333 0-1.867l-6.667-6.667c-0.533-0.533-1.333-0.533-1.867 0l-6.667 6.667c-0.533 0.533-0.533 1.467-0.133 2 0.533 0.4 1.467 0.4 2 0v0zM28.133 21.333c-0.8 0-1.333 0.533-1.333 1.333v5.333c0 0.8-0.533 1.333-1.333 1.333h-18.8c-0.8 0-1.333-0.533-1.333-1.333v-5.333c0-0.8-0.533-1.333-1.333-1.333s-1.333 0.533-1.333 1.333v5.333c0 2.267 1.733 4 4 4h18.667c2.267 0 4-1.733 4-4v-5.333c0.133-0.667-0.533-1.333-1.2-1.333z"></path>
</svg>
