<svg version="1.1" xmlns="http://www.w3.org/2000/svg" width="32" height="32" viewBox="0 0 32 32">
<title>user</title>
<path d="M16 19.867c4.267 0 7.467-4.133 7.467-9.333s-3.067-9.333-7.467-9.333-7.467 4.133-7.467 9.333 3.2 9.333 7.467 9.333zM16 3.467c3.067 0 5.067 3.2 5.067 7.067s-2 7.067-5.067 7.067-5.067-3.2-5.067-7.067 2-7.067 5.067-7.067zM23.2 19.067c-0.667-0.133-1.2 0.4-1.333 0.933-0.133 0.667 0.4 1.2 0.933 1.333 0 0 0.133 0 0.133 0 3.6 0.4 6.4 3.333 6.667 7.067h-27.2c0.267-3.6 3.067-6.533 6.667-7.067 0.667-0.133 1.067-0.667 0.933-1.333-0.133-0.533-0.667-1.067-1.2-0.933-0.133 0-8.8 0.933-8.8 10.533 0 0.667 0.533 1.2 1.2 1.2h29.6c0.667 0 1.2-0.533 1.2-1.2 0-9.467-8.8-10.4-8.8-10.533z"></path>
</svg>
