<svg version="1.1" xmlns="http://www.w3.org/2000/svg" width="32" height="32" viewBox="0 0 32 32">
<title>user-circle</title>
<path d="M16 0c-8.8 0-16 7.2-16 16s7.2 16 16 16 16-7.2 16-16c0-8.8-7.2-16-16-16zM2.133 16c0-7.6 6.267-13.867 13.867-13.867s13.867 6.133 13.867 13.733c0 3.067-1.067 6.133-2.933 8.533-1.6-2.533-4.133-4.4-6.933-5.333 1.2-1.333 1.867-3.067 1.867-4.8 0-3.6-2.667-6.533-5.867-6.533s-5.867 2.933-5.867 6.533c0 1.867 0.667 3.6 2 4.933-2.8 1.067-5.2 2.933-6.8 5.6-2-2.4-3.2-5.6-3.2-8.8zM16.4 18.533c-0.4 0-0.8 0-1.2 0-1.6-0.4-2.8-2.133-2.8-4.267 0-2.4 1.6-4.4 3.6-4.4s3.6 2 3.6 4.4c0.133 1.867-0.933 3.467-2.667 4.267-0.133 0-0.4 0-0.533 0zM7.067 26.533c1.6-3.067 4.533-5.2 8-5.733 0.267 0 0.667 0.133 0.933 0.133 0.4 0 0.8 0 1.2-0.133 3.467 0.4 6.533 2.8 8.133 5.333-5.067 4.8-12.933 4.933-18.267 0.4z"></path>
</svg>
