<!-- Generated by IcoMoon.io -->
<svg version="1.1" xmlns="http://www.w3.org/2000/svg" width="32" height="32" viewBox="0 0 32 32">
<title>viber</title>
<path d="M30.667 11.333c0-3.067-1.2-5.867-3.333-8s-4.933-3.333-8-3.333h-6.667c0 0 0 0 0 0-3.067 0-5.867 1.2-8 3.333s-3.333 4.933-3.333 8v5.2c0 2.267 0.667 4.533 2 6.533 1.2 1.733 2.8 2.933 4.667 3.867v3.067c0 1.467 0.933 2 1.733 2 0.533 0 1.067-0.267 1.6-0.8l3.333-3.333h4.667c3.067 0 5.867-1.2 8-3.333s3.333-4.933 3.333-8v-5.2zM19.333 26h-5.067c-0.267 0-0.533 0.133-0.667 0.267l-3.6 3.6c0 0 0 0 0 0s0 0 0 0v-3.6c0-0.4-0.267-0.8-0.667-0.933-3.6-1.333-6.133-4.933-6.133-8.8v-5.2c0-2.533 0.933-4.933 2.8-6.667 1.733-1.733 4.133-2.8 6.667-2.8h6.667c2.533 0 4.933 0.933 6.667 2.8 1.733 1.733 2.8 4.133 2.8 6.667v5.2c0 5.2-4.267 9.467-9.467 9.467zM18.533 15.333c-0.4-0.4-0.933-0.4-1.333 0l-0.8 0.8-2.933-2.933 0.8-0.8c0.133-0.133 0.267-0.4 0.267-0.667s-0.133-0.533-0.267-0.667l-3.6-3.6c-0.133-0.133-0.4-0.267-0.667-0.267s-0.533 0.133-0.667 0.267l-2.4 2.533c-1.333 1.333-1.333 3.467 0 4.933l7.733 7.733c0.667 0.667 1.467 1.067 2.4 1.067s1.733-0.4 2.4-1.067l2.533-2.533c0.133-0.133 0.267-0.4 0.267-0.667s-0.133-0.533-0.267-0.667l-3.467-3.467zM18.267 21.333c-0.267 0.267-0.667 0.4-1.067 0.4s-0.933-0.133-1.2-0.4l-7.867-7.867c-0.533-0.533-0.533-1.467 0-2.133l1.867-1.867 2.267 2.267-0.8 0.8c-0.133 0.133-0.267 0.4-0.267 0.667s0.133 0.533 0.267 0.667l4.267 4.267c0.4 0.4 0.933 0.4 1.333 0l0.8-0.8 2.267 2.267-1.867 1.733zM16.267 4.133c-0.533 0-0.933 0.4-0.933 0.933s0.4 0.933 0.933 0.933c2.133 0 4.133 0.8 5.733 2.4 1.467 1.467 2.4 3.6 2.4 5.733 0 0.533 0.4 0.933 0.933 0.933s0.933-0.4 0.933-0.933c0-2.667-1.067-5.2-2.933-7.067s-4.4-2.933-7.067-2.933zM20.267 14c0 0.533 0.4 0.933 0.933 0.933s0.933-0.4 0.933-0.933c0-3.2-2.667-5.867-5.867-5.867-0.533 0-0.933 0.4-0.933 0.933s0.4 0.933 0.933 0.933c2.133 0 4 1.867 4 4z"></path>
</svg>
