<svg version="1.1" xmlns="http://www.w3.org/2000/svg" width="32" height="32" viewBox="0 0 32 32">
<title>video</title>
<path d="M20.133 15.2l-6-3.733c-0.267-0.133-0.667-0.133-0.933 0-0.267 0-0.4 0.4-0.4 0.667v7.6c0 0.267 0.133 0.667 0.4 0.8 0.133 0 0.267 0.133 0.4 0.133s0.267 0 0.533-0.133l6-3.733c0.267-0.133 0.4-0.4 0.4-0.667 0-0.533-0.133-0.8-0.4-0.933zM18 15.867l-3.467 2.267v-4.4l3.467 2.133zM30.933 3.2h-30.267c-0.4 0-0.8 0.4-0.8 0.8v23.733c0 0.533 0.4 0.933 0.8 0.933h30.267c0.533 0 0.8-0.4 0.8-0.933v-23.733c0.133-0.4-0.267-0.8-0.8-0.8zM26.4 4.933h3.733v4.267h-3.733v-4.267zM26.4 26.933v-4.267h3.733v4.267h-3.733zM26.4 10.8h3.733v4.267h-3.733v-4.267zM26.4 16.8h3.733v4.267h-3.733v-4.267zM5.2 26.933h-3.6v-4.267h3.733v4.267zM5.2 20.933h-3.6v-4.267h3.733v4.267zM5.2 15.067h-3.6v-4.267h3.733v4.267zM5.2 9.067h-3.6v-4.133h3.733v4.133zM24.667 26.933h-17.733v-22h17.733v22z"></path>
</svg>
