<svg version="1.1" xmlns="http://www.w3.org/2000/svg" width="32" height="32" viewBox="0 0 32 32">
<title>view-grid</title>
<path d="M11.467 0h-9.067c-1.333 0-2.4 1.067-2.4 2.4v9.067c0 1.333 1.067 2.4 2.4 2.4h9.067c1.333 0 2.4-1.067 2.4-2.4v-9.067c0.133-1.333-1.067-2.4-2.4-2.4zM11.467 11.467h-9.067v-9.067h9.067v9.067zM29.6 0h-9.067c-1.333 0-2.4 1.067-2.4 2.4v9.067c0 1.333 1.067 2.4 2.4 2.4h9.067c1.333 0 2.4-1.067 2.4-2.4v-9.067c0-1.333-1.067-2.4-2.4-2.4zM29.6 11.467h-9.067v-9.067h9.067v9.067zM11.467 18h-9.067c-1.333 0-2.4 1.067-2.4 2.4v9.067c0 1.333 1.067 2.4 2.4 2.4h9.067c1.333 0 2.4-1.067 2.4-2.4v-9.067c0.133-1.2-1.067-2.4-2.4-2.4zM11.467 29.6h-9.067v-9.067h9.067v9.067zM29.6 18h-9.067c-1.333 0-2.4 1.067-2.4 2.4v9.067c0 1.333 1.067 2.4 2.4 2.4h9.067c1.333 0 2.4-1.067 2.4-2.4v-9.067c0-1.2-1.067-2.4-2.4-2.4zM29.6 29.6h-9.067v-9.067h9.067v9.067z"></path>
</svg>
