<!-- Generated by IcoMoon.io -->
<svg version="1.1" xmlns="http://www.w3.org/2000/svg" width="32" height="32" viewBox="0 0 32 32">
<title>vk</title>
<path d="M27.6 19.067c1.067 1.067 2.133 2 3.2 3.2 0.4 0.533 0.8 1.067 1.067 1.6 0.4 0.8 0 1.733-0.667 1.867h-4.667c-1.2 0.133-2.133-0.4-2.933-1.2-0.667-0.667-1.2-1.333-1.867-2-0.267-0.267-0.533-0.533-0.8-0.8-0.667-0.4-1.2-0.267-1.6 0.4s-0.4 1.467-0.533 2.133c0 1.067-0.4 1.333-1.467 1.467-2.4 0.133-4.533-0.267-6.667-1.467-1.867-1.067-3.2-2.533-4.533-4.267-2.4-3.2-4.267-6.8-5.867-10.533-0.4-0.8-0.133-1.333 0.8-1.333 1.467 0 3.067 0 4.533 0 0.667 0 1.067 0.4 1.2 0.933 0.8 2 1.867 4 3.067 5.733 0.4 0.533 0.667 0.933 1.2 1.333s0.933 0.267 1.2-0.4c0.133-0.4 0.267-0.8 0.267-1.2 0.133-1.467 0.133-2.8-0.133-4.267 0-0.8-0.533-1.333-1.467-1.467-0.4-0.133-0.4-0.267-0.133-0.533 0.4-0.4 0.667-0.667 1.467-0.667h5.333c0.8 0.133 1.067 0.533 1.067 1.333v5.867c0 0.267 0.133 1.333 0.8 1.467 0.4 0.133 0.8-0.267 1.067-0.533 1.2-1.333 2.133-2.933 2.933-4.533 0.4-0.667 0.667-1.467 0.933-2.267 0.267-0.533 0.533-0.8 1.2-0.8h5.067c0.133 0 0.267 0 0.4 0 0.8 0.133 1.067 0.533 0.8 1.333-0.4 1.333-1.2 2.4-2 3.467-0.8 1.2-1.733 2.267-2.533 3.467s-0.8 1.733 0.267 2.667v0z"></path>
</svg>
