<svg version="1.1" xmlns="http://www.w3.org/2000/svg" width="32" height="32" viewBox="0 0 32 32">
<title>wallet</title>
<path d="M29.867 10.933v-6.533c0-1.2-0.933-2.133-2.133-2.133h-25.6c-1.2-0.133-2.133 0.933-2.133 2.133v23.333c0 1.2 0.933 2.133 2.133 2.133h25.467c1.2 0 2.133-0.933 2.133-2.133v-6.533c1.2 0 2.133-0.933 2.133-2.133v-6c0.133-1.2-0.8-2.133-2-2.133zM27.6 27.6h-25.467v-23.2h25.467v6.533h-3.6c-1.2 0-2.133 0.933-2.133 2.133v5.867c0 1.2 0.933 2.133 2.133 2.133h3.6v6.533zM29.867 18.933h-5.867v-5.867h5.867v5.867zM26.933 17.067c0.667 0 1.067-0.533 1.067-1.067s-0.533-1.067-1.067-1.067c-0.667 0-1.067 0.533-1.067 1.067s0.4 1.067 1.067 1.067z"></path>
</svg>
