<!-- Generated by IcoMoon.io -->
<svg version="1.1" xmlns="http://www.w3.org/2000/svg" width="32" height="32" viewBox="0 0 32 32">
<title>wash</title>
<path d="M17.333 16.4c0 0.736-0.597 1.333-1.333 1.333s-1.333-0.597-1.333-1.333c0-0.736 0.597-1.333 1.333-1.333s1.333 0.597 1.333 1.333zM31.467 5.733c-0.4 0-0.8 0.267-0.8 0.533l-0.933 4.533c-0.4-0.133-0.667-0.4-1.067-0.8-0.667-0.667-1.467-1.6-2.933-1.6s-2.267 0.933-2.933 1.6c-0.533 0.667-1.067 1.067-2 1.067s-1.333-0.533-2-1.067c-0.533-0.667-1.333-1.6-2.8-1.6s-2.267 0.8-2.933 1.6c-0.533 0.533-1.067 1.067-1.867 1.067-0.933 0-1.333-0.533-2-1.067-0.667-0.667-1.467-1.6-2.933-1.6s-2.267 0.933-2.933 1.6c-0.4 0.4-0.667 0.667-1.067 0.933l-0.933-4.667c0-0.267-0.4-0.533-0.8-0.533-0.267 0.133-0.533 0.533-0.4 0.8l3.6 18.267c0.267 1.2 1.333 2.133 2.667 2.133h19.333c1.2 0 2.4-0.933 2.667-2.133l3.6-18.267c0-0.267-0.267-0.667-0.533-0.8zM26.933 24.667c-0.133 0.667-0.667 1.067-1.333 1.067h-19.2c-0.667 0-1.2-0.4-1.333-1.067l-2.533-12.4c0.8-0.267 1.333-0.8 1.733-1.333 0.667-0.667 1.067-1.2 2-1.2s1.333 0.533 2 1.067c0.667 0.667 1.467 1.6 2.933 1.6s2.267-0.8 2.933-1.6c0.533-0.533 0.933-1.067 1.867-1.067s1.333 0.533 2 1.067c0.667 0.667 1.467 1.6 2.933 1.6s2.267-0.8 2.933-1.6c0.533-0.667 1.067-1.067 2-1.067s1.333 0.533 2 1.067c0.4 0.533 0.933 1.067 1.733 1.333l-2.667 12.533z"></path>
</svg>
