<!-- Generated by IcoMoon.io -->
<svg version="1.1" xmlns="http://www.w3.org/2000/svg" width="32" height="32" viewBox="0 0 32 32">
<title>watch</title>
<path d="M25.333 15.6c0-2.667-1.067-5.067-3.067-6.8l-1.333-7.733c0-0.667-0.4-1.067-1.067-1.067h-7.733c-0.133 0-0.267 0-0.4 0.133 0 0 0 0 0 0-0.133 0-0.267 0.133-0.267 0.133s0 0 0 0c-0.267 0.133-0.267 0.267-0.4 0.267 0 0 0 0 0 0 0 0.133-0.133 0.267-0.133 0.4 0 0 0 0 0 0l-1.333 7.733c-3.733 3.467-4 9.333-0.533 13.2 0.133 0.133 0.267 0.267 0.4 0.4l1.467 8.667c0.133 0.667 0.533 1.067 1.2 1.067h7.867c0.133 0 0.267 0 0.4-0.133 0 0 0 0 0 0 0.133 0 0.267-0.133 0.267-0.133s0 0 0 0c0.133-0.133 0.133-0.133 0.267-0.267 0 0 0 0 0 0 0-0.133 0.133-0.267 0.133-0.4 0 0 0 0 0 0l1.467-8.667c1.867-1.867 2.8-4.267 2.8-6.8zM13.067 2.4h5.867l0.8 4.667c-2.4-1.067-5.067-1.067-7.467 0l0.8-4.667zM16 8.533c3.867 0 7.067 3.2 7.067 7.067s-3.2 7.067-7.067 7.067-7.067-3.2-7.067-7.067 3.2-7.067 7.067-7.067v0zM18.933 29.6h-5.867l-0.8-5.467c1.2 0.533 2.533 0.8 3.733 0.8 1.333 0 2.667-0.267 3.867-0.8l-0.933 5.467z"></path>
</svg>
