<!-- Generated by IcoMoon.io -->
<svg version="1.1" xmlns="http://www.w3.org/2000/svg" width="32" height="32" viewBox="0 0 32 32">
<title>water-bottle</title>
<path d="M22.933 8c0-2.133-1.467-3.867-3.467-4.267v-3.733h-6.933v3.6c-2 0.533-3.467 2.267-3.467 4.4v0.8c0 1.2 0.533 2.267 1.2 3.067-0.8 0.533-1.2 1.467-1.2 2.4v17.733h13.733v-17.733c0-0.933-0.533-1.867-1.2-2.4 0.8-0.8 1.2-1.867 1.2-3.067l0.133-0.8zM14.4 1.867h3.2v1.6h-3.2v-1.6zM21.067 30.133h-10.133v-3.067h10l0.133 3.067zM21.067 25.2h-10.133v-8.267h10l0.133 8.267zM21.067 8.667c0 1.467-1.2 2.533-2.533 2.533v1.867h1.467c0.533 0 1.067 0.533 1.067 1.067v0.8h-10.133v-0.8c0-0.533 0.533-1.067 1.067-1.067h1.467v-1.733c-1.467 0-2.533-1.2-2.533-2.533v-0.8c0-1.467 1.2-2.533 2.533-2.533h4.933c1.467 0 2.533 1.2 2.533 2.533l0.133 0.667zM16 18.267c-1.6 0-2.8 1.333-2.8 2.8s1.333 2.8 2.8 2.8 2.8-1.333 2.8-2.8-1.2-2.8-2.8-2.8zM16 22.133c-0.533 0-0.933-0.4-0.933-0.933s0.4-0.933 0.933-0.933 0.933 0.4 0.933 0.933-0.4 0.933-0.933 0.933z"></path>
</svg>
