<svg version="1.1" xmlns="http://www.w3.org/2000/svg" width="32" height="32" viewBox="0 0 32 32">
<title>weather</title>
<path d="M21.867 21.067c0 0.133 0 0.133 0 0 0 0.133 0 0.133 0 0.267 0 0 0 0 0 0 0.133-0.133 0-0.133 0-0.267zM31.733 18.267c-0.533-1.733-1.867-3.2-3.6-4-1.067-3.2-3.2-5.6-6.533-5.6-1.867 0.133-3.733 0.8-5.2 2-1.333-2.4-4.4-3.2-6.8-1.867s-3.2 4.4-1.867 6.8c0.267 0.4 0.533 0.8 0.933 1.2-1.067 1.6-1.467 3.6-0.933 5.467 0.8 2.533 3.067 3.867 5.733 4.133 1.067 2.667 3.733 4.4 6.533 4.4 0.933 0 1.733-0.133 2.667-0.4 2.267-0.667 4-2.4 4.933-4.533 0 0 0 0 0 0 1.6-0.533 2.933-1.6 3.733-3.067 0.667-1.2 0.933-2.933 0.4-4.533zM12 10.667c1.333 0 2.4 0.933 2.667 2.133-0.267 0.4-0.4 0.8-0.667 1.2l-2.133 0.667c-0.533 0.133-1.2 0.4-1.6 0.8-1.2-0.933-1.333-2.533-0.4-3.733 0.4-0.8 1.2-1.067 2.133-1.067v0zM26.933 24.133c-0.8 0.267-1.6 0.267-1.2 0.267-0.4 2-1.867 3.467-3.733 4.133-0.667 0.133-1.333 0.133-2 0-2.267 0-4.267-1.6-4.8-3.733-0.4-1.2-1.2-0.667-1.333-0.533-1.733 0.133-3.333-0.933-3.867-2.533-0.667-2.133 0.533-4.267 2.667-4.933 1.2-0.4 3.067-0.933 3.067-0.933s1.333-3.467 3.467-4.267c0.8-0.267 1.467-0.533 2.267-0.667 2.267 0 3.733 1.867 4.4 4.133 0.133 0.4 0.133 0.8 0.133 1.2 1.6 0.133 2.933 1.2 3.467 2.667 0.667 2.267-0.533 4.533-2.533 5.2zM11.067 1.067c0.667 0 1.2 0.533 1.2 1.2v3.067c0 0.667-0.533 1.2-1.2 1.2s-1.067-0.667-1.067-1.333v-3.067c0-0.533 0.533-1.067 1.067-1.067zM1.2 11.067h3.067c0.533 0 1.067 0.4 1.067 1.067s-0.533 1.2-1.067 1.2h-3.067c-0.667 0-1.2-0.533-1.2-1.2s0.533-1.067 1.2-1.067zM5.067 4.4l2.133 2.133c0.4 0.4 0.533 1.2 0 1.6-0.4 0.4-1.2 0.533-1.6 0 0 0 0 0 0 0l-2.133-2.133c-0.4-0.4-0.533-1.2 0-1.6 0.4-0.533 1.067-0.533 1.6 0 0 0 0 0 0 0zM19.6 5.333l-2.267 2.267c-0.4 0.533-1.2 0.533-1.733 0-0.533-0.4-0.533-1.2 0-1.733 0 0 0 0 0 0l2.267-2.267c0.4-0.533 1.2-0.533 1.733 0s0.533 1.2 0 1.733c0 0 0 0 0 0zM5.733 17.6l-2.267 2.267c-0.4 0.4-1.2 0.4-1.733 0-0.4-0.4-0.4-1.2 0-1.733l2.4-2.133c0.4-0.533 1.2-0.533 1.733 0 0.4 0.4 0.4 1.067-0.133 1.6 0.133 0 0.133 0 0 0z"></path>
</svg>
