<svg version="1.1" xmlns="http://www.w3.org/2000/svg" width="32" height="32" viewBox="0 0 32 32">
<title>wechat</title>
<path d="M32 20c0-3.867-3.467-7.067-8-7.867 0 0 0-0.133 0-0.133 0-5.467-5.333-10-12-10s-12 4.533-12 10c0 2.933 1.467 5.6 4.133 7.6l-1.067 2c-0.133 0.4-0.133 0.8 0.133 1.067 0.133 0.267 0.4 0.267 0.667 0.267 0.133 0 0.267 0 0.4-0.133l3.733-1.467c1.333 0.4 2.933 0.667 4.4 0.533 1.2 3.867 6 6.667 11.467 5.867l4.8 2c0.133 0 0.267 0.133 0.4 0.133 0.267 0 0.533-0.133 0.667-0.267 0.267-0.267 0.4-0.8 0.133-1.2l-1.333-2.533c2.267-1.467 3.467-3.6 3.467-5.867zM8.267 19.333c-0.267 0-0.533 0-0.667 0l-1.333 0.533 0.133-0.4c0.267-0.4 0.133-1.067-0.4-1.333-2.533-1.6-4-3.867-4-6.4 0-4.4 4.533-8 10-8s10 3.6 10 8c-5.467 0.267-10 3.867-10 8.267-1.333 0-2.533-0.267-3.733-0.667zM26.8 24.8c-0.4 0.267-0.667 0.8-0.4 1.333l0.4 0.933-2.533-1.067c-0.133 0-0.267-0.133-0.4-0.133 0 0-0.133 0-0.133 0-0.667 0.133-1.2 0.133-1.733 0.133-4.4 0-8-2.667-8-6s3.6-6 8-6c0.267 0 0.533 0 0.667 0 0 0 0.133 0 0.133 0 4 0.4 7.067 2.933 7.067 6 0.133 1.867-1.067 3.6-3.067 4.8zM8 8v0c-0.533 0-0.933 0.4-0.933 1.067s0.4 0.933 0.933 0.933c0.533 0 1.067-0.4 1.067-1.067s-0.533-0.933-1.067-0.933zM16 8v0c-0.533 0-1.067 0.4-1.067 1.067s0.4 1.067 1.067 1.067 1.067-0.4 1.067-1.067-0.533-1.067-1.067-1.067zM19.067 17.067v0c-0.533 0-1.067 0.4-1.067 1.067s0.4 1.067 1.067 1.067 1.067-0.4 1.067-1.067-0.533-1.067-1.067-1.067zM25.067 17.067v0c-0.533 0-1.067 0.4-1.067 1.067s0.4 1.067 1.067 1.067c0.533 0 1.067-0.4 1.067-1.067s-0.533-1.067-1.067-1.067z"></path>
</svg>
