<svg version="1.1" xmlns="http://www.w3.org/2000/svg" width="32" height="32" viewBox="0 0 32 32">
<title>wine</title>
<path d="M18.933 11.733v-11.733h-5.867v11.733c-1.733 0.8-2.8 2.533-2.8 4.4v15.867h11.6v-15.867c-0.133-1.867-1.2-3.6-2.933-4.4zM14.933 1.867h2.267v1.467h-2.267v-1.467zM12.133 16.133c0-1.333 0.933-2.4 2.133-2.8l0.667-0.133v-7.867h2.267v7.867l0.667 0.133c1.2 0.4 2.133 1.467 2.133 2.8v0.933h-7.867v-0.933zM19.867 30.133h-7.733v-3.6h7.867v3.6zM19.867 24.667h-7.733v-5.733h7.867v5.733z"></path>
</svg>
