<svg version="1.1" xmlns="http://www.w3.org/2000/svg" width="32" height="32" viewBox="0 0 32 32">
<title>youtube-outline</title>
<path d="M24.4 5.333c2.933 0 5.333 2.4 5.333 5.333 0 0 0 0 0 0v10.667c0 2.933-2.4 5.333-5.333 5.333 0 0 0 0 0 0h-16.8c-2.933 0-5.333-2.4-5.333-5.333 0 0 0 0 0 0v-10.667c0-2.933 2.4-5.333 5.333-5.333 0 0 0 0 0 0h16.8zM24.4 3.067h-16.8c-4.133 0-7.6 3.467-7.6 7.6v10.667c0 4.267 3.467 7.6 7.6 7.6h16.667c4.267 0 7.6-3.467 7.6-7.6v-10.667c0.133-4.133-3.333-7.6-7.467-7.6v0zM13.733 12.133l6.133 3.867-6.133 3.867v-7.733zM13.733 9.867c-0.4 0-0.8 0.133-1.067 0.267-0.8 0.4-1.2 1.2-1.2 2v7.6c0 0.8 0.4 1.6 1.2 2 0.4 0.133 0.667 0.267 1.067 0.267s0.8-0.133 1.2-0.4l6.133-3.867c1.067-0.667 1.333-2.133 0.667-3.2-0.133-0.267-0.4-0.533-0.667-0.667l-6.133-3.867c-0.4 0-0.8-0.133-1.2-0.133v0z"></path>
</svg>
