<svg version="1.1" xmlns="http://www.w3.org/2000/svg" width="32" height="32" viewBox="0 0 32 32">
<title>youtube</title>
<path d="M30.667 7.067c-0.933-1.6-1.867-1.867-3.733-2s-6.8-0.133-10.933-0.133c-4.133 0-9.067 0-10.933 0.133-1.867 0.267-2.8 0.533-3.733 2-0.933 1.6-1.333 4.267-1.333 8.933 0 0 0 0 0 0s0 0 0 0v0c0 4.667 0.4 7.333 1.333 8.8 0.933 1.6 1.867 1.867 3.733 2s6.8 0.133 10.933 0.133c4.133 0 8.933 0 10.933-0.133 1.867-0.133 2.8-0.4 3.733-2 0.933-1.467 1.333-4.267 1.333-8.8 0 0 0 0 0 0s0 0 0 0c0-4.667-0.4-7.333-1.333-8.933zM12 22v-12l10 6-10 6z"></path>
</svg>
